%FSLAX24Y24*%
%ADD10C,0.025*%
%ADD11C,0.012*%
%ADD12O,0.4X0.07*%
%ADD13R,0.06X0.06*%
%ADD14C,0.06*%
%ADD15C,0.05*%
D10*
%LNUntitled Image*%
G01*
X41000Y28300D02*
X41000Y31220D01*
X41000Y27170D02*
X41000Y28300D01*
X40800Y31430D02*
X41000Y31220D01*
X40800Y31430D02*
X40800Y35330D01*
X41600Y36130*
X41000Y27170D02*
X41600Y26570D01*
X41600Y36130D02*
X41600Y37350D01*
X41000Y37950D02*
X41600Y37350D01*
X41000Y37950D02*
X41000Y45100D01*
X41040Y27130D02*
X41600Y26570D01*
X36360Y27130D02*
X41040Y27130D01*
X35800Y26570D02*
X36360Y27130D01*
X41600Y36130D02*
X42720Y36130D01*
X43280Y36690*
X46840Y36690*
X47400Y36130*
X40430Y38520D02*
X41000Y37950D01*
X30270Y38520D02*
X40430Y38520D01*
X29700Y37950D02*
X30270Y38520D01*
X29400Y37950D02*
X29700Y37950D01*
X47400Y36130D02*
X47400Y36500D01*
X47740Y36840*
X48490Y36840*
X50480Y38830*
X50480Y41880*
X51100Y42500*
X52750Y42500*
X41600Y26570D02*
X42160Y27130D01*
X44870Y27130*
X45430Y26570*
X47400Y26570*
X28840Y38510D02*
X29400Y37950D01*
X27000Y38350D02*
X27400Y37950D01*
X27800Y37540*
X27800Y30940D02*
X27800Y37540D01*
X27000Y38350D02*
X27000Y39700D01*
X27560Y39140*
X27400Y37950D02*
X27980Y37370D01*
X30000Y37370*
X30770Y38130*
X32460Y38130*
X32640Y37950*
X39000Y37950*
X27400Y28300D02*
X27400Y29730D01*
X27400Y27190D02*
X27400Y28300D01*
X27000Y30130D02*
X27400Y29730D01*
X27000Y30130D02*
X27800Y30940D01*
X27400Y27190D02*
X27560Y27030D01*
X27560Y21130D02*
X27560Y27030D01*
X27000Y20570D02*
X27560Y21130D01*
X27000Y30130D02*
X28230Y30130D01*
X28790Y29570*
X32240Y29570*
X32800Y30130*
X33690Y30130*
X29400Y27170D02*
X29400Y28300D01*
X29400Y27170D02*
X30000Y26570D01*
X30560Y27130*
X05640Y54740D02*
X06200Y55300D01*
X05640Y50610D02*
X05640Y54740D01*
X05640Y50610D02*
X06200Y50050D01*
X05640Y49490D02*
X06200Y50050D01*
X06200Y55300D02*
X06900Y54600D01*
X05640Y33740D02*
X06200Y34300D01*
X05640Y29610D02*
X05640Y33740D01*
X05640Y29610D02*
X06200Y29050D01*
X05640Y28490D02*
X06200Y29050D01*
X05640Y34860D02*
X06200Y34300D01*
X05640Y24360D02*
X06200Y23800D01*
X05640Y24360D02*
X05640Y28490D01*
X06200Y23800D02*
X06760Y23240D01*
X13840Y23240*
X05640Y38990D02*
X06200Y39550D01*
X05640Y34860D02*
X05640Y38990D01*
X05640Y40110D02*
X06200Y39550D01*
X05640Y45360D02*
X06200Y44800D01*
X05640Y45360D02*
X05640Y49490D01*
X05640Y44240D02*
X06200Y44800D01*
X05640Y40110D02*
X05640Y44240D01*
X17000Y55000D02*
X17810Y55810D01*
X23980Y55810*
X24930Y54850*
X24930Y48930D02*
X24930Y54850D01*
X24600Y48600D02*
X24930Y48930D01*
X24600Y48600D02*
X25020Y48180D01*
X28060Y48180*
X28640Y47600*
X29400Y47600*
X14800Y55000D02*
X17000Y55000D01*
X14400Y54600D02*
X14800Y55000D01*
X06900Y54600D02*
X14400Y54600D01*
X31510Y40980D02*
X32800Y39700D01*
X31510Y40980D02*
X31510Y48500D01*
X32280Y49270*
X32800Y49270*
X32600Y49070D02*
X32800Y49270D01*
X32240Y48710D02*
X32600Y49070D01*
X32750Y48080*
X29110Y48710D02*
X32240Y48710D01*
X28850Y48980D02*
X29110Y48710D01*
X27290Y48980D02*
X28850Y48980D01*
X27000Y49270D02*
X27290Y48980D01*
X32750Y48080D02*
X33380Y48080D01*
X32240Y39140D02*
X32800Y39700D01*
X27560Y39140D02*
X32240Y39140D01*
X27000Y48000D02*
X27000Y49270D01*
X27000Y48000D02*
X27400Y47600D01*
X12200Y31300D02*
X12760Y30740D01*
X12760Y26610D02*
X12760Y30740D01*
X12200Y26050D02*
X12760Y26610D01*
X12200Y26050D02*
X12760Y25490D01*
X12200Y31300D02*
X12760Y31860D01*
X12200Y20800D02*
X12760Y21360D01*
X12760Y25490*
X12200Y20800D02*
X13000Y21600D01*
X12200Y36550D02*
X12760Y35990D01*
X12760Y31860D02*
X12760Y35990D01*
X12200Y36550D02*
X12760Y37110D01*
X12200Y36550D02*
X12550Y36200D01*
X12200Y41800D02*
X12760Y41240D01*
X12760Y37110D02*
X12760Y41240D01*
X12200Y41800D02*
X12760Y42360D01*
X12200Y47050D02*
X12760Y47610D01*
X12760Y51740*
X12200Y52300D02*
X12760Y51740D01*
X12200Y47050D02*
X12760Y46490D01*
X12760Y42360D02*
X12760Y46490D01*
X12200Y52300D02*
X14100Y52300D01*
X14400Y52600*
X20990Y52600*
X21190Y52800*
X22500Y52800*
X23000Y52310*
X23000Y52000D02*
X23000Y52310D01*
X38600Y48000D02*
X38600Y49270D01*
X38600Y48000D02*
X39000Y47600D01*
X37490Y49270D02*
X38600Y49270D01*
X36930Y48710D02*
X37490Y49270D01*
X34000Y48710D02*
X36930Y48710D01*
X33380Y48080D02*
X34000Y48710D01*
X38600Y49270D02*
X39160Y48710D01*
X48510Y22760D02*
X48510Y28620D01*
X48850Y28960*
X48510Y22760D02*
X49250Y23500D01*
X48250Y29570D02*
X48850Y28960D01*
X44970Y29570D02*
X48250Y29570D01*
X44400Y30130D02*
X44970Y29570D01*
X43840Y29570D02*
X44400Y30130D01*
X39160Y29570D02*
X43840Y29570D01*
X38600Y30130D02*
X39160Y29570D01*
X43590Y21370D02*
X44400Y20570D01*
X43590Y21370D02*
X43590Y29330D01*
X44400Y30130*
X35800Y45700D02*
X36610Y46500D01*
X36610Y54460*
X35800Y55270D02*
X36610Y54460D01*
X35000Y46500D02*
X35800Y45700D01*
X36360Y46260*
X40970Y54640D02*
X41600Y55270D01*
X40970Y51240D02*
X40970Y54640D01*
X40800Y51070D02*
X40970Y51240D01*
X40800Y48170D02*
X40800Y51070D01*
X40800Y48170D02*
X41000Y47970D01*
X41000Y47600D02*
X41000Y47970D01*
X41000Y47600D02*
X41600Y47000D01*
X41600Y45700D02*
X41600Y47000D01*
X41000Y45100D02*
X41600Y45700D01*
X42160Y46260*
X41040Y45700D02*
X41600Y45700D01*
X40480Y46260D02*
X41040Y45700D01*
X36360Y46260D02*
X40480Y46260D01*
X15600Y49600D02*
X15600Y51400D01*
X14400Y52600D02*
X15600Y51400D01*
X30000Y55270D02*
X30380Y55270D01*
X30800Y54840*
X30800Y49000D02*
X30800Y54840D01*
X29400Y47600D02*
X30800Y49000D01*
X29400Y46300D02*
X29400Y47600D01*
X29400Y46300D02*
X30000Y45700D01*
X31120Y45700*
X31930Y46500*
X35000Y46500*
X45640Y45700D02*
X45640Y53510D01*
X47400Y55270*
X45640Y45700D02*
X47400Y45700D01*
X44840Y46260D02*
X45640Y45700D01*
X42160Y46260D02*
X44840Y46260D01*
X38600Y28700D02*
X38600Y30130D01*
X38600Y28700D02*
X39000Y28300D01*
X38050Y27340D02*
X39000Y28300D01*
X38050Y21120D02*
X38050Y27340D01*
X38050Y21120D02*
X38600Y20570D01*
X37570Y30130D02*
X38600Y30130D01*
X36760Y29330D02*
X37570Y30130D01*
X34500Y29330D02*
X36760Y29330D01*
X33690Y30130D02*
X34500Y29330D01*
X22800Y21000D02*
X26570Y21000D01*
X27000Y20570*
X22200Y21600D02*
X22800Y21000D01*
X32240Y21130D02*
X32800Y20570D01*
X32240Y21130D02*
X32240Y29570D01*
X32800Y30130*
D11*
X08200Y36550D02*
X08200Y37810D01*
X08200Y35670D02*
X08200Y36550D01*
X08200Y35670D02*
X08690Y35180D01*
X08200Y37810D02*
X08690Y38300D01*
X08690Y40430*
X08200Y40920D02*
X08690Y40430D01*
X08200Y26050D02*
X08200Y27310D01*
X08200Y25170D02*
X08200Y26050D01*
X08200Y25170D02*
X08690Y24680D01*
X08690Y21290D02*
X08690Y24680D01*
X08200Y20800D02*
X08690Y21290D01*
X08200Y27310D02*
X08690Y27800D01*
X08690Y29930*
X08200Y30420D02*
X08690Y29930D01*
X08200Y31300D02*
X08200Y32560D01*
X08200Y30420D02*
X08200Y31300D01*
X08200Y32560D02*
X08690Y33050D01*
X08690Y35180*
X08200Y31300D02*
X10590Y33690D01*
X14090Y33690*
X14600Y34200*
X08200Y47050D02*
X08200Y48310D01*
X08200Y46170D02*
X08200Y47050D01*
X08200Y46170D02*
X08690Y45680D01*
X08200Y48310D02*
X08690Y48800D01*
X08690Y50930*
X08200Y51420D02*
X08690Y50930D01*
X08200Y51420D02*
X08200Y52300D01*
X08200Y41800D02*
X08200Y43060D01*
X08200Y40920D02*
X08200Y41800D01*
X08200Y43060D02*
X08690Y43550D01*
X08690Y45680*
X08200Y50050D02*
X08200Y50930D01*
X08200Y48790D02*
X08200Y50050D01*
X07710Y51420D02*
X08200Y50930D01*
X07710Y51420D02*
X07710Y54810D01*
X08200Y55300*
X07710Y48300D02*
X08200Y48790D01*
X08200Y44800D02*
X08200Y45680D01*
X08200Y43540D02*
X08200Y44800D01*
X07710Y43050D02*
X08200Y43540D01*
X07710Y46170D02*
X08200Y45680D01*
X07710Y46170D02*
X07710Y48300D01*
X08200Y44800D02*
X10400Y42600D01*
X08200Y34300D02*
X08200Y35180D01*
X08200Y33040D02*
X08200Y34300D01*
X07710Y32550D02*
X08200Y33040D01*
X07710Y35670D02*
X08200Y35180D01*
X07710Y35670D02*
X07710Y37800D01*
X08200Y38290*
X08200Y39550D02*
X08200Y40430D01*
X08200Y38290D02*
X08200Y39550D01*
X07710Y40920D02*
X08200Y40430D01*
X07710Y40920D02*
X07710Y43050D01*
X08200Y29050D02*
X08200Y29930D01*
X08200Y27800D02*
X08200Y29050D01*
X07710Y27310D02*
X08200Y27800D01*
X07710Y25170D02*
X07710Y27310D01*
X07710Y25170D02*
X08200Y24680D01*
X08200Y23800D02*
X08200Y24680D01*
X07710Y30420D02*
X08200Y29930D01*
X07710Y30420D02*
X07710Y32550D01*
X39850Y47660D02*
X41090Y46420D01*
X39850Y47660D02*
X39850Y51630D01*
X39850Y45840D02*
X39850Y47660D01*
X39200Y45190D02*
X39850Y45840D01*
X39850Y51630D02*
X40220Y52000D01*
X39850Y51000D02*
X39850Y51630D01*
X39850Y51000D02*
X39980Y50870D01*
X40730Y50870*
X41130Y51270*
X41600Y51270*
X39850Y51630D02*
X40220Y52000D01*
X41090Y46420D02*
X41280Y46610D01*
X45370Y46610*
X45790Y46190*
X48760Y46190*
X49450Y45500*
X49450Y43500D02*
X49450Y45500D01*
X49130Y43180D02*
X49450Y43500D01*
X48750Y43180D02*
X49130Y43180D01*
X48440Y43490D02*
X48750Y43180D01*
X48440Y43490D02*
X48440Y43660D01*
X47400Y44700D02*
X48440Y43660D01*
X06200Y47050D02*
X06200Y48310D01*
X06200Y46170D02*
X06200Y47050D01*
X06200Y46170D02*
X06690Y45680D01*
X06200Y48310D02*
X06690Y48800D01*
X06690Y50930*
X06200Y51420D02*
X06690Y50930D01*
X06200Y51420D02*
X06200Y52300D01*
X06200Y41800D02*
X06200Y43060D01*
X06200Y40920D02*
X06200Y41800D01*
X06200Y40920D02*
X06690Y40430D01*
X06200Y43060D02*
X06690Y43550D01*
X06690Y45680*
X06200Y26050D02*
X06200Y27300D01*
X06200Y25170D02*
X06200Y26050D01*
X06200Y25170D02*
X06690Y24680D01*
X06690Y21290D02*
X06690Y24680D01*
X06200Y20800D02*
X06690Y21290D01*
X06200Y27300D02*
X06690Y27790D01*
X06200Y36550D02*
X06200Y37810D01*
X06200Y35670D02*
X06200Y36550D01*
X06200Y37810D02*
X06690Y38300D01*
X06690Y40430*
X06200Y35670D02*
X06690Y35180D01*
X06690Y33040D02*
X06690Y35180D01*
X06200Y32550D02*
X06690Y33040D01*
X06200Y31300D02*
X06200Y32550D01*
X06200Y30420D02*
X06200Y31300D01*
X06200Y30420D02*
X06690Y29930D01*
X06690Y27790D02*
X06690Y29930D01*
X07200Y36550D02*
X07200Y37810D01*
X07200Y35670D02*
X07200Y36550D01*
X07200Y35670D02*
X07690Y35180D01*
X07200Y37810D02*
X07690Y38300D01*
X07690Y40430*
X07200Y40920D02*
X07690Y40430D01*
X07200Y36550D02*
X08550Y35200D01*
X07200Y26050D02*
X07200Y27310D01*
X07200Y25170D02*
X07200Y26050D01*
X07200Y25170D02*
X07690Y24680D01*
X07690Y21290D02*
X07690Y24680D01*
X07200Y20800D02*
X07690Y21290D01*
X07200Y27310D02*
X07690Y27800D01*
X07690Y29930*
X07200Y30420D02*
X07690Y29930D01*
X07200Y31300D02*
X07200Y32560D01*
X07200Y30420D02*
X07200Y31300D01*
X07200Y32560D02*
X07690Y33050D01*
X07690Y35180*
X07200Y47050D02*
X07200Y48310D01*
X07200Y46170D02*
X07200Y47050D01*
X07200Y46170D02*
X07690Y45680D01*
X07200Y48310D02*
X07690Y48800D01*
X07690Y50930*
X07200Y51420D02*
X07690Y50930D01*
X07200Y51420D02*
X07200Y52300D01*
X07200Y41800D02*
X07200Y43060D01*
X07200Y40920D02*
X07200Y41800D01*
X07200Y43060D02*
X07690Y43550D01*
X07690Y45680*
X07200Y50050D02*
X07200Y50930D01*
X07200Y48790D02*
X07200Y50050D01*
X06710Y51420D02*
X07200Y50930D01*
X06710Y51420D02*
X06710Y54810D01*
X07200Y55300*
X06710Y48300D02*
X07200Y48790D01*
X07200Y44800D02*
X07200Y45680D01*
X07200Y43540D02*
X07200Y44800D01*
X06710Y43050D02*
X07200Y43540D01*
X06710Y46170D02*
X07200Y45680D01*
X06710Y46170D02*
X06710Y48300D01*
X07200Y34300D02*
X07200Y35180D01*
X07200Y33040D02*
X07200Y34300D01*
X06710Y32550D02*
X07200Y33040D01*
X06710Y35670D02*
X07200Y35180D01*
X06710Y35670D02*
X06710Y37800D01*
X07200Y38290*
X07200Y39550D02*
X07200Y40430D01*
X07200Y38290D02*
X07200Y39550D01*
X06710Y40920D02*
X07200Y40430D01*
X06710Y40920D02*
X06710Y43050D01*
X07200Y39550D02*
X08320Y40670D01*
X13670Y40670*
X14600Y41600*
X07200Y29050D02*
X07200Y29930D01*
X07200Y27800D02*
X07200Y29050D01*
X06710Y27310D02*
X07200Y27800D01*
X06710Y25170D02*
X06710Y27310D01*
X06710Y25170D02*
X07200Y24680D01*
X07200Y23800D02*
X07200Y24680D01*
X06710Y30420D02*
X07200Y29930D01*
X06710Y30420D02*
X06710Y32550D01*
X09200Y36550D02*
X09200Y37810D01*
X09200Y35670D02*
X09200Y36550D01*
X09200Y35670D02*
X09690Y35180D01*
X09200Y37810D02*
X09690Y38300D01*
X09690Y40430*
X09200Y40920D02*
X09690Y40430D01*
X09200Y26050D02*
X09200Y27310D01*
X09200Y25170D02*
X09200Y26050D01*
X09200Y25170D02*
X09690Y24680D01*
X09690Y21290D02*
X09690Y24680D01*
X09200Y20800D02*
X09690Y21290D01*
X09200Y27310D02*
X09690Y27800D01*
X09690Y29930*
X09200Y30420D02*
X09690Y29930D01*
X09200Y31300D02*
X09200Y32560D01*
X09200Y30420D02*
X09200Y31300D01*
X09200Y32560D02*
X09690Y33050D01*
X09690Y35180*
X09200Y31300D02*
X09200Y31780D01*
X09200Y47050D02*
X09200Y48310D01*
X09200Y46170D02*
X09200Y47050D01*
X09200Y46170D02*
X09690Y45680D01*
X09200Y48310D02*
X09690Y48800D01*
X09690Y50930*
X09200Y51420D02*
X09690Y50930D01*
X09200Y51420D02*
X09200Y52300D01*
X09200Y41800D02*
X09200Y43060D01*
X09200Y40920D02*
X09200Y41800D01*
X09200Y43060D02*
X09690Y43550D01*
X09690Y45680*
X09200Y50050D02*
X09200Y50930D01*
X09200Y48790D02*
X09200Y50050D01*
X08710Y51420D02*
X09200Y50930D01*
X08710Y51420D02*
X08710Y54810D01*
X09200Y55300*
X08710Y48300D02*
X09200Y48790D01*
X09200Y44800D02*
X09200Y45680D01*
X09200Y43540D02*
X09200Y44800D01*
X08710Y43050D02*
X09200Y43540D01*
X08710Y46170D02*
X09200Y45680D01*
X08710Y46170D02*
X08710Y48300D01*
X09200Y44800D02*
X10400Y43600D01*
X09200Y34300D02*
X09200Y35180D01*
X09200Y33040D02*
X09200Y34300D01*
X08710Y32550D02*
X09200Y33040D01*
X08710Y35670D02*
X09200Y35180D01*
X08710Y35670D02*
X08710Y37800D01*
X09200Y38290*
X09200Y39550D02*
X09200Y40430D01*
X09200Y38290D02*
X09200Y39550D01*
X08710Y40920D02*
X09200Y40430D01*
X08710Y40920D02*
X08710Y43050D01*
X09200Y29050D02*
X09200Y29930D01*
X09200Y27800D02*
X09200Y29050D01*
X08710Y27310D02*
X09200Y27800D01*
X08710Y25170D02*
X08710Y27310D01*
X08710Y25170D02*
X09200Y24680D01*
X09200Y23800D02*
X09200Y24680D01*
X08710Y30420D02*
X09200Y29930D01*
X08710Y30420D02*
X08710Y32550D01*
X10200Y36550D02*
X10200Y37810D01*
X10200Y35670D02*
X10200Y36550D01*
X10200Y35670D02*
X10690Y35180D01*
X10200Y37810D02*
X10690Y38300D01*
X10690Y40430*
X10200Y40920D02*
X10690Y40430D01*
X10200Y26050D02*
X10200Y27310D01*
X10200Y25170D02*
X10200Y26050D01*
X10200Y25170D02*
X10690Y24680D01*
X10690Y21290D02*
X10690Y24680D01*
X10200Y20800D02*
X10690Y21290D01*
X10200Y27310D02*
X10690Y27800D01*
X10690Y29930*
X10200Y30420D02*
X10690Y29930D01*
X10200Y31300D02*
X10200Y32560D01*
X10200Y30420D02*
X10200Y31300D01*
X10200Y32560D02*
X10690Y33050D01*
X10690Y35180*
X10200Y31300D02*
X10860Y30640D01*
X10200Y47050D02*
X10200Y48310D01*
X10200Y46170D02*
X10200Y47050D01*
X10200Y46170D02*
X10690Y45680D01*
X10200Y48310D02*
X10690Y48800D01*
X10690Y50930*
X10200Y51420D02*
X10690Y50930D01*
X10200Y51420D02*
X10200Y52300D01*
X10200Y41800D02*
X10200Y43060D01*
X10200Y40920D02*
X10200Y41800D01*
X10200Y43060D02*
X10690Y43550D01*
X10690Y45680*
X10200Y50050D02*
X10200Y50930D01*
X10200Y48790D02*
X10200Y50050D01*
X09710Y51420D02*
X10200Y50930D01*
X09710Y51420D02*
X09710Y54810D01*
X10200Y55300*
X09710Y48300D02*
X10200Y48790D01*
X10200Y39550D02*
X10200Y40430D01*
X10200Y38290D02*
X10200Y39550D01*
X09710Y37800D02*
X10200Y38290D01*
X09710Y40920D02*
X10200Y40430D01*
X09710Y40920D02*
X09710Y43050D01*
X10200Y43540*
X10200Y34300D02*
X10200Y35180D01*
X10200Y33040D02*
X10200Y34300D01*
X09710Y32550D02*
X10200Y33040D01*
X09710Y35670D02*
X10200Y35180D01*
X09710Y35670D02*
X09710Y37800D01*
X10200Y44800D02*
X10200Y45680D01*
X10200Y43540D02*
X10200Y44800D01*
X09710Y46170D02*
X10200Y45680D01*
X09710Y46170D02*
X09710Y48300D01*
X10200Y44800D02*
X10800Y44200D01*
X14200Y44200*
X14600Y44600*
X10200Y29050D02*
X10200Y29930D01*
X10200Y27800D02*
X10200Y29050D01*
X09710Y27310D02*
X10200Y27800D01*
X09710Y25170D02*
X09710Y27310D01*
X09710Y25170D02*
X10200Y24680D01*
X10200Y23800D02*
X10200Y24680D01*
X09710Y30420D02*
X10200Y29930D01*
X09710Y30420D02*
X09710Y32550D01*
X11200Y36550D02*
X11200Y37810D01*
X11200Y35670D02*
X11200Y36550D01*
X11200Y35670D02*
X11690Y35180D01*
X11200Y37810D02*
X11690Y38300D01*
X11690Y40430*
X11200Y40920D02*
X11690Y40430D01*
X11200Y47050D02*
X11200Y48310D01*
X11200Y46170D02*
X11200Y47050D01*
X11200Y46170D02*
X11690Y45680D01*
X11200Y48310D02*
X11690Y48800D01*
X11690Y50930*
X11200Y51420D02*
X11690Y50930D01*
X11200Y51420D02*
X11200Y52300D01*
X11200Y26050D02*
X11200Y27310D01*
X11200Y25170D02*
X11200Y26050D01*
X11200Y25170D02*
X11690Y24680D01*
X11690Y21290D02*
X11690Y24680D01*
X11200Y20800D02*
X11690Y21290D01*
X11200Y27310D02*
X11690Y27800D01*
X11690Y29930*
X11200Y30420D02*
X11690Y29930D01*
X11200Y31300D02*
X11200Y32560D01*
X11200Y30420D02*
X11200Y31300D01*
X11200Y32560D02*
X11690Y33050D01*
X11690Y35180*
X10710Y31790D02*
X11200Y31300D01*
X11200Y41800D02*
X11200Y43060D01*
X11200Y40920D02*
X11200Y41800D01*
X11200Y43060D02*
X11690Y43550D01*
X11690Y45680*
X11200Y50050D02*
X11200Y50930D01*
X11200Y48790D02*
X11200Y50050D01*
X10710Y51420D02*
X11200Y50930D01*
X10710Y51420D02*
X10710Y54810D01*
X11200Y55300*
X10710Y48300D02*
X11200Y48790D01*
X11200Y44800D02*
X11200Y45680D01*
X11200Y43540D02*
X11200Y44800D01*
X10710Y43050D02*
X11200Y43540D01*
X10710Y46170D02*
X11200Y45680D01*
X10710Y46170D02*
X10710Y48300D01*
X11200Y44800D02*
X12000Y45600D01*
X11200Y34300D02*
X11200Y35180D01*
X11200Y33040D02*
X11200Y34300D01*
X10710Y32550D02*
X11200Y33040D01*
X10710Y35670D02*
X11200Y35180D01*
X10710Y35670D02*
X10710Y37800D01*
X11200Y38290*
X11200Y39550D02*
X11200Y40430D01*
X11200Y38290D02*
X11200Y39550D01*
X10710Y40920D02*
X11200Y40430D01*
X10710Y40920D02*
X10710Y43050D01*
X11200Y29050D02*
X11200Y29930D01*
X11200Y27800D02*
X11200Y29050D01*
X10710Y27310D02*
X11200Y27800D01*
X10710Y25170D02*
X10710Y27310D01*
X10710Y25170D02*
X11200Y24680D01*
X11200Y23800D02*
X11200Y24680D01*
X10710Y30420D02*
X11200Y29930D01*
X10710Y30420D02*
X10710Y32550D01*
X12200Y50050D02*
X12200Y50930D01*
X12200Y48790D02*
X12200Y50050D01*
X11710Y51420D02*
X12200Y50930D01*
X11710Y51420D02*
X11710Y54810D01*
X12200Y55300*
X11710Y48300D02*
X12200Y48790D01*
X12200Y39550D02*
X12200Y40430D01*
X12200Y38290D02*
X12200Y39550D01*
X11710Y37800D02*
X12200Y38290D01*
X11710Y40920D02*
X12200Y40430D01*
X11710Y40920D02*
X11710Y43050D01*
X12200Y43540*
X12200Y34300D02*
X12200Y35180D01*
X12200Y33040D02*
X12200Y34300D01*
X11710Y32550D02*
X12200Y33040D01*
X11710Y35670D02*
X12200Y35180D01*
X11710Y35670D02*
X11710Y37800D01*
X12200Y44800D02*
X12200Y45680D01*
X12200Y43540D02*
X12200Y44800D01*
X11710Y46170D02*
X12200Y45680D01*
X11710Y46170D02*
X11710Y48300D01*
X12200Y44800D02*
X12510Y45110D01*
X14960Y45110*
X15100Y45250*
X15100Y46100*
X15600Y46600*
X12200Y29050D02*
X12200Y29930D01*
X12200Y27800D02*
X12200Y29050D01*
X11710Y27310D02*
X12200Y27800D01*
X11710Y25170D02*
X11710Y27310D01*
X11710Y25170D02*
X12200Y24680D01*
X12200Y23800D02*
X12200Y24680D01*
X11710Y30420D02*
X12200Y29930D01*
X11710Y30420D02*
X11710Y32550D01*
X38310Y51760D02*
X39130Y51760D01*
X38250Y51760D02*
X38310Y51760D01*
X38000Y51450D02*
X38310Y51760D01*
X37550Y51000D02*
X38000Y51450D01*
X38000Y51510*
X38000Y50180D02*
X38000Y51450D01*
X37550Y49730D02*
X37550Y51000D01*
X37550Y48050D02*
X37550Y49730D01*
X37550Y46050D02*
X37550Y48050D01*
X37550Y49730D02*
X38000Y50180D01*
X37260Y49440D02*
X37550Y49730D01*
X37260Y48050D02*
X37260Y49440D01*
X38000Y51510D02*
X38250Y51760D01*
X36690Y45190D02*
X37550Y46050D01*
X39130Y51760D02*
X39810Y52440D01*
X36820Y47610D02*
X37260Y48050D01*
X21490Y51700D02*
X21490Y54510D01*
X21490Y51650D02*
X21490Y51700D01*
X21110Y51320D02*
X21490Y51700D01*
X21110Y51270D02*
X21110Y51320D01*
X21110Y47950D02*
X21110Y51270D01*
X20690Y47530D02*
X21110Y47950D01*
X20160Y47000D02*
X20690Y47530D01*
X21110Y51270D02*
X21490Y51650D01*
X20110Y50270D02*
X21110Y51270D01*
X20110Y48110D02*
X20690Y47530D01*
X20850Y47370*
X21000Y55000D02*
X21490Y54510D01*
X20110Y48110D02*
X20110Y50270D01*
X20850Y41970D02*
X20850Y47370D01*
X20660Y41780D02*
X20850Y41970D01*
X20660Y41250D02*
X20660Y41780D01*
X20660Y41250D02*
X20820Y41090D01*
X23880Y41090*
X24090Y40880*
X24090Y38140D02*
X24090Y40880D01*
X19220Y47000D02*
X20160Y47000D01*
X18110Y48110D02*
X19220Y47000D01*
X18110Y48110D02*
X18110Y49880D01*
X17890Y50090D02*
X18110Y49880D01*
X17090Y50090D02*
X17890Y50090D01*
X16600Y49600D02*
X17090Y50090D01*
X24090Y38140D02*
X26160Y40210D01*
X27630Y40210*
X27720Y40120*
X28510Y40120*
X28600Y40210*
X34220Y40210*
X35310Y41300*
X35310Y43210*
X21000Y54510D02*
X21000Y55000D01*
X20600Y43750D02*
X20600Y44600D01*
X20600Y42220D02*
X20600Y43750D01*
X20160Y41780D02*
X20600Y42220D01*
X20160Y41780D02*
X20160Y43500D01*
X20160Y41040D02*
X20160Y41780D01*
X20160Y43500D02*
X20410Y43750D01*
X16600Y48600D02*
X20600Y44600D01*
X20160Y41040D02*
X20600Y40600D01*
X20410Y43750D02*
X20750Y44090D01*
X39000Y33730D02*
X40180Y33730D01*
X38600Y34130D02*
X39000Y33730D01*
X40340Y32390*
X40340Y26250D02*
X40340Y32390D01*
X40340Y26250D02*
X40510Y26080D01*
X41920Y26080*
X42090Y26250*
X42090Y28320*
X41590Y28820D02*
X42090Y28320D01*
X40180Y33730D02*
X40450Y34000D01*
X28330Y28820D02*
X41590Y28820D01*
X28160Y28990D02*
X28330Y28820D01*
X25370Y28990D02*
X28160Y28990D01*
X25090Y28710D02*
X25370Y28990D01*
X22170Y28710D02*
X25090Y28710D01*
X20470Y30410D02*
X22170Y28710D01*
X18370Y30410D02*
X20470Y30410D01*
X15110Y33690D02*
X15600Y33200D01*
X16710Y32090*
X17010Y32090*
X15110Y33690D02*
X15110Y43870D01*
X38600Y44700D02*
X39490Y43810D01*
X40020Y43280*
X39490Y35000D02*
X39490Y43810D01*
X40020Y41210D02*
X40020Y43280D01*
X39120Y34630D02*
X39490Y35000D01*
X40020Y41210D02*
X43890Y41210D01*
X44400Y40700*
X45770Y40700*
X46270Y40200*
X48960Y40200*
X32310Y33620D02*
X32310Y33620D01*
X32800Y33130*
X31500Y33620D02*
X32310Y33620D01*
X32310Y36750*
X32420Y36860*
X32420Y38340*
X33290Y39210*
X33290Y40910*
X33000Y41200D02*
X33290Y40910D01*
X32120Y41200D02*
X33000Y41200D01*
X31320Y33440D02*
X31500Y33620D01*
X32120Y41200D02*
X33700Y41200D01*
X34600Y42100*
X34600Y43500*
X35800Y44700*
X33290Y22060D02*
X33290Y29110D01*
X33290Y22060D02*
X34240Y23010D01*
X32800Y21570D02*
X33290Y22060D01*
X33090Y29310D02*
X33290Y29110D01*
X34240Y23010D02*
X34500Y23010D01*
X34800Y23310*
X34800Y24480*
X34430Y24860D02*
X34800Y24480D01*
X34430Y24860D02*
X34430Y30260D01*
X34550Y30380*
X34550Y31500*
X35180Y32130*
X35800Y32130*
X32960Y29180D02*
X33090Y29310D01*
X28550Y29180D02*
X32960Y29180D01*
X28210Y29520D02*
X28550Y29180D01*
X25980Y29520D02*
X28210Y29520D01*
X25280Y30220D02*
X25980Y29520D01*
X24600Y45600D02*
X26000Y47000D01*
X24110Y45110D02*
X24600Y45600D01*
X26510Y43690*
X24110Y43240D02*
X24110Y45110D01*
X26510Y42190D02*
X26510Y43690D01*
X26000Y47000D02*
X26000Y49270D01*
X33680Y31200D02*
X33680Y38190D01*
X33790Y38300*
X33790Y48680*
X33450Y49020D02*
X33790Y48680D01*
X33680Y31200D02*
X33770Y31110D01*
X34240Y30640*
X33450Y49020D02*
X34200Y49770D01*
X33860Y24040D02*
X33860Y31200D01*
X33860Y24040D02*
X34110Y23790D01*
X33860Y31200D02*
X34420Y30640D01*
X36420Y30640*
X34240Y30640D02*
X34420Y30640D01*
X36420Y30640D02*
X36910Y31130D01*
X33390Y23070D02*
X34110Y23790D01*
X27500Y23070D02*
X33390Y23070D01*
X27000Y22570D02*
X27500Y23070D01*
X46150Y31070D02*
X46150Y33340D01*
X46150Y28880D02*
X46150Y31070D01*
X46150Y28880D02*
X46440Y28590D01*
X47280Y27750*
X45880Y33620D02*
X46150Y33340D01*
X47280Y27210D02*
X47280Y27750D01*
X46440Y28590D02*
X46440Y31070D01*
X45880Y31630D02*
X46440Y31070D01*
X43890Y31630D02*
X45880Y31630D01*
X43760Y31500D02*
X43890Y31630D01*
X43760Y30200D02*
X43760Y31500D01*
X43630Y30060D02*
X43760Y30200D01*
X42330Y30060D02*
X43630Y30060D01*
X42260Y30130D02*
X42330Y30060D01*
X41600Y30130D02*
X42260Y30130D01*
X50430Y34500D02*
X52750Y34500D01*
X50070Y34140D02*
X50430Y34500D01*
X49410Y34140D02*
X50070Y34140D01*
X47400Y32130D02*
X49410Y34140D01*
X50520Y34500D02*
X52750Y34500D01*
X50330Y34690D02*
X50520Y34500D01*
X49360Y34690D02*
X50330Y34690D01*
X48300Y33630D02*
X49360Y34690D01*
X46910Y33630D02*
X48300Y33630D01*
X45910Y32630D02*
X46910Y33630D01*
X44000Y32630D02*
X45910Y32630D01*
X43460Y32090D02*
X44000Y32630D01*
X43460Y30500D02*
X43460Y32090D01*
X43270Y30310D02*
X43460Y30500D01*
X42580Y30310D02*
X43270Y30310D01*
X42250Y30640D02*
X42580Y30310D01*
X37290Y30640D02*
X42250Y30640D01*
X36290Y29640D02*
X37290Y30640D01*
X35140Y29640D02*
X36290Y29640D01*
X34870Y29910D02*
X35140Y29640D01*
X50670Y24500D02*
X52750Y24500D01*
X50170Y24000D02*
X50670Y24500D01*
X50170Y23880D02*
X50170Y24000D01*
X50040Y23750D02*
X50170Y23880D01*
X49250Y23750D02*
X50040Y23750D01*
X49170Y23830D02*
X49250Y23750D01*
X49170Y23830D02*
X49170Y27520D01*
X49540Y27890*
X49540Y29860*
X48930Y30470D02*
X49540Y29860D01*
X48770Y30630D02*
X48930Y30470D01*
X44900Y30630D02*
X48770Y30630D01*
X44400Y31130D02*
X44900Y30630D01*
X50050Y24500D02*
X52750Y24500D01*
X49480Y25070D02*
X50050Y24500D01*
X43080Y25070D02*
X49480Y25070D01*
X42070Y24060D02*
X43080Y25070D01*
X34720Y24060D02*
X42070Y24060D01*
X34550Y24230D02*
X34720Y24060D01*
X33840Y24230D02*
X34550Y24230D01*
X33670Y24060D02*
X33840Y24230D01*
X31820Y24060D02*
X33670Y24060D01*
X31060Y24820D02*
X31820Y24060D01*
X49670Y24250D02*
X49920Y24500D01*
X49920Y30500*
X49360Y24250D02*
X49670Y24250D01*
X49920Y30500D02*
X52750Y30500D01*
X37100Y23840D02*
X37370Y23570D01*
X37100Y23840D02*
X37100Y30610D01*
X36820Y30890D02*
X37100Y30610D01*
X36820Y30890D02*
X36820Y38610D01*
X36980Y38770*
X36980Y41520*
X35800Y42700D02*
X36980Y41520D01*
X37370Y23570D02*
X38600Y23570D01*
X37370Y23570D02*
X37370Y23570D01*
X35800Y42700D02*
X36300Y43200D01*
X46230Y22740D02*
X47400Y21570D01*
X46230Y22740D02*
X46230Y27200D01*
X45650Y27780D02*
X46230Y27200D01*
X45650Y27780D02*
X45650Y32880D01*
X44400Y34130D02*
X45650Y32880D01*
X46410Y21570D02*
X47400Y21570D01*
X42090Y40390D02*
X44400Y42700D01*
X42090Y32620D02*
X42090Y40390D01*
X41600Y32130D02*
X42090Y32620D01*
X44200Y42900D02*
X44400Y42700D01*
X44000Y42900D02*
X44200Y42900D01*
X42930Y43970D02*
X44000Y42900D01*
X42930Y43970D02*
X42930Y48940D01*
X41600Y50270D02*
X42930Y48940D01*
X41600Y50270D02*
X42240Y50270D01*
X26240Y52770D02*
X28000Y52770D01*
X30200Y52770*
X25120Y51650D02*
X26240Y52770D01*
X24180Y51650D02*
X25120Y51650D01*
X23740Y51650D02*
X24180Y51650D01*
X22090Y50000D02*
X23740Y51650D01*
X22090Y42560D02*
X22090Y50000D01*
X21100Y41570D02*
X22090Y42560D01*
X20070Y42600D02*
X21100Y41570D01*
X15600Y42600D02*
X20070Y42600D01*
X24100Y32700D02*
X24600Y32200D01*
X22600Y32700D02*
X24100Y32700D01*
X22110Y33190D02*
X22600Y32700D01*
X22110Y33190D02*
X22110Y39110D01*
X22600Y39600*
X24100Y42100D02*
X24600Y42600D01*
X23250Y42100D02*
X24100Y42100D01*
X23110Y42240D02*
X23250Y42100D01*
X23110Y42240D02*
X23110Y45970D01*
X23250Y46110*
X23950Y46110*
X24090Y46250*
X24090Y48010*
X24170Y48090*
X25000Y48090*
X25400Y48490*
X25400Y53710*
X26450Y54760*
X27980Y54760*
X29000Y55780*
X33000Y55780*
X34250Y54530*
X34540Y54530*
X35800Y53270*
X24100Y42100D02*
X24600Y41600D01*
X22510Y42100D02*
X24100Y42100D01*
X21390Y43220D02*
X22510Y42100D01*
X20140Y43220D02*
X21390Y43220D01*
X16260Y47110D02*
X20140Y43220D01*
X15090Y47110D02*
X16260Y47110D01*
X14600Y47600D02*
X15090Y47110D01*
X26480Y28320D02*
X26710Y28550D01*
X26480Y26090D02*
X26480Y28320D01*
X26480Y26090D02*
X27000Y25570D01*
X26360Y28200D02*
X26710Y28550D01*
X41600Y43700D02*
X42090Y44190D01*
X42090Y47690*
X41110Y48670D02*
X42090Y47690D01*
X41110Y48670D02*
X41110Y50500D01*
X41380Y50770*
X42040Y50770*
X42210Y50940*
X42210Y55090*
X42440Y55320*
X41970Y55790D02*
X42440Y55320D01*
X35340Y55790D02*
X41970Y55790D01*
X34970Y55420D02*
X35340Y55790D01*
X34970Y54750D02*
X34970Y55420D01*
X34830Y54610D02*
X34970Y54750D01*
X34200Y54610D02*
X34830Y54610D01*
X34040Y54770D02*
X34200Y54610D01*
X31810Y54770D02*
X34040Y54770D01*
X31560Y54520D02*
X31810Y54770D01*
X31250Y54520D02*
X31560Y54520D01*
X30000Y53270D02*
X31250Y54520D01*
X19510Y54510D02*
X20000Y55000D01*
X19510Y50490D02*
X19510Y54510D01*
X19110Y50090D02*
X19510Y50490D01*
X19110Y48350D02*
X19110Y50090D01*
X19110Y48350D02*
X19870Y47590D01*
X20370Y47090*
X29620Y47090*
X30140Y47610*
X36820Y47610*
X35310Y42190D02*
X35800Y41700D01*
X35310Y42190D02*
X35310Y45000D01*
X35500Y45190*
X36690Y45190*
X20660Y31870D02*
X20690Y31900D01*
X20690Y35110*
X20600Y35200D02*
X20690Y35110D01*
X20660Y31870D02*
X21840Y31870D01*
X47400Y20570D02*
X47400Y20920D01*
X46900Y21070D02*
X47400Y20920D01*
X44400Y23570D02*
X46900Y21070D01*
X43900Y23070D02*
X44400Y23570D01*
X37300Y23070D02*
X43900Y23070D01*
X35800Y21570D02*
X37300Y23070D01*
X47400Y52270D02*
X47620Y52040D01*
X47850Y52040*
X48650Y51240*
X48650Y49970D02*
X48650Y51240D01*
X48650Y49970D02*
X50620Y49970D01*
X50810Y49780*
X31060Y24820D02*
X31060Y31630D01*
X30490Y32200D02*
X31060Y31630D01*
X30490Y32200D02*
X30490Y36500D01*
X29950Y37040D02*
X30490Y36500D01*
X29500Y37040D02*
X29950Y37040D01*
X28750Y37790D02*
X29500Y37040D01*
X28750Y37790D02*
X28750Y38430D01*
X28920Y38600*
X28920Y43240*
X28320Y43850D02*
X28920Y43240D01*
X28320Y43850D02*
X28320Y44380D01*
X27000Y45700D02*
X28320Y44380D01*
X46990Y43700D02*
X47400Y43700D01*
X45750Y42470D02*
X46990Y43700D01*
X45750Y37420D02*
X45750Y42470D01*
X45750Y37420D02*
X46130Y37040D01*
X46130Y33870D02*
X46130Y37040D01*
X46130Y33870D02*
X46660Y33340D01*
X46660Y31600D02*
X46660Y33340D01*
X46660Y31600D02*
X46910Y31350D01*
X46910Y28890D02*
X46910Y31350D01*
X46910Y28890D02*
X47890Y27910D01*
X47890Y24060D02*
X47890Y27910D01*
X47400Y23570D02*
X47890Y24060D01*
X46910Y44190D02*
X47400Y43700D01*
X36290Y44190D02*
X46910Y44190D01*
X16630Y30050D02*
X16630Y31330D01*
X16630Y30050D02*
X17110Y29570D01*
X17110Y25530D02*
X17110Y29570D01*
X17110Y25530D02*
X18290Y24350D01*
X18290Y21490D02*
X18290Y24350D01*
X17800Y21000D02*
X18290Y21490D01*
X16630Y31330D02*
X22730Y31330D01*
X29260Y22310D02*
X30000Y21570D01*
X29260Y22310D02*
X29260Y25900D01*
X29430Y26070*
X36820Y26070*
X37100Y26350*
X37980Y26350*
X38260Y26070*
X42060Y26070*
X42560Y26570*
X44400Y26570*
X48920Y23390D02*
X49540Y22770D01*
X48920Y23390D02*
X48920Y27770D01*
X49290Y28140*
X49290Y29350*
X48450Y30190D02*
X49290Y29350D01*
X48450Y30190D02*
X48450Y30690D01*
X48750Y30990*
X49960Y30990*
X50220Y31250*
X50220Y32080*
X49280Y33020D02*
X50220Y32080D01*
X49280Y33020D02*
X49280Y36490D01*
X50080Y37290*
X48840Y22070D02*
X49540Y22770D01*
X50080Y37290D02*
X50850Y38060D01*
X50850Y41170*
X51180Y41500*
X52750Y41500*
X34120Y35130D02*
X34120Y49220D01*
X33580Y49760D02*
X34120Y49220D01*
X32500Y49760D02*
X33580Y49760D01*
X32310Y49950D02*
X32500Y49760D01*
X32310Y49950D02*
X32310Y50500D01*
X32580Y50770*
X35300Y50770*
X35800Y51270*
X34120Y35130D02*
X34360Y34890D01*
X25530Y32180D02*
X25530Y41230D01*
X25530Y32180D02*
X26580Y31130D01*
X25530Y41230D02*
X26510Y42210D01*
X27490Y42210*
X29160Y43880*
X29160Y46150*
X29450Y46440*
X29760Y46440*
X30430Y47110*
X41970Y47110*
X43360Y48500*
X52750Y48500*
X36540Y31540D02*
X36540Y39460D01*
X36130Y31130D02*
X36540Y31540D01*
X35800Y31130D02*
X36130Y31130D01*
X36540Y39460D02*
X36790Y39210D01*
X28500Y31630D02*
X30000Y30130D01*
X28500Y31630D02*
X28500Y39620D01*
X28670Y39790*
X28670Y42960*
X27640Y43990D02*
X28670Y42960D01*
X27640Y43520D02*
X27640Y43990D01*
X27330Y43210D02*
X27640Y43520D01*
X26270Y43210D02*
X27330Y43210D01*
X25390Y44090D02*
X26270Y43210D01*
X20750Y44090D02*
X25390Y44090D01*
X45900Y28290D02*
X46690Y27500D01*
X45900Y28290D02*
X45900Y33230D01*
X45630Y33500D02*
X45900Y33230D01*
X45630Y33500D02*
X45630Y33690D01*
X44670Y34640D02*
X45630Y33690D01*
X43150Y34640D02*
X44670Y34640D01*
X46690Y27500D02*
X52750Y27500D01*
X41250Y34640D02*
X43150Y34640D01*
X39260Y36630D02*
X41250Y34640D01*
X32830Y36630D02*
X39260Y36630D01*
X31880Y37570D02*
X32830Y36630D01*
X31380Y37570D02*
X31880Y37570D01*
X31200Y37400D02*
X31380Y37570D01*
X31200Y35440D02*
X31200Y37400D01*
X31200Y35440D02*
X32000Y34640D01*
X34510Y34640*
X35020Y34130*
X40290Y51330D02*
X40660Y51700D01*
X40660Y52280*
X40500Y52440D02*
X40660Y52280D01*
X40000Y52440D02*
X40500Y52440D01*
X39570Y52010D02*
X40000Y52440D01*
X39570Y47350D02*
X39570Y52010D01*
X39380Y47160D02*
X39570Y47350D01*
X39220Y47160D02*
X39380Y47160D01*
X38110Y46050D02*
X39220Y47160D01*
X38110Y45690D02*
X38110Y46050D01*
X37860Y45440D02*
X38110Y45690D01*
X37860Y40500D02*
X37860Y45440D01*
X37860Y40500D02*
X38150Y40210D01*
X38920Y40210*
X39090Y40370*
X39090Y43210*
X38600Y43700D02*
X39090Y43210D01*
X40290Y51330D02*
X40720Y51760D01*
X17600Y31180D02*
X18370Y30410D01*
X17600Y31180D02*
X17600Y31500D01*
X17010Y32090D02*
X17600Y31500D01*
X40450Y36570D02*
X40640Y36760D01*
X40450Y34000D02*
X40450Y36570D01*
X40640Y36760D02*
X40820Y36940D01*
X15100Y45100D02*
X15600Y44600D01*
X15100Y45100D02*
X15100Y50850D01*
X13130Y52820D02*
X15100Y50850D01*
X13130Y52820D02*
X13130Y53480D01*
X13360Y53710*
X18000Y53710*
X18510Y54220*
X18510Y55500*
X18770Y55760*
X33780Y55760*
X34480Y55060*
X35270Y54270*
X35800Y54270*
X26750Y40450D02*
X27000Y40700D01*
X26460Y40450D02*
X26750Y40450D01*
X25970Y39960D02*
X26460Y40450D01*
X25970Y31990D02*
X25970Y39960D01*
X25720Y31740D02*
X25970Y31990D01*
X25720Y27420D02*
X25720Y31740D01*
X22800Y24500D02*
X25720Y27420D01*
X22410Y24500D02*
X22800Y24500D01*
X22290Y24380D02*
X22410Y24500D01*
X22290Y22830D02*
X22290Y24380D01*
X20800Y21340D02*
X22290Y22830D01*
X20800Y21000D02*
X20800Y21340D01*
X27000Y40700D02*
X27490Y40700D01*
X42780Y53300D02*
X42780Y53550D01*
X44000Y54770*
X44650Y54770*
X44890Y54530*
X44890Y51910D02*
X44890Y54530D01*
X44750Y51770D02*
X44890Y51910D01*
X44180Y51770D02*
X44750Y51770D01*
X43910Y51500D02*
X44180Y51770D01*
X43910Y47720D02*
X43910Y51500D01*
X43910Y47720D02*
X44890Y46740D01*
X44890Y44340D02*
X44890Y46740D01*
X44750Y44200D02*
X44890Y44340D01*
X44110Y44200D02*
X44750Y44200D01*
X43910Y44000D02*
X44110Y44200D01*
X43910Y43380D02*
X43910Y44000D01*
X43910Y43380D02*
X44070Y43210D01*
X45230Y43210*
X46220Y44200*
X47750Y44200*
X47890Y44060*
X47890Y43340D02*
X47890Y44060D01*
X47740Y43190D02*
X47890Y43340D01*
X47100Y43190D02*
X47740Y43190D01*
X46910Y43000D02*
X47100Y43190D01*
X46910Y37600D02*
X46910Y43000D01*
X46910Y37600D02*
X47890Y36620D01*
X47890Y32780D02*
X47890Y36620D01*
X47750Y32640D02*
X47890Y32780D01*
X47050Y32640D02*
X47750Y32640D01*
X46910Y32500D02*
X47050Y32640D01*
X46910Y31790D02*
X46910Y32500D01*
X46910Y31790D02*
X47060Y31640D01*
X47260Y31640*
X47400Y31500*
X47400Y31130D02*
X47400Y31500D01*
X42270Y53300D02*
X42780Y53300D01*
X25090Y30410D02*
X25280Y30220D01*
X25090Y30410D02*
X25090Y42880D01*
X24870Y43100D02*
X25090Y42880D01*
X24250Y43100D02*
X24870Y43100D01*
X24110Y43240D02*
X24250Y43100D01*
X35100Y32830D02*
X35800Y32130D01*
X35100Y32830D02*
X35100Y33190D01*
X35540Y33630*
X39430Y33630*
X39980Y34180*
X39980Y40040*
X40460Y40520*
X40460Y42200*
X44860Y42200*
X46360Y40700*
X47400Y40700*
X21100Y33120D02*
X21360Y33380D01*
X21100Y25360D02*
X21100Y33120D01*
X20310Y24570D02*
X21100Y25360D01*
X20310Y22100D02*
X20310Y24570D01*
X19800Y21590D02*
X20310Y22100D01*
X19800Y21000D02*
X19800Y21590D01*
X21360Y33380D02*
X22110Y34130D01*
X17920Y53920D02*
X19000Y55000D01*
X12700Y53920D02*
X17920Y53920D01*
X12530Y52910D02*
X12700Y53920D01*
X12530Y52910D02*
X13420Y52020D01*
X13420Y48450D02*
X13420Y52020D01*
X13420Y48450D02*
X13460Y27410D01*
X16290Y24580*
X25550Y24580*
X26060Y24070*
X30310Y24070*
X30490Y24250*
X30490Y25310*
X30750Y25570*
X32800Y25570*
X33300Y25070*
X36700Y25070*
X37540Y25910*
X37630Y26000*
X37630Y29260*
X42020Y29260*
X42030Y29250*
X47430Y29250*
X47720Y28960*
X47910Y29150*
X47910Y32330*
X48170Y32590*
X48170Y36820*
X47400Y37590D02*
X48170Y36820D01*
X47400Y37590D02*
X47400Y39700D01*
X32020Y44480D02*
X32800Y43700D01*
X32020Y44480D02*
X32020Y48160D01*
X31780Y48390D02*
X32020Y48160D01*
X28720Y48390D02*
X31780Y48390D01*
X28520Y48590D02*
X28720Y48390D01*
X26650Y48590D02*
X28520Y48590D01*
X26150Y49090D02*
X26650Y48590D01*
X21250Y49090D02*
X26150Y49090D01*
X21090Y48930D02*
X21250Y49090D01*
X21090Y48250D02*
X21090Y48930D01*
X20950Y48110D02*
X21090Y48250D01*
X18250Y48110D02*
X20950Y48110D01*
X18110Y48250D02*
X18250Y48110D01*
X18110Y48250D02*
X18110Y48870D01*
X17880Y49100D02*
X18110Y48870D01*
X17410Y49100D02*
X17880Y49100D01*
X17110Y49400D02*
X17410Y49100D01*
X17110Y49400D02*
X17110Y50110D01*
X32800Y50270D02*
X33440Y50270D01*
X34560Y49150*
X34560Y36370D02*
X34560Y49150D01*
X34560Y36370D02*
X35800Y35130D01*
X32300Y50770D02*
X32800Y50270D01*
X35800Y35130D02*
X37260Y35130D01*
X44400Y25570D02*
X44890Y26060D01*
X44890Y27360*
X44350Y27900D02*
X44890Y27360D01*
X44350Y27900D02*
X44350Y28340D01*
X44890Y28880*
X44890Y30500*
X44760Y30630D02*
X44890Y30500D01*
X44000Y30630D02*
X44760Y30630D01*
X43460Y31170D02*
X44000Y30630D01*
X43460Y31170D02*
X43460Y31750D01*
X43140Y32070D02*
X43460Y31750D01*
X42900Y32070D02*
X43140Y32070D01*
X42330Y31500D02*
X42900Y32070D01*
X42330Y30060D02*
X42330Y31500D01*
X42330Y30060D02*
X42340Y30050D01*
X42340Y24500D02*
X42340Y30050D01*
X41910Y24070D02*
X42340Y24500D01*
X40100Y24070D02*
X41910Y24070D01*
X39490Y24680D02*
X40100Y24070D01*
X39490Y24680D02*
X39490Y30080D01*
X38940Y30630D02*
X39490Y30080D01*
X38000Y30630D02*
X38940Y30630D01*
X37260Y31370D02*
X38000Y30630D01*
X37260Y31370D02*
X37260Y35130D01*
X31760Y33170D02*
X32800Y32130D01*
X33290Y32620*
X33290Y38710*
X33540Y38960*
X33540Y43960*
X32800Y44700D02*
X33540Y43960D01*
X31760Y33170D02*
X31760Y34210D01*
X30340Y35630D02*
X31760Y34210D01*
X27500Y35630D02*
X30340Y35630D01*
X27000Y35130D02*
X27500Y35630D01*
X32800Y44700D02*
X33290Y45190D01*
X32800Y32130D02*
X33810Y32130D01*
X34320Y32640*
X41110Y32640*
X41600Y33130*
X37110Y50170D02*
X37110Y52780D01*
X38600Y54270*
X37110Y50170D02*
X37510Y49770D01*
X43000Y49770*
X34200Y49770D02*
X37510Y49770D01*
X43000Y49770D02*
X43990Y50760D01*
X46910Y24080D02*
X47400Y24570D01*
X46910Y23250D02*
X46910Y24080D01*
X46910Y23250D02*
X47090Y23070D01*
X48140Y23070*
X48190Y32220*
X48500Y32530*
X48500Y48370*
X49090Y48960*
X49090Y53120*
X48470Y53740D02*
X49090Y53120D01*
X48470Y53740D02*
X48470Y53970D01*
X47680Y54760D02*
X48470Y53970D01*
X39870Y54760D02*
X47680Y54760D01*
X38860Y53760D02*
X39870Y54760D01*
X31990Y53760D02*
X38860Y53760D01*
X30500Y52270D02*
X31990Y53760D01*
X30000Y52270D02*
X30500Y52270D01*
X27610Y40190D02*
X27980Y40560D01*
X26700Y40190D02*
X27610Y40190D01*
X26510Y40000D02*
X26700Y40190D01*
X26510Y34870D02*
X26510Y40000D01*
X26510Y34870D02*
X26740Y34640D01*
X27350Y34640*
X27490Y34500*
X27490Y33870D02*
X27490Y34500D01*
X27250Y33630D02*
X27490Y33870D01*
X26640Y33630D02*
X27250Y33630D01*
X26510Y33500D02*
X26640Y33630D01*
X26510Y29060D02*
X26510Y33500D01*
X26230Y28780D02*
X26510Y29060D01*
X26230Y26220D02*
X26230Y28780D01*
X21800Y21790D02*
X26230Y26220D01*
X21800Y21000D02*
X21800Y21790D01*
X27980Y40560D02*
X28120Y40700D01*
X22650Y45100D02*
X22650Y47500D01*
X23260Y48110*
X23800Y48110*
X24090Y48400*
X24090Y50670*
X24620Y51200*
X24620Y52380*
X22490Y54510D02*
X24620Y52380D01*
X22490Y54510D02*
X22490Y55250D01*
X22250Y55490D02*
X22490Y55250D01*
X18490Y55490D02*
X22250Y55490D01*
X18000Y55000D02*
X18490Y55490D01*
X22650Y45100D02*
X25600Y45100D01*
X22490Y54510D02*
X26010Y54510D01*
X22000Y55000D02*
X22490Y54510D01*
X26510Y44190D02*
X27000Y43700D01*
X26510Y44190D02*
X26510Y46000D01*
X26870Y46360*
X28530Y46360*
X28570Y46320*
X28570Y44100D02*
X28570Y46320D01*
X28570Y44100D02*
X29170Y43490D01*
X29170Y39600D02*
X29170Y43490D01*
X29170Y39600D02*
X31640Y37130D01*
X25600Y45100D02*
X27000Y43700D01*
X31640Y36490D02*
X31640Y37130D01*
X31640Y36490D02*
X32500Y35630D01*
X36010Y35630*
X36290Y35910*
X37840Y35910*
X38110Y35640*
X39740Y35640*
X41250Y34130*
X41600Y34130*
X31200Y51670D02*
X32800Y53270D01*
X31200Y38840D02*
X31200Y51670D01*
X31200Y38840D02*
X32080Y37960D01*
X32080Y36870D02*
X32080Y37960D01*
X31020Y35810D02*
X32080Y36870D01*
X31020Y33960D02*
X31020Y35810D01*
X30690Y33630D02*
X31020Y33960D01*
X27500Y33630D02*
X30690Y33630D01*
X27000Y34130D02*
X27500Y33630D01*
X32800Y53270D02*
X33300Y52770D01*
X42920Y39180D02*
X45850Y36250D01*
X45850Y34660D02*
X45850Y36250D01*
X45850Y34660D02*
X45880Y34630D01*
X45880Y33620D02*
X45880Y34630D01*
X42630Y38890D02*
X42920Y39180D01*
X46910Y26060D02*
X47400Y25570D01*
X46910Y26060D02*
X46910Y26840D01*
X47280Y27210*
X47890Y38040D02*
X47890Y42210D01*
X47400Y42700D02*
X47890Y42210D01*
X47250Y37400D02*
X47890Y38040D01*
X23980Y21540D02*
X27000Y24570D01*
X22600Y21540D02*
X23980Y21540D01*
X22310Y21250D02*
X22600Y21540D01*
X22310Y20690D02*
X22310Y21250D01*
X21880Y20260D02*
X22310Y20690D01*
X17750Y20260D02*
X21880Y20260D01*
X17310Y20700D02*
X17750Y20260D01*
X17310Y20700D02*
X17310Y24490D01*
X16100Y25700D02*
X17310Y24490D01*
X16100Y25700D02*
X16100Y30500D01*
X15900Y30700D02*
X16100Y30500D01*
X14250Y30700D02*
X15900Y30700D01*
X13790Y31160D02*
X14250Y30700D01*
X13790Y31160D02*
X13790Y48540D01*
X13670Y48660D02*
X13790Y48540D01*
X13670Y48660D02*
X13670Y49400D01*
X14060Y49790*
X14200Y49790*
X14820Y50410*
X20800Y21750D02*
X20800Y24000D01*
X20310Y21260D02*
X20800Y21750D01*
X20310Y20690D02*
X20310Y21260D01*
X20130Y20510D02*
X20310Y20690D01*
X19500Y20510D02*
X20130Y20510D01*
X19310Y20700D02*
X19500Y20510D01*
X19310Y20700D02*
X19310Y24490D01*
X17600Y26200D02*
X19310Y24490D01*
X35060Y40440D02*
X35800Y39700D01*
X35060Y40440D02*
X35060Y47540D01*
X36290Y48770*
X36290Y51500*
X36020Y51770D02*
X36290Y51500D01*
X35220Y51770D02*
X36020Y51770D01*
X33220Y53770D02*
X35220Y51770D01*
X32500Y53770D02*
X33220Y53770D01*
X31310Y54960D02*
X32500Y53770D01*
X35800Y39250D02*
X35800Y39700D01*
X35800Y39250D02*
X36160Y38890D01*
X42630Y38890*
X31110Y54760D02*
X31310Y54960D01*
X26260Y54760D02*
X31110Y54760D01*
X26010Y54510D02*
X26260Y54760D01*
X26630Y34130D02*
X27000Y34130D01*
X26250Y33750D02*
X26630Y34130D01*
X26250Y31660D02*
X26250Y33750D01*
X25980Y31390D02*
X26250Y31660D01*
X25980Y27180D02*
X25980Y31390D01*
X22800Y24000D02*
X25980Y27180D01*
X41110Y33640D02*
X41600Y34130D01*
X41110Y31770D02*
X41110Y33640D01*
X41110Y31770D02*
X41250Y31630D01*
X42000Y31630*
X42690Y32320*
X43310Y32320*
X44000Y31630*
X44760Y31630*
X45140Y31250*
X45140Y28650D02*
X45140Y31250D01*
X45140Y28650D02*
X45400Y28390D01*
X45400Y23520D02*
X45400Y28390D01*
X45400Y23520D02*
X45790Y23130D01*
X46350Y22570*
X47400Y22570*
X46910Y53780D02*
X47400Y54270D01*
X46910Y51980D02*
X46910Y53780D01*
X46910Y51980D02*
X47130Y51760D01*
X47630Y51760*
X47890Y51500*
X47890Y47450D02*
X47890Y51500D01*
X47200Y48140D02*
X47890Y47450D01*
X44090Y48140D02*
X47200Y48140D01*
X42810Y46860D02*
X44090Y48140D01*
X30960Y46860D02*
X42810Y46860D01*
X30290Y46190D02*
X30960Y46860D01*
X29700Y46190D02*
X30290Y46190D01*
X29510Y46000D02*
X29700Y46190D01*
X29510Y45370D02*
X29510Y46000D01*
X29510Y45370D02*
X29680Y45200D01*
X31510Y45200*
X32500Y46190*
X33120Y46190*
X33290Y46020*
X33290Y45190D02*
X33290Y46020D01*
X43770Y32760D02*
X44400Y32130D01*
X42750Y32760D02*
X43770Y32760D01*
X42460Y33050D02*
X42750Y32760D01*
X42460Y33050D02*
X42460Y39880D01*
X43070Y40490*
X42790Y40210D02*
X43070Y40490D01*
X40390Y40210D02*
X42790Y40210D01*
X39100Y41500D02*
X40390Y40210D01*
X39100Y41500D02*
X39100Y42200D01*
X38600Y42700D02*
X39100Y42200D01*
X34870Y26500D02*
X34870Y29910D01*
X34870Y26500D02*
X35800Y25570D01*
X15600Y43600D02*
X17110Y42090D01*
X17110Y32500D02*
X17110Y42090D01*
X17110Y32500D02*
X18810Y30800D01*
X18810Y28380D02*
X18810Y30800D01*
X18810Y28380D02*
X19490Y27690D01*
X20110Y27690*
X20600Y27200*
X21100Y26700*
X43000Y35130D02*
X44400Y35130D01*
X42710Y34840D02*
X43000Y35130D01*
X42710Y33570D02*
X42710Y34840D01*
X42710Y33570D02*
X43080Y33200D01*
X42580Y32700D02*
X43080Y33200D01*
X42580Y31190D02*
X42580Y32700D01*
X42580Y31190D02*
X43020Y30750D01*
X43270Y30500*
X43270Y21340D02*
X43270Y30500D01*
X42500Y20570D02*
X43270Y21340D01*
X41600Y20570D02*
X42500Y20570D01*
X41110Y21060D02*
X41600Y20570D01*
X37800Y21060D02*
X41110Y21060D01*
X37540Y21320D02*
X37800Y21060D01*
X50580Y51500D02*
X52750Y51500D01*
X50080Y51000D02*
X50580Y51500D01*
X50080Y49280D02*
X50080Y51000D01*
X49820Y49020D02*
X50080Y49280D01*
X48260Y49020D02*
X49820Y49020D01*
X47890Y49390D02*
X48260Y49020D01*
X47890Y49390D02*
X47890Y49760D01*
X44910Y49760D02*
X47890Y49760D01*
X44400Y50270D02*
X44910Y49760D01*
X48640Y51500D02*
X52750Y51500D01*
X48140Y51000D02*
X48640Y51500D01*
X48140Y49590D02*
X48140Y51000D01*
X48140Y49590D02*
X48450Y49280D01*
X49450Y49280*
X49890Y49720*
X50370Y49720*
X50520Y49570*
X50520Y49000D02*
X50520Y49570D01*
X50270Y48750D02*
X50520Y49000D01*
X43250Y48750D02*
X50270Y48750D01*
X42660Y48160D02*
X43250Y48750D01*
X38800Y48160D02*
X42660Y48160D01*
X38000Y47360D02*
X38800Y48160D01*
X30240Y47360D02*
X38000Y47360D01*
X29660Y46780D02*
X30240Y47360D01*
X28860Y46780D02*
X29660Y46780D01*
X28080Y46000D02*
X28860Y46780D01*
X28080Y43400D02*
X28080Y46000D01*
X27380Y42700D02*
X28080Y43400D01*
X27000Y42700D02*
X27380Y42700D01*
X38110Y41190D02*
X38600Y40700D01*
X38110Y41190D02*
X38110Y45050D01*
X38250Y45190*
X39200Y45190*
X46400Y34140D02*
X47400Y33130D01*
X46400Y34140D02*
X46400Y41450D01*
X46230Y41620D02*
X46400Y41450D01*
X44650Y43200D02*
X46230Y41620D01*
X36300Y43200D02*
X44650Y43200D01*
X44790Y28090D02*
X45150Y27730D01*
X45150Y24460D02*
X45150Y27730D01*
X44750Y24060D02*
X45150Y24460D01*
X44100Y24060D02*
X44750Y24060D01*
X43910Y23880D02*
X44100Y24060D01*
X43910Y22060D02*
X43910Y23880D01*
X43910Y22060D02*
X44400Y21570D01*
X42990Y24060D02*
X44750Y24060D01*
X44890Y23920*
X44890Y22920D02*
X44890Y23920D01*
X44890Y22920D02*
X45500Y22310D01*
X46360Y22310*
X46600Y22070*
X48840Y22070*
X44790Y28090D02*
X44860Y28020D01*
X27680Y50270D02*
X28470Y49480D01*
X27000Y50270D02*
X27680Y50270D01*
X26000Y49270D02*
X27000Y50270D01*
X28470Y49480D02*
X28760Y49770D01*
X28190Y27200D02*
X28190Y39890D01*
X28420Y40120*
X28420Y41000*
X28210Y41210D02*
X28420Y41000D01*
X26500Y41210D02*
X28210Y41210D01*
X25990Y41720D02*
X26500Y41210D01*
X25990Y41720D02*
X25990Y43210D01*
X24600Y44600D02*
X25990Y43210D01*
X28190Y27200D02*
X28440Y27450D01*
X24600Y47600D02*
X25420Y47600D01*
X25660Y47840*
X25660Y50000*
X26420Y50760*
X27230Y50760*
X28610Y52140*
X28610Y54000*
X29370Y54760*
X30230Y54760*
X30490Y54500*
X30490Y49760D02*
X30490Y54500D01*
X30000Y49270D02*
X30490Y49760D01*
X43320Y53180D02*
X44400Y54270D01*
X43320Y51340D02*
X43320Y53180D01*
X42240Y50270D02*
X43320Y51340D01*
X19110Y43280D02*
X20160Y44330D01*
X19110Y32880D02*
X19110Y43280D01*
X19110Y32880D02*
X19750Y32240D01*
X19750Y28160D02*
X19750Y32240D01*
X20160Y44330D02*
X20430Y44600D01*
X19090Y27500D02*
X19750Y28160D01*
X19090Y26880D02*
X19090Y27500D01*
X18930Y26710D02*
X19090Y26880D01*
X17090Y26710D02*
X18930Y26710D01*
X16600Y27200D02*
X17090Y26710D01*
X38600Y55270D02*
X38600Y55690D01*
X38750Y55840*
X47550Y55840*
X48050Y55350*
X48050Y54920D02*
X48050Y55350D01*
X48050Y54920D02*
X49640Y53330D01*
X49640Y47960D02*
X49640Y53330D01*
X49640Y47960D02*
X51100Y46500D01*
X52750Y46500*
X46090Y46500D02*
X52750Y46500D01*
X44890Y47700D02*
X46090Y46500D01*
X34810Y49280D02*
X35800Y50270D01*
X34810Y38730D02*
X34810Y49280D01*
X34810Y38730D02*
X36290Y37250D01*
X36290Y33920D02*
X36290Y37250D01*
X36000Y33630D02*
X36290Y33920D01*
X34810Y33630D02*
X36000Y33630D01*
X34300Y33120D02*
X34810Y33630D01*
X34300Y30950D02*
X34300Y33120D01*
X34180Y30830D02*
X34300Y30950D01*
X34180Y24430D02*
X34180Y30830D01*
X34180Y24430D02*
X34550Y24050D01*
X34550Y23500D02*
X34550Y24050D01*
X34400Y23350D02*
X34550Y23500D01*
X33690Y23350D02*
X34400Y23350D01*
X33540Y23500D02*
X33690Y23350D01*
X33540Y23500D02*
X33540Y30390D01*
X33300Y30630D02*
X33540Y30390D01*
X32500Y30630D02*
X33300Y30630D01*
X31920Y30050D02*
X32500Y30630D01*
X31920Y23990D02*
X31920Y30050D01*
X31500Y23570D02*
X31920Y23990D01*
X30000Y23570D02*
X31500Y23570D01*
X35800Y50270D02*
X36290Y50760D01*
X39600Y50760*
X39740Y50620*
X40980Y50620*
X41120Y50760*
X43010Y50760*
X43520Y51270*
X44400Y51270*
X43400Y45700D02*
X44400Y44700D01*
X42900Y45200D02*
X43400Y45700D01*
X35160Y45200D02*
X42900Y45200D01*
X34300Y44340D02*
X35160Y45200D01*
X34300Y42490D02*
X34300Y44340D01*
X34000Y42190D02*
X34300Y42490D01*
X28980Y42190D02*
X34000Y42190D01*
X27490Y40700D02*
X28980Y42190D01*
X48960Y32320D02*
X48960Y40200D01*
X48960Y32320D02*
X49780Y31500D01*
X52750Y31500*
X49540Y34950D02*
X49720Y35130D01*
X49540Y33440D02*
X49540Y34950D01*
X49540Y33440D02*
X50510Y32470D01*
X50510Y26620D02*
X50510Y32470D01*
X50510Y26620D02*
X50630Y26500D01*
X52750Y26500*
X49210Y35130D02*
X49720Y35130D01*
X48040Y26500D02*
X52750Y26500D01*
X47600Y26060D02*
X48040Y26500D01*
X42880Y26060D02*
X47600Y26060D01*
X41880Y25060D02*
X42880Y26060D01*
X39110Y25060D02*
X41880Y25060D01*
X38600Y25570D02*
X39110Y25060D01*
X36650Y22210D02*
X37540Y21320D01*
X36650Y22210D02*
X36650Y28350D01*
X35310Y29690D02*
X36650Y28350D01*
X35310Y29690D02*
X35310Y31500D01*
X35450Y31640*
X36120Y31640*
X36290Y31810*
X36290Y32640*
X35800Y33130D02*
X36290Y32640D01*
X30000Y32130D02*
X30490Y31640D01*
X30490Y28380D02*
X30490Y31640D01*
X30490Y28380D02*
X35560Y28380D01*
X36290Y27650*
X36290Y22060D02*
X36290Y27650D01*
X35800Y21570D02*
X36290Y22060D01*
X14110Y44250D02*
X14110Y49090D01*
X14110Y44250D02*
X14250Y44110D01*
X14870Y44110*
X15110Y43870*
X14110Y49090D02*
X15870Y49090D01*
X14600Y32200D02*
X15100Y31700D01*
X16120Y31700*
X16190Y31770*
X16920Y31770*
X17070Y31620*
X17070Y30910D02*
X17070Y31620D01*
X17070Y30910D02*
X18530Y29450D01*
X18530Y28250D02*
X18530Y29450D01*
X18530Y28250D02*
X19090Y27690D01*
X19090Y26710D02*
X19090Y27690D01*
X19090Y26710D02*
X19600Y26200D01*
X19600Y25200D02*
X19600Y26200D01*
X19600Y25200D02*
X19800Y25000D01*
X19800Y24000D02*
X19800Y25000D01*
X19310Y29970D02*
X19310Y31040D01*
X18110Y32240D02*
X19310Y31040D01*
X18110Y32240D02*
X18110Y35710D01*
X18600Y36200*
X19310Y29970D02*
X19830Y29970D01*
X42580Y30940D02*
X43020Y31380D01*
X42580Y30310D02*
X42580Y30940D01*
X42580Y30310D02*
X43020Y29870D01*
X43020Y22090D02*
X43020Y29870D01*
X42000Y21070D02*
X43020Y22090D01*
X40100Y21070D02*
X42000Y21070D01*
X38600Y22570D02*
X40100Y21070D01*
X43020Y31380D02*
X43020Y32220D01*
X37850Y22570D02*
X38600Y22570D01*
X38600Y24570D02*
X41110Y22060D01*
X45910Y22060*
X46410Y21570*
X29420Y41280D02*
X30000Y40700D01*
X29420Y41280D02*
X29420Y43740D01*
X28910Y44250D02*
X29420Y43740D01*
X28910Y44250D02*
X28910Y53180D01*
X30000Y54270*
X29500Y53770D02*
X30000Y54270D01*
X28120Y40700D02*
X30000Y40700D01*
X29010Y21570D02*
X29510Y21070D01*
X30310Y21070*
X30490Y21250*
X30490Y22870*
X30300Y23060D02*
X30490Y22870D01*
X29520Y23060D02*
X30300Y23060D01*
X29510Y23070D02*
X29520Y23060D01*
X29510Y23070D02*
X29510Y23880D01*
X29700Y24060*
X31380Y24060*
X31570Y24250*
X31570Y25540*
X31320Y25790D02*
X31570Y25540D01*
X31320Y25790D02*
X31320Y33440D01*
X27000Y21570D02*
X29010Y21570D01*
X37860Y49530D02*
X38600Y50270D01*
X37860Y45930D02*
X37860Y49530D01*
X36630Y44700D02*
X37860Y45930D01*
X35800Y44700D02*
X36630Y44700D01*
X50670Y41500D02*
X52750Y41500D01*
X50670Y36850D02*
X50670Y41500D01*
X49100Y36850D02*
X50670Y36850D01*
X47880Y35630D02*
X49100Y36850D01*
X42100Y35630D02*
X47880Y35630D01*
X41600Y35130D02*
X42100Y35630D01*
X20600Y39600D02*
X21090Y40090D01*
X22870Y40090*
X23090Y39870*
X23090Y36710D02*
X23090Y39870D01*
X23090Y36710D02*
X23600Y36200D01*
X48940Y43750D02*
X49190Y43500D01*
X52750Y43500*
X50580Y43500D02*
X52750Y43500D01*
X50080Y43000D02*
X50580Y43500D01*
X50080Y39500D02*
X50080Y43000D01*
X49540Y38960D02*
X50080Y39500D01*
X44330Y38960D02*
X49540Y38960D01*
X42310Y36940D02*
X44330Y38960D01*
X40820Y36940D02*
X42310Y36940D01*
X48940Y43750D02*
X48940Y44000D01*
X44890Y47700D02*
X44890Y50780D01*
X44400Y51270D02*
X44890Y50780D01*
X46090Y49960D02*
X47400Y51270D01*
X46090Y44850D02*
X46090Y49960D01*
X44940Y43700D02*
X46090Y44850D01*
X44400Y43700D02*
X44940Y43700D01*
X46890Y50760D02*
X47400Y51270D01*
X43990Y50760D02*
X46890Y50760D01*
X37230Y36500D02*
X38600Y35130D01*
X37230Y36500D02*
X37230Y42270D01*
X35800Y43700D02*
X37230Y42270D01*
X35800Y43700D02*
X36290Y44190D01*
X35310Y43210D02*
X35800Y43700D01*
X40090Y26080D02*
X41600Y24570D01*
X40090Y26080D02*
X40090Y31530D01*
X38990Y32630D02*
X40090Y31530D01*
X38250Y32630D02*
X38990Y32630D01*
X38110Y32770D02*
X38250Y32630D01*
X38110Y32770D02*
X38110Y34500D01*
X38240Y34630*
X39120Y34630*
X26510Y42190D02*
X27000Y41700D01*
X19600Y36200D02*
X19600Y39600D01*
X21600Y25200D02*
X21600Y26200D01*
X21600Y25200D02*
X21800Y25000D01*
X21800Y24000D02*
X21800Y25000D01*
D10*
X14200Y23600D02*
X14600Y24000D01*
X13840Y23240D02*
X14200Y23600D01*
X14600Y24000D02*
X16800Y24000D01*
X14200Y21600D02*
X22200Y21600D01*
X13000Y21600D02*
X14200Y21600D01*
X35240Y27130D02*
X35800Y26570D01*
X30560Y27130D02*
X35240Y27130D01*
X12550Y36200D02*
X15600Y36200D01*
X49250Y23500D02*
X52750Y23500D01*
X39000Y37950D02*
X39630Y37320D01*
X42020Y37320*
X44400Y39700*
X42800Y49270D02*
X44400Y49270D01*
X42240Y48710D02*
X42800Y49270D01*
X39160Y48710D02*
X42240Y48710D01*
X24600Y35200D02*
X24600Y36260D01*
X26850Y38510*
X28840Y38510*
D11*
X39810Y52440D02*
X40660Y52440D01*
X39810Y52440D02*
X39890Y52520D01*
X41350Y52520*
X41600Y52270*
X40660Y52440D02*
X41600Y52270D01*
X50810Y49500D02*
X50810Y49780D01*
X50810Y49500D02*
X52750Y49500D01*
X35370Y34130D02*
X35800Y34130D01*
X35020Y34130D02*
X35370Y34130D01*
X33870Y32630D02*
X35370Y34130D01*
X26350Y32630D02*
X33870Y32630D01*
X17410Y50410D02*
X19000Y52000D01*
X17110Y50110D02*
X17410Y50410D01*
X14820Y50410D02*
X17410Y50410D01*
X37400Y31130D02*
X38600Y31130D01*
X36910Y31130D02*
X37400Y31130D01*
X36910Y30640D02*
X37400Y31130D01*
X36420Y30640D02*
X36910Y30640D01*
X44400Y24570D02*
X45410Y24570D01*
X46910Y23070*
X48180Y23070*
X49360Y24250*
X31690Y54270D02*
X32800Y54270D01*
X30200Y52770D02*
X31690Y54270D01*
X18600Y48600D02*
X19110Y49110D01*
X19110Y50000*
X19670Y50560*
X25570Y50560*
X26790Y51780*
X27270Y51780*
X27490Y52000*
X27490Y52780*
X27000Y53270D02*
X27490Y52780D01*
X29500Y25070D02*
X30000Y25570D01*
X17000Y25070D02*
X29500Y25070D01*
X16110Y25960D02*
X17000Y25070D01*
X16110Y25960D02*
X16110Y29690D01*
X15600Y30200D02*
X16110Y29690D01*
X24600Y28200D02*
X26360Y28200D01*
X26290Y32130D02*
X27000Y32130D01*
X25740Y32690D02*
X26290Y32130D01*
X22660Y32690D02*
X25740Y32690D01*
X21840Y31870D02*
X22660Y32690D01*
X22730Y31330D02*
X23600Y32200D01*
X41600Y23570D02*
X42500Y23570D01*
X42990Y24060*
X50070Y35500D02*
X52750Y35500D01*
X49650Y35920D02*
X50070Y35500D01*
X49290Y35920D02*
X49650Y35920D01*
X48000Y34630D02*
X49290Y35920D01*
X46760Y34630D02*
X48000Y34630D01*
X45770Y33640D02*
X46760Y34630D01*
X41370Y33640D02*
X45770Y33640D01*
X40370Y34640D02*
X41370Y33640D01*
X35570Y34640D02*
X40370Y34640D01*
X35320Y34890D02*
X35570Y34640D01*
X34360Y34890D02*
X35320Y34890D01*
X26580Y31130D02*
X27000Y31130D01*
X49960Y45500D02*
X52750Y45500D01*
X49710Y45250D02*
X49960Y45500D01*
X49710Y39640D02*
X49710Y45250D01*
X49280Y39210D02*
X49710Y39640D01*
X45730Y39210D02*
X49280Y39210D01*
X44750Y40190D02*
X45730Y39210D01*
X43910Y40190D02*
X44750Y40190D01*
X43340Y39620D02*
X43910Y40190D01*
X42480Y39620D02*
X43340Y39620D01*
X42060Y39210D02*
X42480Y39620D01*
X36790Y39210D02*
X42060Y39210D01*
X50080Y52500D02*
X52750Y52500D01*
X49340Y51760D02*
X50080Y52500D01*
X40720Y51760D02*
X49340Y51760D01*
X38600Y53270D02*
X38790Y53460D01*
X39040Y53460*
X39340Y53760*
X41810Y53760*
X42270Y53300*
X36100Y40200D02*
X38600Y42700D01*
X34640Y40200D02*
X36100Y40200D01*
X33270Y38830D02*
X34640Y40200D01*
X29940Y38830D02*
X33270Y38830D01*
X29940Y38820D02*
X29940Y38830D01*
X26290Y38820D02*
X29940Y38820D01*
X24340Y36870D02*
X26290Y38820D01*
X22480Y36870D02*
X24340Y36870D01*
X22110Y36500D02*
X22480Y36870D01*
X22110Y34130D02*
X22110Y36500D01*
X27000Y51270D02*
X27500Y50770D01*
X32300Y50770*
X22000Y51380D02*
X22000Y52000D01*
X22000Y51380D02*
X22120Y51260D01*
X23500Y51260*
X23740Y51500*
X23740Y53000*
X24510Y53770*
X29500Y53770*
X46900Y52770D02*
X47400Y53270D01*
X33300Y52770D02*
X46900Y52770D01*
X27000Y36130D02*
X27810Y36940D01*
X30390Y36940*
X31270Y37820*
X32010Y37820*
X32890Y36940*
X39360Y36940*
X40050Y36250*
X40860Y36250*
X41240Y36620*
X42500Y36620*
X43280Y37400*
X47250Y37400*
X15600Y45600D02*
X18260Y42940D01*
X21100Y42940*
X22600Y41440*
X22600Y40600D02*
X22600Y41440D01*
X17600Y27200D02*
X17600Y29050D01*
X15940Y30710D02*
X17600Y29050D01*
X15250Y30710D02*
X15940Y30710D01*
X15110Y30850D02*
X15250Y30710D01*
X15110Y30850D02*
X15110Y32560D01*
X15250Y32700*
X19660Y32700*
X20100Y33140*
X20100Y36500*
X20690Y37090*
X21440Y37090*
X23600Y39250*
X23600Y39600*
X50360Y28500D02*
X52750Y28500D01*
X49870Y28020D02*
X50360Y28500D01*
X44860Y28020D02*
X49870Y28020D01*
X15090Y48110D02*
X15600Y47600D01*
X12500Y48110D02*
X15090Y48110D01*
X11710Y48900D02*
X12500Y48110D01*
X11710Y48900D02*
X11710Y52630D01*
X11870Y52790*
X13080Y52790*
X13620Y53330*
X20000Y53330*
X20510Y53840*
X20510Y55250*
X20750Y55490*
X21250Y55490*
X21510Y55230*
X21510Y54750D02*
X21510Y55230D01*
X21510Y54750D02*
X21750Y54510D01*
X21990Y54510*
X22240Y54260*
X26690Y54260*
X26700Y54270*
X27000Y54270*
X26460Y52270D02*
X27000Y52270D01*
X25000Y50810D02*
X26460Y52270D01*
X22060Y50810D02*
X25000Y50810D01*
X21510Y51360D02*
X22060Y50810D01*
X21510Y51360D02*
X21510Y52250D01*
X21750Y52490*
X22250Y52490*
X22490Y52250*
X22490Y51690D02*
X22490Y52250D01*
X22490Y51690D02*
X22670Y51510D01*
X23250Y51510*
X23490Y51750*
X23490Y52510*
X21740Y54260D02*
X23490Y52510D01*
X21250Y54260D02*
X21740Y54260D01*
X21000Y54510D02*
X21250Y54260D01*
X28370Y50270D02*
X30000Y50270D01*
X27870Y49760D02*
X28370Y50270D01*
X25300Y49760D02*
X27870Y49760D01*
X24970Y50090D02*
X25300Y49760D01*
X20250Y50090D02*
X24970Y50090D01*
X20100Y49940D02*
X20250Y50090D01*
X20100Y49100D02*
X20100Y49940D01*
X19600Y48600D02*
X20100Y49100D01*
X32800Y51270D02*
X33290Y50780D01*
X33290Y50060D02*
X33290Y50780D01*
X33000Y49770D02*
X33290Y50060D01*
X28760Y49770D02*
X33000Y49770D01*
X49620Y32500D02*
X52750Y32500D01*
X49120Y32000D02*
X49620Y32500D01*
X49120Y30910D02*
X49120Y32000D01*
X49120Y30910D02*
X49370Y30660D01*
X49370Y28600D02*
X49370Y30660D01*
X49290Y28520D02*
X49370Y28600D01*
X47490Y28520D02*
X49290Y28520D01*
X47010Y29000D02*
X47490Y28520D01*
X44330Y29000D02*
X47010Y29000D01*
X43080Y27750D02*
X44330Y29000D01*
X27050Y27750D02*
X43080Y27750D01*
X26000Y26700D02*
X27050Y27750D01*
X21100Y26700D02*
X26000Y26700D01*
X50120Y29500D02*
X52750Y29500D01*
X49620Y29000D02*
X50120Y29500D01*
X49620Y28270D02*
X49620Y29000D01*
X47280Y28270D02*
X49620Y28270D01*
X47020Y28530D02*
X47280Y28270D01*
X44600Y28530D02*
X47020Y28530D01*
X43520Y27450D02*
X44600Y28530D01*
X28440Y27450D02*
X43520Y27450D01*
X20430Y44600D02*
X23600Y44600D01*
X49110Y53500D02*
X52750Y53500D01*
X48910Y53300D02*
X49110Y53500D01*
X48230Y53300D02*
X48910Y53300D01*
X47760Y53770D02*
X48230Y53300D01*
X42580Y53770D02*
X47760Y53770D01*
X42080Y54270D02*
X42580Y53770D01*
X41600Y54270D02*
X42080Y54270D01*
X15600Y32200D02*
X20220Y32200D01*
X20330Y32310*
X21720Y32310*
X23110Y33700*
X25280Y33700*
X26350Y32630*
X31290Y44190D02*
X32800Y45700D01*
X29700Y44190D02*
X31290Y44190D01*
X29510Y44000D02*
X29700Y44190D01*
X29510Y43170D02*
X29510Y44000D01*
X27550Y41210D02*
X29510Y43170D01*
X26510Y41210D02*
X27550Y41210D01*
X26070Y40770D02*
X26510Y41210D01*
X25200Y40770D02*
X26070Y40770D01*
X24870Y41090D02*
X25200Y40770D01*
X23250Y41090D02*
X24870Y41090D01*
X23100Y40940D02*
X23250Y41090D01*
X23100Y40250D02*
X23100Y40940D01*
X22960Y40110D02*
X23100Y40250D01*
X15090Y40110D02*
X22960Y40110D01*
X14600Y40600D02*
X15090Y40110D01*
X24110Y40110D02*
X24600Y40600D01*
X23420Y40110D02*
X24110Y40110D01*
X23090Y39780D02*
X23420Y40110D01*
X23090Y39250D02*
X23090Y39780D01*
X22950Y39110D02*
X23090Y39250D01*
X18530Y39110D02*
X22950Y39110D01*
X16110Y36690D02*
X18530Y39110D01*
X16110Y35000D02*
X16110Y36690D01*
X15820Y34710D02*
X16110Y35000D01*
X13680Y34710D02*
X15820Y34710D01*
X13600Y34790D02*
X13680Y34710D01*
X07880Y34790D02*
X13600Y34790D01*
X07710Y34630D02*
X07880Y34790D01*
X07710Y28560D02*
X07710Y34630D01*
X07710Y28560D02*
X08570Y27700D01*
X15100Y27700*
X15600Y27200*
X47400Y34130D02*
X48210Y34130D01*
X49210Y35130*
X25610Y46090D02*
X27000Y44700D01*
X18110Y46090D02*
X25610Y46090D01*
X16090Y48110D02*
X18110Y46090D01*
X16090Y48110D02*
X16090Y48870D01*
X15870Y49090D02*
X16090Y48870D01*
X19830Y29970D02*
X22600Y27200D01*
X24100Y29700D02*
X24600Y29200D01*
X22970Y29700D02*
X24100Y29700D01*
X21780Y30890D02*
X22970Y29700D01*
X16380Y30890D02*
X21780Y30890D01*
X16070Y31200D02*
X16380Y30890D01*
X15600Y31200D02*
X16070Y31200D01*
X43930Y33130D02*
X44400Y33130D01*
X43020Y32220D02*
X43930Y33130D01*
X41100Y31630D02*
X41600Y31130D01*
X34500Y31630D02*
X41100Y31630D01*
X34300Y31830D02*
X34500Y31630D01*
X33620Y31830D02*
X34300Y31830D01*
X33420Y31630D02*
X33620Y31830D01*
X30500Y31630D02*
X33420Y31630D01*
X30000Y31130D02*
X30500Y31630D01*
X32300Y30630D02*
X32800Y31130D01*
X25800Y30630D02*
X32300Y30630D01*
X25720Y30710D02*
X25800Y30630D01*
X24110Y30710D02*
X25720Y30710D01*
X23600Y30200D02*
X24110Y30710D01*
X41600Y44700D02*
X43590Y44700D01*
X44080Y45190*
X47750Y45190*
X48940Y44000*
X18800Y21000D02*
X19290Y20510D01*
X26020Y20510*
X26570Y21060*
X36340Y21060*
X37850Y22570*
X10620Y33200D02*
X14600Y33200D01*
X09200Y31780D02*
X10620Y33200D01*
X10500Y30200D02*
X14600Y30200D01*
X09710Y30990D02*
X10500Y30200D01*
X09710Y30990D02*
X09710Y31620D01*
X09880Y31790*
X10710Y31790*
X18000Y50000D02*
X20000Y52000D01*
X17600Y50000D02*
X18000Y50000D01*
X17600Y49600D02*
X17600Y50000D01*
X10400Y42600D02*
X14600Y42600D01*
X12000Y45600D02*
X14600Y45600D01*
X10400Y43600D02*
X14600Y43600D01*
X08550Y35200D02*
X14600Y35200D01*
X29510Y34640D02*
X30000Y35130D01*
X25800Y34640D02*
X29510Y34640D01*
X25750Y34690D02*
X25800Y34640D01*
X24090Y34690D02*
X25750Y34690D01*
X23600Y34200D02*
X24090Y34690D01*
X17800Y24000D02*
X19730Y22070D01*
X35300Y22070*
X35800Y22570*
X14040Y30640D02*
X14600Y31200D01*
X10860Y30640D02*
X14040Y30640D01*
D12*
X52750Y35500D03*
X52750Y34500D03*
X52750Y33500D03*
X52750Y32500D03*
X52750Y31500D03*
X52750Y30500D03*
X52750Y29500D03*
X52750Y28500D03*
X52750Y27500D03*
X52750Y26500D03*
X52750Y25500D03*
X52750Y24500D03*
X52750Y23500D03*
X52750Y41500D03*
X52750Y42500D03*
X52750Y43500D03*
X52750Y44500D03*
X52750Y45500D03*
X52750Y46500D03*
X52750Y47500D03*
X52750Y48500D03*
X52750Y49500D03*
X52750Y50500D03*
X52750Y51500D03*
X52750Y52500D03*
X52750Y53500D03*
D13*
X23000Y55000D03*
X22800Y24000D03*
X12200Y55300D03*
X12200Y50050D03*
X12200Y44800D03*
X12200Y39550D03*
X12200Y34300D03*
X12200Y29050D03*
X12200Y23800D03*
X15600Y39600D03*
X15600Y26200D03*
D14*
X22000Y55000D03*
X21000Y55000D03*
X20000Y55000D03*
X19000Y55000D03*
X18000Y55000D03*
X17000Y55000D03*
X17000Y52000D03*
X18000Y52000D03*
X19000Y52000D03*
X20000Y52000D03*
X21000Y52000D03*
X22000Y52000D03*
X23000Y52000D03*
X30000Y50270D03*
X30000Y51270D03*
X30000Y52270D03*
X30000Y53270D03*
X30000Y54270D03*
X30000Y55270D03*
X27000Y55270D03*
X27000Y54270D03*
X27000Y53270D03*
X27000Y52270D03*
X27000Y51270D03*
X27000Y50270D03*
X27000Y49270D03*
X35800Y50270D03*
X35800Y51270D03*
X35800Y52270D03*
X35800Y53270D03*
X35800Y54270D03*
X35800Y55270D03*
X32800Y55270D03*
X32800Y54270D03*
X32800Y53270D03*
X32800Y52270D03*
X32800Y51270D03*
X32800Y50270D03*
X32800Y49270D03*
X41600Y50270D03*
X41600Y51270D03*
X41600Y52270D03*
X41600Y53270D03*
X41600Y54270D03*
X41600Y55270D03*
X38600Y55270D03*
X38600Y54270D03*
X38600Y53270D03*
X38600Y52270D03*
X38600Y51270D03*
X38600Y50270D03*
X38600Y49270D03*
X47400Y50270D03*
X47400Y51270D03*
X47400Y52270D03*
X47400Y53270D03*
X47400Y54270D03*
X47400Y55270D03*
X44400Y55270D03*
X44400Y54270D03*
X44400Y53270D03*
X44400Y52270D03*
X44400Y51270D03*
X44400Y50270D03*
X44400Y49270D03*
X30000Y40700D03*
X30000Y41700D03*
X30000Y42700D03*
X30000Y43700D03*
X30000Y44700D03*
X30000Y45700D03*
X27000Y45700D03*
X27000Y44700D03*
X27000Y43700D03*
X27000Y42700D03*
X27000Y41700D03*
X27000Y40700D03*
X27000Y39700D03*
X35800Y40700D03*
X35800Y41700D03*
X35800Y42700D03*
X35800Y43700D03*
X35800Y44700D03*
X35800Y45700D03*
X32800Y45700D03*
X32800Y44700D03*
X32800Y43700D03*
X32800Y42700D03*
X32800Y41700D03*
X32800Y40700D03*
X32800Y39700D03*
X41600Y40700D03*
X41600Y41700D03*
X41600Y42700D03*
X41600Y43700D03*
X41600Y44700D03*
X41600Y45700D03*
X38600Y45700D03*
X38600Y44700D03*
X38600Y43700D03*
X38600Y42700D03*
X38600Y41700D03*
X38600Y40700D03*
X38600Y39700D03*
X47400Y40700D03*
X47400Y41700D03*
X47400Y42700D03*
X47400Y43700D03*
X47400Y44700D03*
X47400Y45700D03*
X44400Y45700D03*
X44400Y44700D03*
X44400Y43700D03*
X44400Y42700D03*
X44400Y41700D03*
X44400Y40700D03*
X44400Y39700D03*
X30000Y31130D03*
X30000Y32130D03*
X30000Y33130D03*
X30000Y34130D03*
X30000Y35130D03*
X30000Y36130D03*
X27000Y36130D03*
X27000Y35130D03*
X27000Y34130D03*
X27000Y33130D03*
X27000Y32130D03*
X27000Y31130D03*
X27000Y30130D03*
X35800Y31130D03*
X35800Y32130D03*
X35800Y33130D03*
X35800Y34130D03*
X35800Y35130D03*
X35800Y36130D03*
X32800Y36130D03*
X32800Y35130D03*
X32800Y34130D03*
X32800Y33130D03*
X32800Y32130D03*
X32800Y31130D03*
X32800Y30130D03*
X41600Y31130D03*
X41600Y32130D03*
X41600Y33130D03*
X41600Y34130D03*
X41600Y35130D03*
X41600Y36130D03*
X38600Y36130D03*
X38600Y35130D03*
X38600Y34130D03*
X38600Y33130D03*
X38600Y32130D03*
X38600Y31130D03*
X38600Y30130D03*
X47400Y31130D03*
X47400Y32130D03*
X47400Y33130D03*
X47400Y34130D03*
X47400Y35130D03*
X47400Y36130D03*
X44400Y36130D03*
X44400Y35130D03*
X44400Y34130D03*
X44400Y33130D03*
X44400Y32130D03*
X44400Y31130D03*
X44400Y30130D03*
X21800Y24000D03*
X20800Y24000D03*
X19800Y24000D03*
X18800Y24000D03*
X17800Y24000D03*
X16800Y24000D03*
X16800Y21000D03*
X17800Y21000D03*
X18800Y21000D03*
X19800Y21000D03*
X20800Y21000D03*
X21800Y21000D03*
X22800Y21000D03*
X30000Y21570D03*
X30000Y22570D03*
X30000Y23570D03*
X30000Y24570D03*
X30000Y25570D03*
X30000Y26570D03*
X27000Y26570D03*
X27000Y25570D03*
X27000Y24570D03*
X27000Y23570D03*
X27000Y22570D03*
X27000Y21570D03*
X27000Y20570D03*
X35800Y21570D03*
X35800Y22570D03*
X35800Y23570D03*
X35800Y24570D03*
X35800Y25570D03*
X35800Y26570D03*
X32800Y26570D03*
X32800Y25570D03*
X32800Y24570D03*
X32800Y23570D03*
X32800Y22570D03*
X32800Y21570D03*
X32800Y20570D03*
X41600Y21570D03*
X41600Y22570D03*
X41600Y23570D03*
X41600Y24570D03*
X41600Y25570D03*
X41600Y26570D03*
X38600Y26570D03*
X38600Y25570D03*
X38600Y24570D03*
X38600Y23570D03*
X38600Y22570D03*
X38600Y21570D03*
X38600Y20570D03*
X47400Y21570D03*
X47400Y22570D03*
X47400Y23570D03*
X47400Y24570D03*
X47400Y25570D03*
X47400Y26570D03*
X44400Y26570D03*
X44400Y25570D03*
X44400Y24570D03*
X44400Y23570D03*
X44400Y22570D03*
X44400Y21570D03*
X44400Y20570D03*
X11200Y55300D03*
X10200Y55300D03*
X09200Y55300D03*
X08200Y55300D03*
X07200Y55300D03*
X06200Y55300D03*
X06200Y52300D03*
X07200Y52300D03*
X08200Y52300D03*
X09200Y52300D03*
X10200Y52300D03*
X11200Y52300D03*
X12200Y52300D03*
X11200Y50050D03*
X10200Y50050D03*
X09200Y50050D03*
X08200Y50050D03*
X07200Y50050D03*
X06200Y50050D03*
X06200Y47050D03*
X07200Y47050D03*
X08200Y47050D03*
X09200Y47050D03*
X10200Y47050D03*
X11200Y47050D03*
X12200Y47050D03*
X11200Y44800D03*
X10200Y44800D03*
X09200Y44800D03*
X08200Y44800D03*
X07200Y44800D03*
X06200Y44800D03*
X06200Y41800D03*
X07200Y41800D03*
X08200Y41800D03*
X09200Y41800D03*
X10200Y41800D03*
X11200Y41800D03*
X12200Y41800D03*
X11200Y39550D03*
X10200Y39550D03*
X09200Y39550D03*
X08200Y39550D03*
X07200Y39550D03*
X06200Y39550D03*
X06200Y36550D03*
X07200Y36550D03*
X08200Y36550D03*
X09200Y36550D03*
X10200Y36550D03*
X11200Y36550D03*
X12200Y36550D03*
X11200Y34300D03*
X10200Y34300D03*
X09200Y34300D03*
X08200Y34300D03*
X07200Y34300D03*
X06200Y34300D03*
X06200Y31300D03*
X07200Y31300D03*
X08200Y31300D03*
X09200Y31300D03*
X10200Y31300D03*
X11200Y31300D03*
X12200Y31300D03*
X11200Y29050D03*
X10200Y29050D03*
X09200Y29050D03*
X08200Y29050D03*
X07200Y29050D03*
X06200Y29050D03*
X06200Y26050D03*
X07200Y26050D03*
X08200Y26050D03*
X09200Y26050D03*
X10200Y26050D03*
X11200Y26050D03*
X12200Y26050D03*
X11200Y23800D03*
X10200Y23800D03*
X09200Y23800D03*
X08200Y23800D03*
X07200Y23800D03*
X06200Y23800D03*
X06200Y20800D03*
X07200Y20800D03*
X08200Y20800D03*
X09200Y20800D03*
X10200Y20800D03*
X11200Y20800D03*
X12200Y20800D03*
X15600Y40600D03*
X16600Y39600D03*
X16600Y40600D03*
X17600Y39600D03*
X17600Y40600D03*
X18600Y39600D03*
X18600Y40600D03*
X19600Y39600D03*
X19600Y40600D03*
X20600Y39600D03*
X20600Y40600D03*
X21600Y39600D03*
X21600Y40600D03*
X22600Y39600D03*
X22600Y40600D03*
X23600Y39600D03*
X24600Y40600D03*
X23600Y40600D03*
X24600Y41600D03*
X23600Y41600D03*
X24600Y42600D03*
X23600Y42600D03*
X24600Y43600D03*
X23600Y43600D03*
X24600Y44600D03*
X23600Y44600D03*
X24600Y45600D03*
X23600Y45600D03*
X24600Y46600D03*
X23600Y46600D03*
X24600Y47600D03*
X23600Y47600D03*
X24600Y48600D03*
X23600Y49600D03*
X23600Y48600D03*
X22600Y49600D03*
X22600Y48600D03*
X21600Y49600D03*
X21600Y48600D03*
X20600Y49600D03*
X20600Y48600D03*
X19600Y49600D03*
X19600Y48600D03*
X18600Y49600D03*
X18600Y48600D03*
X17600Y49600D03*
X17600Y48600D03*
X16600Y49600D03*
X16600Y48600D03*
X15600Y49600D03*
X14600Y48600D03*
X15600Y48600D03*
X14600Y47600D03*
X15600Y47600D03*
X14600Y46600D03*
X15600Y46600D03*
X14600Y45600D03*
X15600Y45600D03*
X14600Y44600D03*
X15600Y44600D03*
X14600Y43600D03*
X15600Y43600D03*
X14600Y42600D03*
X15600Y42600D03*
X14600Y41600D03*
X15600Y41600D03*
X14600Y40600D03*
X15600Y27200D03*
X16600Y26200D03*
X16600Y27200D03*
X17600Y26200D03*
X17600Y27200D03*
X18600Y26200D03*
X18600Y27200D03*
X19600Y26200D03*
X19600Y27200D03*
X20600Y26200D03*
X20600Y27200D03*
X21600Y26200D03*
X21600Y27200D03*
X22600Y26200D03*
X22600Y27200D03*
X23600Y26200D03*
X24600Y27200D03*
X23600Y27200D03*
X24600Y28200D03*
X23600Y28200D03*
X24600Y29200D03*
X23600Y29200D03*
X24600Y30200D03*
X23600Y30200D03*
X24600Y31200D03*
X23600Y31200D03*
X24600Y32200D03*
X23600Y32200D03*
X24600Y33200D03*
X23600Y33200D03*
X24600Y34200D03*
X23600Y34200D03*
X24600Y35200D03*
X23600Y36200D03*
X23600Y35200D03*
X22600Y36200D03*
X22600Y35200D03*
X21600Y36200D03*
X21600Y35200D03*
X20600Y36200D03*
X20600Y35200D03*
X19600Y36200D03*
X19600Y35200D03*
X18600Y36200D03*
X18600Y35200D03*
X17600Y36200D03*
X17600Y35200D03*
X16600Y36200D03*
X16600Y35200D03*
X15600Y36200D03*
X14600Y35200D03*
X15600Y35200D03*
X14600Y34200D03*
X15600Y34200D03*
X14600Y33200D03*
X15600Y33200D03*
X14600Y32200D03*
X15600Y32200D03*
X14600Y31200D03*
X15600Y31200D03*
X14600Y30200D03*
X15600Y30200D03*
X14600Y29200D03*
X15600Y29200D03*
X14600Y28200D03*
X15600Y28200D03*
X14600Y27200D03*
X14400Y52600D03*
X14400Y54600D03*
X14200Y21600D03*
X14200Y23600D03*
X29400Y47600D03*
X27400Y47600D03*
X41000Y47600D03*
X39000Y47600D03*
X29400Y37950D03*
X27400Y37950D03*
X41000Y37950D03*
X39000Y37950D03*
X29400Y28300D03*
X27400Y28300D03*
X41000Y28300D03*
X39000Y28300D03*
D13*
X30000Y49270D03*
X35800Y49270D03*
X41600Y49270D03*
X47400Y49270D03*
X30000Y39700D03*
X35800Y39700D03*
X41600Y39700D03*
X47400Y39700D03*
X30000Y30130D03*
X35800Y30130D03*
X41600Y30130D03*
X47400Y30130D03*
X30000Y20570D03*
X35800Y20570D03*
X41600Y20570D03*
X47400Y20570D03*
D15*
X48510Y22760D03*
X48850Y28960D03*
X50070Y34140D03*
X48930Y30470D03*
X49670Y24250D03*
X49920Y30500D03*
X37370Y23570D03*
X28000Y52770D03*
X26240Y52770D03*
X24180Y51650D03*
X21100Y41570D03*
X26710Y28550D03*
X42440Y55320D03*
X19870Y47590D03*
X37260Y48050D03*
X39130Y51760D03*
X20660Y31870D03*
X48650Y49970D03*
X31060Y24820D03*
X16630Y31330D03*
X29430Y26070D03*
X49540Y22770D03*
X50080Y37290D03*
X34120Y35130D03*
X25530Y32180D03*
X25530Y41230D03*
X36540Y39460D03*
X27640Y43990D03*
X20410Y43750D03*
X46690Y27500D03*
X43150Y34640D03*
X40290Y51330D03*
X41590Y28820D03*
X18370Y30410D03*
X40640Y36760D03*
X13130Y53480D03*
X34480Y55060D03*
X40020Y41210D03*
X42780Y53300D03*
X33090Y29310D03*
X25280Y30220D03*
X35100Y33190D03*
X39980Y34180D03*
X40460Y42200D03*
X21360Y33380D03*
X16290Y24580D03*
X37540Y25910D03*
X37630Y29260D03*
X47720Y28960D03*
X32020Y48160D03*
X37260Y35130D03*
X31760Y33170D03*
X37110Y50170D03*
X33680Y31200D03*
X33450Y49020D03*
X48470Y53740D03*
X27980Y40560D03*
X22650Y45100D03*
X31640Y37130D03*
X31020Y33960D03*
X42920Y39180D03*
X46440Y31070D03*
X47890Y38040D03*
X14200Y49790D03*
X31310Y54960D03*
X45790Y23130D03*
X47890Y47450D03*
X43070Y40490D03*
X34870Y29910D03*
X24090Y38140D03*
X43080Y33200D03*
X43020Y30750D03*
X50080Y49280D03*
X40220Y52000D03*
X46230Y41620D03*
X44790Y28090D03*
X28470Y49480D03*
X28190Y27200D03*
X20160Y44330D03*
X19750Y28160D03*
X43400Y45700D03*
X48960Y40200D03*
X49780Y31500D03*
X49720Y35130D03*
X37540Y21320D03*
X30490Y28380D03*
X35560Y28380D03*
X14110Y49090D03*
X19310Y29970D03*
X43020Y31380D03*
X41110Y22060D03*
X33860Y31200D03*
X34110Y23790D03*
X41090Y46420D03*
X32120Y41200D03*
X29010Y21570D03*
X50670Y36850D03*
X48940Y43750D03*
X44890Y47700D03*
X45640Y45700D03*
D12*
X52750Y35500D03*
X52750Y34500D03*
X52750Y33500D03*
X52750Y32500D03*
X52750Y31500D03*
X52750Y30500D03*
X52750Y29500D03*
X52750Y28500D03*
X52750Y27500D03*
X52750Y26500D03*
X52750Y25500D03*
X52750Y24500D03*
X52750Y23500D03*
X52750Y41500D03*
X52750Y42500D03*
X52750Y43500D03*
X52750Y44500D03*
X52750Y45500D03*
X52750Y46500D03*
X52750Y47500D03*
X52750Y48500D03*
X52750Y49500D03*
X52750Y50500D03*
X52750Y51500D03*
X52750Y52500D03*
X52750Y53500D03*
D13*
X23000Y55000D03*
X22800Y24000D03*
X12200Y55300D03*
X12200Y50050D03*
X12200Y44800D03*
X12200Y39550D03*
X12200Y34300D03*
X12200Y29050D03*
X12200Y23800D03*
X15600Y39600D03*
X15600Y26200D03*
D14*
X22000Y55000D03*
X21000Y55000D03*
X20000Y55000D03*
X19000Y55000D03*
X18000Y55000D03*
X17000Y55000D03*
X17000Y52000D03*
X18000Y52000D03*
X19000Y52000D03*
X20000Y52000D03*
X21000Y52000D03*
X22000Y52000D03*
X23000Y52000D03*
X30000Y50270D03*
X30000Y51270D03*
X30000Y52270D03*
X30000Y53270D03*
X30000Y54270D03*
X30000Y55270D03*
X27000Y55270D03*
X27000Y54270D03*
X27000Y53270D03*
X27000Y52270D03*
X27000Y51270D03*
X27000Y50270D03*
X27000Y49270D03*
X35800Y50270D03*
X35800Y51270D03*
X35800Y52270D03*
X35800Y53270D03*
X35800Y54270D03*
X35800Y55270D03*
X32800Y55270D03*
X32800Y54270D03*
X32800Y53270D03*
X32800Y52270D03*
X32800Y51270D03*
X32800Y50270D03*
X32800Y49270D03*
X41600Y50270D03*
X41600Y51270D03*
X41600Y52270D03*
X41600Y53270D03*
X41600Y54270D03*
X41600Y55270D03*
X38600Y55270D03*
X38600Y54270D03*
X38600Y53270D03*
X38600Y52270D03*
X38600Y51270D03*
X38600Y50270D03*
X38600Y49270D03*
X47400Y50270D03*
X47400Y51270D03*
X47400Y52270D03*
X47400Y53270D03*
X47400Y54270D03*
X47400Y55270D03*
X44400Y55270D03*
X44400Y54270D03*
X44400Y53270D03*
X44400Y52270D03*
X44400Y51270D03*
X44400Y50270D03*
X44400Y49270D03*
X30000Y40700D03*
X30000Y41700D03*
X30000Y42700D03*
X30000Y43700D03*
X30000Y44700D03*
X30000Y45700D03*
X27000Y45700D03*
X27000Y44700D03*
X27000Y43700D03*
X27000Y42700D03*
X27000Y41700D03*
X27000Y40700D03*
X27000Y39700D03*
X35800Y40700D03*
X35800Y41700D03*
X35800Y42700D03*
X35800Y43700D03*
X35800Y44700D03*
X35800Y45700D03*
X32800Y45700D03*
X32800Y44700D03*
X32800Y43700D03*
X32800Y42700D03*
X32800Y41700D03*
X32800Y40700D03*
X32800Y39700D03*
X41600Y40700D03*
X41600Y41700D03*
X41600Y42700D03*
X41600Y43700D03*
X41600Y44700D03*
X41600Y45700D03*
X38600Y45700D03*
X38600Y44700D03*
X38600Y43700D03*
X38600Y42700D03*
X38600Y41700D03*
X38600Y40700D03*
X38600Y39700D03*
X47400Y40700D03*
X47400Y41700D03*
X47400Y42700D03*
X47400Y43700D03*
X47400Y44700D03*
X47400Y45700D03*
X44400Y45700D03*
X44400Y44700D03*
X44400Y43700D03*
X44400Y42700D03*
X44400Y41700D03*
X44400Y40700D03*
X44400Y39700D03*
X30000Y31130D03*
X30000Y32130D03*
X30000Y33130D03*
X30000Y34130D03*
X30000Y35130D03*
X30000Y36130D03*
X27000Y36130D03*
X27000Y35130D03*
X27000Y34130D03*
X27000Y33130D03*
X27000Y32130D03*
X27000Y31130D03*
X27000Y30130D03*
X35800Y31130D03*
X35800Y32130D03*
X35800Y33130D03*
X35800Y34130D03*
X35800Y35130D03*
X35800Y36130D03*
X32800Y36130D03*
X32800Y35130D03*
X32800Y34130D03*
X32800Y33130D03*
X32800Y32130D03*
X32800Y31130D03*
X32800Y30130D03*
X41600Y31130D03*
X41600Y32130D03*
X41600Y33130D03*
X41600Y34130D03*
X41600Y35130D03*
X41600Y36130D03*
X38600Y36130D03*
X38600Y35130D03*
X38600Y34130D03*
X38600Y33130D03*
X38600Y32130D03*
X38600Y31130D03*
X38600Y30130D03*
X47400Y31130D03*
X47400Y32130D03*
X47400Y33130D03*
X47400Y34130D03*
X47400Y35130D03*
X47400Y36130D03*
X44400Y36130D03*
X44400Y35130D03*
X44400Y34130D03*
X44400Y33130D03*
X44400Y32130D03*
X44400Y31130D03*
X44400Y30130D03*
X21800Y24000D03*
X20800Y24000D03*
X19800Y24000D03*
X18800Y24000D03*
X17800Y24000D03*
X16800Y24000D03*
X16800Y21000D03*
X17800Y21000D03*
X18800Y21000D03*
X19800Y21000D03*
X20800Y21000D03*
X21800Y21000D03*
X22800Y21000D03*
X30000Y21570D03*
X30000Y22570D03*
X30000Y23570D03*
X30000Y24570D03*
X30000Y25570D03*
X30000Y26570D03*
X27000Y26570D03*
X27000Y25570D03*
X27000Y24570D03*
X27000Y23570D03*
X27000Y22570D03*
X27000Y21570D03*
X27000Y20570D03*
X35800Y21570D03*
X35800Y22570D03*
X35800Y23570D03*
X35800Y24570D03*
X35800Y25570D03*
X35800Y26570D03*
X32800Y26570D03*
X32800Y25570D03*
X32800Y24570D03*
X32800Y23570D03*
X32800Y22570D03*
X32800Y21570D03*
X32800Y20570D03*
X41600Y21570D03*
X41600Y22570D03*
X41600Y23570D03*
X41600Y24570D03*
X41600Y25570D03*
X41600Y26570D03*
X38600Y26570D03*
X38600Y25570D03*
X38600Y24570D03*
X38600Y23570D03*
X38600Y22570D03*
X38600Y21570D03*
X38600Y20570D03*
X47400Y21570D03*
X47400Y22570D03*
X47400Y23570D03*
X47400Y24570D03*
X47400Y25570D03*
X47400Y26570D03*
X44400Y26570D03*
X44400Y25570D03*
X44400Y24570D03*
X44400Y23570D03*
X44400Y22570D03*
X44400Y21570D03*
X44400Y20570D03*
X11200Y55300D03*
X10200Y55300D03*
X09200Y55300D03*
X08200Y55300D03*
X07200Y55300D03*
X06200Y55300D03*
X06200Y52300D03*
X07200Y52300D03*
X08200Y52300D03*
X09200Y52300D03*
X10200Y52300D03*
X11200Y52300D03*
X12200Y52300D03*
X11200Y50050D03*
X10200Y50050D03*
X09200Y50050D03*
X08200Y50050D03*
X07200Y50050D03*
X06200Y50050D03*
X06200Y47050D03*
X07200Y47050D03*
X08200Y47050D03*
X09200Y47050D03*
X10200Y47050D03*
X11200Y47050D03*
X12200Y47050D03*
X11200Y44800D03*
X10200Y44800D03*
X09200Y44800D03*
X08200Y44800D03*
X07200Y44800D03*
X06200Y44800D03*
X06200Y41800D03*
X07200Y41800D03*
X08200Y41800D03*
X09200Y41800D03*
X10200Y41800D03*
X11200Y41800D03*
X12200Y41800D03*
X11200Y39550D03*
X10200Y39550D03*
X09200Y39550D03*
X08200Y39550D03*
X07200Y39550D03*
X06200Y39550D03*
X06200Y36550D03*
X07200Y36550D03*
X08200Y36550D03*
X09200Y36550D03*
X10200Y36550D03*
X11200Y36550D03*
X12200Y36550D03*
X11200Y34300D03*
X10200Y34300D03*
X09200Y34300D03*
X08200Y34300D03*
X07200Y34300D03*
X06200Y34300D03*
X06200Y31300D03*
X07200Y31300D03*
X08200Y31300D03*
X09200Y31300D03*
X10200Y31300D03*
X11200Y31300D03*
X12200Y31300D03*
X11200Y29050D03*
X10200Y29050D03*
X09200Y29050D03*
X08200Y29050D03*
X07200Y29050D03*
X06200Y29050D03*
X06200Y26050D03*
X07200Y26050D03*
X08200Y26050D03*
X09200Y26050D03*
X10200Y26050D03*
X11200Y26050D03*
X12200Y26050D03*
X11200Y23800D03*
X10200Y23800D03*
X09200Y23800D03*
X08200Y23800D03*
X07200Y23800D03*
X06200Y23800D03*
X06200Y20800D03*
X07200Y20800D03*
X08200Y20800D03*
X09200Y20800D03*
X10200Y20800D03*
X11200Y20800D03*
X12200Y20800D03*
X15600Y40600D03*
X16600Y39600D03*
X16600Y40600D03*
X17600Y39600D03*
X17600Y40600D03*
X18600Y39600D03*
X18600Y40600D03*
X19600Y39600D03*
X19600Y40600D03*
X20600Y39600D03*
X20600Y40600D03*
X21600Y39600D03*
X21600Y40600D03*
X22600Y39600D03*
X22600Y40600D03*
X23600Y39600D03*
X24600Y40600D03*
X23600Y40600D03*
X24600Y41600D03*
X23600Y41600D03*
X24600Y42600D03*
X23600Y42600D03*
X24600Y43600D03*
X23600Y43600D03*
X24600Y44600D03*
X23600Y44600D03*
X24600Y45600D03*
X23600Y45600D03*
X24600Y46600D03*
X23600Y46600D03*
X24600Y47600D03*
X23600Y47600D03*
X24600Y48600D03*
X23600Y49600D03*
X23600Y48600D03*
X22600Y49600D03*
X22600Y48600D03*
X21600Y49600D03*
X21600Y48600D03*
X20600Y49600D03*
X20600Y48600D03*
X19600Y49600D03*
X19600Y48600D03*
X18600Y49600D03*
X18600Y48600D03*
X17600Y49600D03*
X17600Y48600D03*
X16600Y49600D03*
X16600Y48600D03*
X15600Y49600D03*
X14600Y48600D03*
X15600Y48600D03*
X14600Y47600D03*
X15600Y47600D03*
X14600Y46600D03*
X15600Y46600D03*
X14600Y45600D03*
X15600Y45600D03*
X14600Y44600D03*
X15600Y44600D03*
X14600Y43600D03*
X15600Y43600D03*
X14600Y42600D03*
X15600Y42600D03*
X14600Y41600D03*
X15600Y41600D03*
X14600Y40600D03*
X15600Y27200D03*
X16600Y26200D03*
X16600Y27200D03*
X17600Y26200D03*
X17600Y27200D03*
X18600Y26200D03*
X18600Y27200D03*
X19600Y26200D03*
X19600Y27200D03*
X20600Y26200D03*
X20600Y27200D03*
X21600Y26200D03*
X21600Y27200D03*
X22600Y26200D03*
X22600Y27200D03*
X23600Y26200D03*
X24600Y27200D03*
X23600Y27200D03*
X24600Y28200D03*
X23600Y28200D03*
X24600Y29200D03*
X23600Y29200D03*
X24600Y30200D03*
X23600Y30200D03*
X24600Y31200D03*
X23600Y31200D03*
X24600Y32200D03*
X23600Y32200D03*
X24600Y33200D03*
X23600Y33200D03*
X24600Y34200D03*
X23600Y34200D03*
X24600Y35200D03*
X23600Y36200D03*
X23600Y35200D03*
X22600Y36200D03*
X22600Y35200D03*
X21600Y36200D03*
X21600Y35200D03*
X20600Y36200D03*
X20600Y35200D03*
X19600Y36200D03*
X19600Y35200D03*
X18600Y36200D03*
X18600Y35200D03*
X17600Y36200D03*
X17600Y35200D03*
X16600Y36200D03*
X16600Y35200D03*
X15600Y36200D03*
X14600Y35200D03*
X15600Y35200D03*
X14600Y34200D03*
X15600Y34200D03*
X14600Y33200D03*
X15600Y33200D03*
X14600Y32200D03*
X15600Y32200D03*
X14600Y31200D03*
X15600Y31200D03*
X14600Y30200D03*
X15600Y30200D03*
X14600Y29200D03*
X15600Y29200D03*
X14600Y28200D03*
X15600Y28200D03*
X14600Y27200D03*
X14400Y52600D03*
X14400Y54600D03*
X14200Y21600D03*
X14200Y23600D03*
X29400Y47600D03*
X27400Y47600D03*
X41000Y47600D03*
X39000Y47600D03*
X29400Y37950D03*
X27400Y37950D03*
X41000Y37950D03*
X39000Y37950D03*
X29400Y28300D03*
X27400Y28300D03*
X41000Y28300D03*
X39000Y28300D03*
D13*
X30000Y49270D03*
X35800Y49270D03*
X41600Y49270D03*
X47400Y49270D03*
X30000Y39700D03*
X35800Y39700D03*
X41600Y39700D03*
X47400Y39700D03*
X30000Y30130D03*
X35800Y30130D03*
X41600Y30130D03*
X47400Y30130D03*
X30000Y20570D03*
X35800Y20570D03*
X41600Y20570D03*
X47400Y20570D03*
D15*
X48510Y22760D03*
X48850Y28960D03*
X50070Y34140D03*
X48930Y30470D03*
X49670Y24250D03*
X49920Y30500D03*
X37370Y23570D03*
X28000Y52770D03*
X26240Y52770D03*
X24180Y51650D03*
X21100Y41570D03*
X26710Y28550D03*
X42440Y55320D03*
X19870Y47590D03*
X37260Y48050D03*
X39130Y51760D03*
X20660Y31870D03*
X48650Y49970D03*
X31060Y24820D03*
X16630Y31330D03*
X29430Y26070D03*
X49540Y22770D03*
X50080Y37290D03*
X34120Y35130D03*
X25530Y32180D03*
X25530Y41230D03*
X36540Y39460D03*
X27640Y43990D03*
X20410Y43750D03*
X46690Y27500D03*
X43150Y34640D03*
X40290Y51330D03*
X41590Y28820D03*
X18370Y30410D03*
X40640Y36760D03*
X13130Y53480D03*
X34480Y55060D03*
X40020Y41210D03*
X42780Y53300D03*
X33090Y29310D03*
X25280Y30220D03*
X35100Y33190D03*
X39980Y34180D03*
X40460Y42200D03*
X21360Y33380D03*
X16290Y24580D03*
X37540Y25910D03*
X37630Y29260D03*
X47720Y28960D03*
X32020Y48160D03*
X37260Y35130D03*
X31760Y33170D03*
X37110Y50170D03*
X33680Y31200D03*
X33450Y49020D03*
X48470Y53740D03*
X27980Y40560D03*
X22650Y45100D03*
X31640Y37130D03*
X31020Y33960D03*
X42920Y39180D03*
X46440Y31070D03*
X47890Y38040D03*
X14200Y49790D03*
X31310Y54960D03*
X45790Y23130D03*
X47890Y47450D03*
X43070Y40490D03*
X34870Y29910D03*
X24090Y38140D03*
X43080Y33200D03*
X43020Y30750D03*
X50080Y49280D03*
X40220Y52000D03*
X46230Y41620D03*
X44790Y28090D03*
X28470Y49480D03*
X28190Y27200D03*
X20160Y44330D03*
X19750Y28160D03*
X43400Y45700D03*
X48960Y40200D03*
X49780Y31500D03*
X49720Y35130D03*
X37540Y21320D03*
X30490Y28380D03*
X35560Y28380D03*
X14110Y49090D03*
X19310Y29970D03*
X43020Y31380D03*
X41110Y22060D03*
X33860Y31200D03*
X34110Y23790D03*
X41090Y46420D03*
X32120Y41200D03*
X29010Y21570D03*
X50670Y36850D03*
X48940Y43750D03*
X44890Y47700D03*
X45640Y45700D03*
M02*