<?xml version='1.0' encoding='utf-8'?>
<svg width="1.02756in" x="0px" version="1.2" y="0px" xmlns="http://www.w3.org/2000/svg" height="0.350389in" viewBox="0 0 73.984 25.228" baseProfile="tiny" xmlns:xml="http://www.w3.org/XML/1998/namespace" id="fuse3" xml:space="preserve">
 <g id="copper0">
  <path fill="#F7BD13" id="connector0pin" d="M69.023,7.654c-2.74,0-4.96,2.22-4.96,4.96s2.22,4.96,4.96,4.96s4.96-2.22,4.96-4.96S71.764,7.654,69.023,7.654z M69.023,14.742c-1.175,0-2.126-0.954-2.126-2.126c0-1.175,0.951-2.129,2.126-2.129c1.174,0,2.126,0.954,2.126,2.129C71.149,13.788,70.197,14.742,69.023,14.742z"/>
  <path fill="#F7BD13" id="connector1pin" d="M4.96,7.654c-2.74,0-4.96,2.22-4.96,4.96s2.22,4.96,4.96,4.96s4.96-2.22,4.96-4.96S7.701,7.654,4.96,7.654z M4.96,14.742c-1.175,0-2.126-0.954-2.126-2.126c0-1.175,0.951-2.129,2.126-2.129c1.174,0,2.126,0.954,2.126,2.129C7.086,13.788,6.134,14.742,4.96,14.742z"/>
 </g>
 <g id="copper1">
  <path fill="#F7BD13" id="connector0pin" d="M69.023,7.654c-2.74,0-4.96,2.22-4.96,4.96s2.22,4.96,4.96,4.96s4.96-2.22,4.96-4.96S71.764,7.654,69.023,7.654z M69.023,14.742c-1.175,0-2.126-0.954-2.126-2.126c0-1.175,0.951-2.129,2.126-2.129c1.174,0,2.126,0.954,2.126,2.129C71.149,13.788,70.197,14.742,69.023,14.742z"/>
  <path fill="#F7BD13" id="connector1pin" d="M4.96,7.654c-2.74,0-4.96,2.22-4.96,4.96s2.22,4.96,4.96,4.96s4.96-2.22,4.96-4.96S7.701,7.654,4.96,7.654z M4.96,14.742c-1.175,0-2.126-0.954-2.126-2.126c0-1.175,0.951-2.129,2.126-2.129c1.174,0,2.126,0.954,2.126,2.129C7.086,13.788,6.134,14.742,4.96,14.742z"/>
 </g>
 <g id="silkscreen">
  <text fill="#FFFFFF" font-family="DroidSans" transform="matrix(1 0 0 1 16.8647 17.8872)" font-size="18">FUSE</text>
  <path fill="#FFFFFF" id="o" d="M67.156,1v4.483c-3.195,0.836-5.51,3.761-5.51,7.131s2.315,6.295,5.51,7.131v4.482H7.644v-4.747c2.799-1.093,4.695-3.815,4.695-6.867c0-3.052-1.896-5.774-4.695-6.867V1H67.156 M68.156,0H6.644v6.468c2.704,0.739,4.695,3.208,4.695,6.146c0,2.939-1.991,5.407-4.695,6.146v6.468h61.512v-6.302c-3.111-0.424-5.51-3.084-5.51-6.312c0-3.227,2.399-5.888,5.51-6.312V0L68.156,0z"/>
 </g>
 <g id="outline"/>
 <g id="soldermask"/>
 <g id="keepout"/>
</svg>
