%FSLAX23Y23*%
%MOIN*%
G70*
G01*
G75*
G04 Layer_Physical_Order=2*
G04 Layer_Color=16711680*
%ADD10O,0.400X0.070*%
%ADD11C,0.025*%
%ADD12C,0.012*%
%ADD13R,0.060X0.060*%
%ADD14C,0.060*%
%ADD15R,0.060X0.060*%
%ADD16C,0.050*%
D10*
X5275Y3550D02*
D03*
Y3450D02*
D03*
Y3350D02*
D03*
Y3250D02*
D03*
Y3150D02*
D03*
Y3050D02*
D03*
Y2950D02*
D03*
Y2850D02*
D03*
Y2750D02*
D03*
Y2650D02*
D03*
Y2550D02*
D03*
Y2450D02*
D03*
Y2350D02*
D03*
Y4150D02*
D03*
Y4250D02*
D03*
Y4350D02*
D03*
Y4450D02*
D03*
Y4550D02*
D03*
Y4650D02*
D03*
Y4750D02*
D03*
Y4850D02*
D03*
Y4950D02*
D03*
Y5050D02*
D03*
Y5150D02*
D03*
Y5250D02*
D03*
Y5350D02*
D03*
D11*
X4100Y2830D02*
Y3122D01*
Y2717D02*
Y2830D01*
X2700Y3835D02*
X2740Y3795D01*
X2780Y3754D01*
X2740Y2830D02*
Y2973D01*
Y2719D02*
Y2830D01*
X2940Y2717D02*
Y2830D01*
Y2717D02*
X3000Y2657D01*
X4080Y3143D02*
X4100Y3122D01*
X4080Y3143D02*
Y3533D01*
X4160Y3613D01*
X564Y5474D02*
X620Y5530D01*
X564Y5061D02*
Y5474D01*
Y5061D02*
X620Y5005D01*
X564Y3374D02*
X620Y3430D01*
X564Y2961D02*
Y3374D01*
Y2961D02*
X620Y2905D01*
X564Y2436D02*
X620Y2380D01*
X564Y2436D02*
Y2849D01*
X620Y2905D01*
X564Y3899D02*
X620Y3955D01*
X564Y3486D02*
Y3899D01*
Y3486D02*
X620Y3430D01*
X564Y4536D02*
X620Y4480D01*
X564Y4536D02*
Y4949D01*
X620Y5005D01*
X564Y4424D02*
X620Y4480D01*
X564Y4011D02*
Y4424D01*
Y4011D02*
X620Y3955D01*
X1700Y5500D02*
X1781Y5581D01*
X2398D01*
X2493Y5485D01*
Y4893D02*
Y5485D01*
X2460Y4860D02*
X2493Y4893D01*
X3151Y4098D02*
X3280Y3970D01*
X3151Y4098D02*
Y4850D01*
X3228Y4927D01*
X3280D01*
X2700Y4800D02*
Y4927D01*
Y4800D02*
X2740Y4760D01*
X1220Y3130D02*
X1276Y3074D01*
Y2661D02*
Y3074D01*
X1220Y2605D02*
X1276Y2661D01*
X1220Y2080D02*
X1276Y2136D01*
Y2549D01*
X1220Y2605D02*
X1276Y2549D01*
X1220Y3655D02*
X1276Y3599D01*
Y3186D02*
Y3599D01*
X1220Y3130D02*
X1276Y3186D01*
X1220Y4180D02*
X1276Y4124D01*
Y3711D02*
Y4124D01*
X1220Y3655D02*
X1276Y3711D01*
X1220Y4705D02*
X1276Y4761D01*
Y5174D01*
X1220Y5230D02*
X1276Y5174D01*
X1220Y4705D02*
X1276Y4649D01*
Y4236D02*
Y4649D01*
X1220Y4180D02*
X1276Y4236D01*
X3860Y4800D02*
Y4927D01*
Y4800D02*
X3900Y4760D01*
X4851Y2276D02*
Y2862D01*
X4885Y2896D01*
X2700Y3013D02*
X2740Y2973D01*
X2700Y3013D02*
X2780Y3094D01*
Y3754D01*
X4359Y2137D02*
X4440Y2057D01*
X4359Y2137D02*
Y2933D01*
X4440Y3013D01*
X3580Y4570D02*
X3661Y4650D01*
Y5446D01*
X3580Y5527D02*
X3661Y5446D01*
X4097Y5464D02*
X4160Y5527D01*
X4097Y5124D02*
Y5464D01*
X4080Y5107D02*
X4097Y5124D01*
X4080Y4817D02*
Y5107D01*
Y4817D02*
X4100Y4797D01*
Y4760D02*
Y4797D01*
X1560Y4960D02*
Y5140D01*
X1440Y5260D02*
X1560Y5140D01*
X2700Y3835D02*
Y3970D01*
X4100Y2717D02*
X4160Y2657D01*
X3000Y5527D02*
X3038D01*
X3080Y5484D01*
Y4900D02*
Y5484D01*
X2940Y4760D02*
X3080Y4900D01*
X4100Y4760D02*
X4160Y4700D01*
Y4570D02*
Y4700D01*
X4564Y4570D02*
Y5351D01*
X4740Y5527D01*
X3860Y2870D02*
Y3013D01*
Y2870D02*
X3900Y2830D01*
X3805Y2734D02*
X3900Y2830D01*
X3805Y2112D02*
Y2734D01*
Y2112D02*
X3860Y2057D01*
X4160Y3613D02*
Y3735D01*
X4100Y3795D02*
X4160Y3735D01*
X2280Y2100D02*
X2657D01*
X2700Y2057D01*
X3224Y2113D02*
X3280Y2057D01*
X3224Y2113D02*
Y2957D01*
X3280Y3013D01*
X4100Y4510D02*
X4160Y4570D01*
X4100Y3795D02*
Y4510D01*
X2740Y2719D02*
X2756Y2703D01*
Y2113D02*
Y2703D01*
X2700Y2057D02*
X2756Y2113D01*
X2940Y4630D02*
Y4760D01*
Y4630D02*
X3000Y4570D01*
D12*
X820Y3655D02*
Y3781D01*
Y3567D02*
Y3655D01*
Y2605D02*
Y2731D01*
Y2517D02*
Y2605D01*
Y3130D02*
Y3256D01*
Y3042D02*
Y3130D01*
Y4705D02*
Y4831D01*
Y4617D02*
Y4705D01*
Y4180D02*
Y4306D01*
Y4092D02*
Y4180D01*
Y5005D02*
Y5093D01*
Y4879D02*
Y5005D01*
Y4480D02*
Y4568D01*
Y4354D02*
Y4480D01*
Y3430D02*
Y3518D01*
Y3304D02*
Y3430D01*
Y3955D02*
Y4043D01*
Y3829D02*
Y3955D01*
Y2905D02*
Y2993D01*
Y2780D02*
Y2905D01*
X3985Y4766D02*
X4109Y4642D01*
X3985Y4766D02*
Y5163D01*
Y4584D02*
Y4766D01*
X620Y4705D02*
Y4831D01*
Y4617D02*
Y4705D01*
Y4180D02*
Y4306D01*
Y4092D02*
Y4180D01*
Y2605D02*
Y2730D01*
Y2517D02*
Y2605D01*
Y3655D02*
Y3781D01*
Y3567D02*
Y3655D01*
Y3130D02*
Y3255D01*
Y3042D02*
Y3130D01*
X720Y3655D02*
Y3781D01*
Y3567D02*
Y3655D01*
Y2605D02*
Y2731D01*
Y2517D02*
Y2605D01*
Y3130D02*
Y3256D01*
Y3042D02*
Y3130D01*
Y4705D02*
Y4831D01*
Y4617D02*
Y4705D01*
Y4180D02*
Y4306D01*
Y4092D02*
Y4180D01*
Y5005D02*
Y5093D01*
Y4879D02*
Y5005D01*
Y4480D02*
Y4568D01*
Y4354D02*
Y4480D01*
Y3430D02*
Y3518D01*
Y3304D02*
Y3430D01*
Y3955D02*
Y4043D01*
Y3829D02*
Y3955D01*
Y2905D02*
Y2993D01*
Y2780D02*
Y2905D01*
X920Y3655D02*
Y3781D01*
Y3567D02*
Y3655D01*
Y2605D02*
Y2731D01*
Y2517D02*
Y2605D01*
Y3130D02*
Y3256D01*
Y3042D02*
Y3130D01*
Y4705D02*
Y4831D01*
Y4617D02*
Y4705D01*
Y4180D02*
Y4306D01*
Y4092D02*
Y4180D01*
Y5005D02*
Y5093D01*
Y4879D02*
Y5005D01*
Y4480D02*
Y4568D01*
Y4354D02*
Y4480D01*
Y3430D02*
Y3518D01*
Y3304D02*
Y3430D01*
Y3955D02*
Y4043D01*
Y3829D02*
Y3955D01*
Y2905D02*
Y2993D01*
Y2780D02*
Y2905D01*
X1020Y3655D02*
Y3781D01*
Y3567D02*
Y3655D01*
Y2605D02*
Y2731D01*
Y2517D02*
Y2605D01*
Y3130D02*
Y3256D01*
Y3042D02*
Y3130D01*
Y4705D02*
Y4831D01*
Y4617D02*
Y4705D01*
Y4180D02*
Y4306D01*
Y4092D02*
Y4180D01*
Y5005D02*
Y5093D01*
Y4879D02*
Y5005D01*
Y3955D02*
Y4043D01*
Y3829D02*
Y3955D01*
Y3430D02*
Y3518D01*
Y3304D02*
Y3430D01*
Y4480D02*
Y4568D01*
Y4354D02*
Y4480D01*
Y2905D02*
Y2993D01*
Y2780D02*
Y2905D01*
X1120Y3655D02*
Y3781D01*
Y3567D02*
Y3655D01*
Y4705D02*
Y4831D01*
Y4617D02*
Y4705D01*
Y2605D02*
Y2731D01*
Y2517D02*
Y2605D01*
Y3130D02*
Y3256D01*
Y3042D02*
Y3130D01*
Y4180D02*
Y4306D01*
Y4092D02*
Y4180D01*
Y5005D02*
Y5093D01*
Y4879D02*
Y5005D01*
Y4480D02*
Y4568D01*
Y4354D02*
Y4480D01*
Y3430D02*
Y3518D01*
Y3304D02*
Y3430D01*
Y3955D02*
Y4043D01*
Y3829D02*
Y3955D01*
Y2905D02*
Y2993D01*
Y2780D02*
Y2905D01*
X1220Y5005D02*
Y5093D01*
Y4879D02*
Y5005D01*
Y3955D02*
Y4043D01*
Y3829D02*
Y3955D01*
Y3430D02*
Y3518D01*
Y3304D02*
Y3430D01*
Y4480D02*
Y4568D01*
Y4354D02*
Y4480D01*
Y2905D02*
Y2993D01*
Y2780D02*
Y2905D01*
X3831Y5176D02*
X3913D01*
X3825D02*
X3831D01*
X3800Y5145D02*
X3831Y5176D01*
X3755Y5100D02*
X3800Y5145D01*
Y5151D01*
Y5018D02*
Y5145D01*
X3755Y4973D02*
Y5100D01*
Y4805D02*
Y4973D01*
Y4605D02*
Y4805D01*
Y4973D02*
X3800Y5018D01*
X3726Y4944D02*
X3755Y4973D01*
X2149Y5170D02*
Y5451D01*
Y5165D02*
Y5170D01*
X2111Y5132D02*
X2149Y5170D01*
X2111Y5127D02*
Y5132D01*
Y4795D02*
Y5127D01*
X2069Y4753D02*
X2111Y4795D01*
X2016Y4700D02*
X2069Y4753D01*
X2111Y5127D02*
X2149Y5165D01*
X2011Y5027D02*
X2111Y5127D01*
X2011Y4811D02*
X2069Y4753D01*
X2085Y4737D01*
X2060Y4375D02*
Y4460D01*
Y4222D02*
Y4375D01*
X2016Y4178D02*
X2060Y4222D01*
X2016Y4178D02*
Y4350D01*
Y4104D02*
Y4178D01*
X3900Y3373D02*
X4018D01*
X3860Y3413D02*
X3900Y3373D01*
X4034Y3239D01*
X1511Y3369D02*
X1560Y3320D01*
X1671Y3209D01*
X3860Y4470D02*
X3949Y4381D01*
X4002Y4328D01*
X3949Y3500D02*
Y4381D01*
X3231Y3362D02*
X3231Y3362D01*
X3280Y3313D01*
X3150Y3362D02*
X3231D01*
X3329Y2206D02*
Y2911D01*
X2460Y4560D02*
X2600Y4700D01*
X2411Y4511D02*
X2460Y4560D01*
X2651Y4369D01*
X3329Y2206D02*
X3424Y2301D01*
X3280Y2157D02*
X3329Y2206D01*
X3368Y3120D02*
Y3819D01*
X3386Y2404D02*
Y3120D01*
X4615Y3107D02*
Y3334D01*
Y2888D02*
Y3107D01*
X4644Y2859D02*
Y3107D01*
X4615Y2888D02*
X4644Y2859D01*
X4728Y2775D01*
X820Y2517D02*
X869Y2468D01*
Y2129D02*
Y2468D01*
X820Y2080D02*
X869Y2129D01*
X771Y5142D02*
X820Y5093D01*
X771Y5142D02*
Y5481D01*
X820Y5530D01*
X5043Y3450D02*
X5275D01*
X5007Y3414D02*
X5043Y3450D01*
X5067Y2450D02*
X5275D01*
X5017Y2400D02*
X5067Y2450D01*
X5017Y2388D02*
Y2400D01*
X5004Y2375D02*
X5017Y2388D01*
X4925Y2375D02*
X5004D01*
X4917Y2383D02*
X4925Y2375D01*
X4917Y2383D02*
Y2752D01*
X4954Y2789D01*
Y2986D01*
X4893Y3047D02*
X4954Y2986D01*
X4967Y2425D02*
X4992Y2450D01*
Y3050D01*
X3710Y2384D02*
X3737Y2357D01*
X3710Y2384D02*
Y3061D01*
X3682Y3089D02*
X3710Y3061D01*
X3682Y3089D02*
Y3861D01*
X3698Y3877D01*
Y4152D01*
X3580Y4270D02*
X3698Y4152D01*
X4623Y2274D02*
X4740Y2157D01*
X4623Y2274D02*
Y2720D01*
X4565Y2778D02*
X4623Y2720D01*
X4565Y2778D02*
Y3288D01*
X4440Y3413D02*
X4565Y3288D01*
X4209Y4039D02*
X4440Y4270D01*
X4209Y3262D02*
Y4039D01*
X4160Y3213D02*
X4209Y3262D01*
X4420Y4290D02*
X4440Y4270D01*
X4400Y4290D02*
X4420D01*
X4293Y4397D02*
X4400Y4290D01*
X4293Y4397D02*
Y4894D01*
X4160Y5027D02*
X4293Y4894D01*
X2624Y5277D02*
X2800D01*
X2374Y5165D02*
X2418D01*
X2209Y5000D02*
X2374Y5165D01*
X2209Y4256D02*
Y5000D01*
X2110Y4157D02*
X2209Y4256D01*
X2410Y3270D02*
X2460Y3220D01*
X2260Y3270D02*
X2410D01*
X2211Y3319D02*
X2260Y3270D01*
X2211Y3319D02*
Y3911D01*
X2260Y3960D01*
X2410Y4210D02*
X2460Y4260D01*
X2325Y4210D02*
X2410D01*
X2311Y4224D02*
X2325Y4210D01*
X2311Y4224D02*
Y4597D01*
X2325Y4611D01*
X2395D01*
X2409Y4625D01*
Y4801D01*
X2417Y4809D01*
X2500D01*
X2540Y4849D01*
Y5371D01*
X2645Y5476D01*
X2798D01*
X2900Y5578D01*
X3300D01*
X3425Y5453D01*
X3454D01*
X3580Y5327D01*
X2648Y2832D02*
X2671Y2855D01*
X2648Y2609D02*
Y2832D01*
Y2609D02*
X2700Y2557D01*
X620Y2517D02*
X669Y2468D01*
Y2129D02*
Y2468D01*
X620Y2080D02*
X669Y2129D01*
X720Y2517D02*
X769Y2468D01*
Y2129D02*
Y2468D01*
X720Y2080D02*
X769Y2129D01*
X671Y5142D02*
X720Y5093D01*
X671Y5142D02*
Y5481D01*
X720Y5530D01*
X920Y2517D02*
X969Y2468D01*
Y2129D02*
Y2468D01*
X920Y2080D02*
X969Y2129D01*
X871Y5142D02*
X920Y5093D01*
X871Y5142D02*
Y5481D01*
X920Y5530D01*
X1020Y2517D02*
X1069Y2468D01*
Y2129D02*
Y2468D01*
X1020Y2080D02*
X1069Y2129D01*
X971Y5142D02*
X1020Y5093D01*
X971Y5142D02*
Y5481D01*
X1020Y5530D01*
X1120Y2517D02*
X1169Y2468D01*
Y2129D02*
Y2468D01*
X1120Y2080D02*
X1169Y2129D01*
X1071Y5142D02*
X1120Y5093D01*
X1071Y5142D02*
Y5481D01*
X1120Y5530D01*
X1171Y5142D02*
X1220Y5093D01*
X1171Y5142D02*
Y5481D01*
X1220Y5530D01*
X4160Y4370D02*
X4209Y4419D01*
Y4769D01*
X4111Y4867D02*
X4209Y4769D01*
X4111Y4867D02*
Y5050D01*
X4138Y5077D01*
X4204D01*
X4221Y5094D01*
Y5509D01*
X4244Y5532D01*
X1951Y5451D02*
X2000Y5500D01*
X1951Y5049D02*
Y5451D01*
X1911Y5009D02*
X1951Y5049D01*
X1911Y4835D02*
Y5009D01*
Y4835D02*
X1987Y4759D01*
X3726Y4805D02*
Y4944D01*
X3800Y5151D02*
X3825Y5176D01*
X3531Y4219D02*
X3580Y4170D01*
X3531Y4219D02*
Y4500D01*
X3550Y4519D01*
X3669D01*
X3755Y4605D01*
X2066Y3187D02*
X2069Y3190D01*
Y3511D01*
X2060Y3520D02*
X2069Y3511D01*
X4740Y2057D02*
Y2092D01*
X4690Y2107D02*
X4740Y2092D01*
X4440Y2357D02*
X4690Y2107D01*
X4740Y5227D02*
X4762Y5204D01*
X4785D01*
X4865Y5124D01*
Y4997D02*
Y5124D01*
X3106Y2482D02*
Y3163D01*
X3049Y3220D02*
X3106Y3163D01*
X3049Y3220D02*
Y3650D01*
X2995Y3704D02*
X3049Y3650D01*
X2950Y3704D02*
X2995D01*
X2875Y3779D02*
X2950Y3704D01*
X2875Y3779D02*
Y3843D01*
X2892Y3860D01*
Y4324D01*
X2832Y4385D02*
X2892Y4324D01*
X2832Y4385D02*
Y4438D01*
X2700Y4570D02*
X2832Y4438D01*
X4699Y4370D02*
X4740D01*
X4575Y4247D02*
X4699Y4370D01*
X4575Y3742D02*
Y4247D01*
Y3742D02*
X4613Y3704D01*
Y3387D02*
Y3704D01*
Y3387D02*
X4666Y3334D01*
Y3160D02*
Y3334D01*
Y3160D02*
X4691Y3135D01*
Y2889D02*
Y3135D01*
Y2889D02*
X4789Y2791D01*
Y2406D02*
Y2791D01*
X4740Y2357D02*
X4789Y2406D01*
X1663Y3005D02*
Y3133D01*
Y3005D02*
X1711Y2957D01*
Y2553D02*
Y2957D01*
Y2553D02*
X1829Y2435D01*
Y2149D02*
Y2435D01*
X1780Y2100D02*
X1829Y2149D01*
X2926Y2231D02*
X3000Y2157D01*
X2926Y2231D02*
Y2590D01*
X2943Y2607D01*
X4892Y2339D02*
X4954Y2277D01*
X4892Y2339D02*
Y2777D01*
X4929Y2814D01*
Y2935D01*
X4845Y3019D02*
X4929Y2935D01*
X4845Y3019D02*
Y3069D01*
X4875Y3099D01*
X4996D01*
X5022Y3125D01*
Y3208D01*
X4928Y3302D02*
X5022Y3208D01*
X4928Y3302D02*
Y3649D01*
X5008Y3729D01*
X3412Y3513D02*
Y4922D01*
X3358Y4976D02*
X3412Y4922D01*
X3250Y4976D02*
X3358D01*
X3231Y4995D02*
X3250Y4976D01*
X3231Y4995D02*
Y5050D01*
X3258Y5077D01*
X3530D01*
X3580Y5127D01*
X2553Y3218D02*
Y4123D01*
X3654Y3154D02*
Y3946D01*
X3613Y3113D02*
X3654Y3154D01*
X3580Y3113D02*
X3613D01*
X2850Y3163D02*
X3000Y3013D01*
X2850Y3163D02*
Y3962D01*
X2867Y3979D01*
Y4296D01*
X2764Y4399D02*
X2867Y4296D01*
X2016Y4350D02*
X2041Y4375D01*
X4590Y2829D02*
X4669Y2750D01*
X4590Y2829D02*
Y3323D01*
X4563Y3350D02*
X4590Y3323D01*
X4563Y3350D02*
Y3369D01*
X4467Y3464D02*
X4563Y3369D01*
X4315Y3464D02*
X4467D01*
X4029Y5133D02*
X4066Y5170D01*
Y5228D01*
X4050Y5244D02*
X4066Y5228D01*
X4000Y5244D02*
X4050D01*
X3957Y5201D02*
X4000Y5244D01*
X3957Y4735D02*
Y5201D01*
X3938Y4716D02*
X3957Y4735D01*
X3922Y4716D02*
X3938D01*
X3811Y4605D02*
X3922Y4716D01*
X3811Y4569D02*
Y4605D01*
X3786Y4544D02*
X3811Y4569D01*
X3786Y4050D02*
Y4544D01*
Y4050D02*
X3815Y4021D01*
X3892D01*
X3909Y4037D01*
Y4321D01*
X3860Y4370D02*
X3909Y4321D01*
X4034Y2625D02*
Y3239D01*
Y2625D02*
X4051Y2608D01*
X4192D01*
X4209Y2625D01*
Y2832D01*
X4159Y2882D02*
X4209Y2832D01*
X1760Y3118D02*
X1837Y3041D01*
X1760Y3118D02*
Y3150D01*
X1701Y3209D02*
X1760Y3150D01*
X1671Y3209D02*
X1701D01*
X4045Y3657D02*
X4064Y3676D01*
X4045Y3400D02*
Y3657D01*
X4018Y3373D02*
X4045Y3400D01*
X1510Y4510D02*
X1560Y4460D01*
X1510Y4510D02*
Y5085D01*
X1313Y5282D02*
X1510Y5085D01*
X1313Y5282D02*
Y5348D01*
X3448Y5506D02*
X3527Y5427D01*
X3580D01*
X2675Y4045D02*
X2700Y4070D01*
X2646Y4045D02*
X2675D01*
X2597Y3996D02*
X2646Y4045D01*
X2597Y3199D02*
Y3996D01*
X2572Y3174D02*
X2597Y3199D01*
X2572Y2742D02*
Y3174D01*
X2280Y2450D02*
X2572Y2742D01*
X2241Y2450D02*
X2280D01*
X2229Y2438D02*
X2241Y2450D01*
X2229Y2283D02*
Y2438D01*
X2080Y2134D02*
X2229Y2283D01*
X2080Y2100D02*
Y2134D01*
X4002Y4121D02*
Y4328D01*
X4278Y5330D02*
Y5355D01*
X4400Y5477D01*
X4465D01*
X4489Y5453D01*
Y5191D02*
Y5453D01*
X4475Y5177D02*
X4489Y5191D01*
X4418Y5177D02*
X4475D01*
X4391Y5150D02*
X4418Y5177D01*
X4391Y4772D02*
Y5150D01*
Y4772D02*
X4489Y4674D01*
Y4434D02*
Y4674D01*
X4475Y4420D02*
X4489Y4434D01*
X4411Y4420D02*
X4475D01*
X4391Y4400D02*
X4411Y4420D01*
X4391Y4338D02*
Y4400D01*
Y4338D02*
X4407Y4321D01*
X4523D01*
X4622Y4420D01*
X4775D01*
X4789Y4406D01*
Y4334D02*
Y4406D01*
X4774Y4319D02*
X4789Y4334D01*
X4710Y4319D02*
X4774D01*
X4691Y4300D02*
X4710Y4319D01*
X4691Y3760D02*
Y4300D01*
Y3760D02*
X4789Y3662D01*
Y3278D02*
Y3662D01*
X4775Y3264D02*
X4789Y3278D01*
X4705Y3264D02*
X4775D01*
X4691Y3250D02*
X4705Y3264D01*
X4691Y3179D02*
Y3250D01*
Y3179D02*
X4706Y3164D01*
X4726D01*
X4740Y3150D01*
Y3113D02*
Y3150D01*
X3309Y2931D02*
X3329Y2911D01*
X2509Y3041D02*
X2528Y3022D01*
X2509Y3041D02*
Y4288D01*
X2487Y4310D02*
X2509Y4288D01*
X2425Y4310D02*
X2487D01*
X2411Y4324D02*
X2425Y4310D01*
X2411Y4324D02*
Y4511D01*
X3510Y3283D02*
X3580Y3213D01*
X3510Y3283D02*
Y3319D01*
X3998Y3418D02*
Y4004D01*
X4046Y4052D01*
Y4220D01*
X2110Y3312D02*
X2136Y3338D01*
X2110Y2536D02*
Y3312D01*
X2031Y2457D02*
X2110Y2536D01*
X2031Y2210D02*
Y2457D01*
X1980Y2159D02*
X2031Y2210D01*
X1980Y2100D02*
Y2159D01*
X1792Y5392D02*
X1900Y5500D01*
X1270Y5392D02*
X1792D01*
X1253Y5291D02*
X1270Y5392D01*
X1253Y5291D02*
X1342Y5202D01*
Y4845D02*
Y5202D01*
Y4845D02*
X1346Y2741D01*
X1629Y2458D01*
X3754Y2591D02*
X3763Y2600D01*
Y2926D01*
X4772Y2896D02*
X4791Y2915D01*
Y3233D01*
X4817Y3259D01*
Y3682D01*
X4740Y3759D02*
X4817Y3682D01*
X4740Y3759D02*
Y3970D01*
X3202Y4448D02*
X3280Y4370D01*
X3202Y4448D02*
Y4816D01*
X3280Y5027D02*
X3344D01*
X3456Y4915D01*
Y3637D02*
Y4915D01*
Y3637D02*
X3580Y3513D01*
X4440Y2557D02*
X4489Y2606D01*
Y2736D01*
X4435Y2790D02*
X4489Y2736D01*
X4435Y2790D02*
Y2834D01*
X4489Y2888D01*
Y3050D01*
X4476Y3063D02*
X4489Y3050D01*
X4400Y3063D02*
X4476D01*
X4346Y3117D02*
X4400Y3063D01*
X4346Y3117D02*
Y3175D01*
X4314Y3207D02*
X4346Y3175D01*
X4290Y3207D02*
X4314D01*
X4233Y3150D02*
X4290Y3207D01*
X4233Y3006D02*
Y3150D01*
Y3006D02*
X4234Y3005D01*
Y2450D02*
Y3005D01*
X4191Y2407D02*
X4234Y2450D01*
X4010Y2407D02*
X4191D01*
X3949Y2468D02*
X4010Y2407D01*
X3949Y2468D02*
Y3008D01*
X3894Y3063D02*
X3949Y3008D01*
X3800Y3063D02*
X3894D01*
X3726Y3137D02*
X3800Y3063D01*
X3726Y3137D02*
Y3513D01*
X3176Y3317D02*
X3280Y3213D01*
X3329Y3262D01*
Y3871D01*
X3354Y3896D01*
Y4396D01*
X3280Y4470D02*
X3354Y4396D01*
X3711Y5017D02*
Y5278D01*
X3860Y5427D01*
X3368Y3819D02*
X3379Y3830D01*
Y4868D01*
X3345Y4902D02*
X3379Y4868D01*
X4691Y2408D02*
X4740Y2457D01*
X4691Y2325D02*
Y2408D01*
Y2325D02*
X4709Y2307D01*
X4814D01*
X4819Y3222D01*
X4850Y3253D01*
Y4837D01*
X4909Y4896D01*
Y5312D01*
X4847Y5374D02*
X4909Y5312D01*
X2761Y4019D02*
X2798Y4056D01*
X2670Y4019D02*
X2761D01*
X2651Y4000D02*
X2670Y4019D01*
X2651Y3487D02*
Y4000D01*
Y3487D02*
X2674Y3464D01*
X2735D01*
X2749Y3450D01*
Y3387D02*
Y3450D01*
X2725Y3363D02*
X2749Y3387D01*
X2664Y3363D02*
X2725D01*
X2651Y3350D02*
X2664Y3363D01*
X2651Y2906D02*
Y3350D01*
X2623Y2878D02*
X2651Y2906D01*
X2623Y2622D02*
Y2878D01*
X2180Y2179D02*
X2623Y2622D01*
X2180Y2100D02*
Y2179D01*
X2265Y4510D02*
Y4750D01*
X2326Y4811D01*
X2380D01*
X2409Y4840D01*
Y5067D01*
X2462Y5120D01*
Y5238D01*
X2249Y5451D02*
X2462Y5238D01*
X2249Y5451D02*
Y5525D01*
X2225Y5549D02*
X2249Y5525D01*
X1849Y5549D02*
X2225D01*
X1800Y5500D02*
X1849Y5549D01*
X2651Y4419D02*
X2700Y4370D01*
X2651Y4419D02*
Y4600D01*
X2687Y4636D01*
X2853D01*
X2857Y4632D01*
Y4410D02*
Y4632D01*
Y4410D02*
X2917Y4349D01*
Y3960D02*
Y4349D01*
Y3960D02*
X3164Y3713D01*
X3120Y5167D02*
X3280Y5327D01*
X3120Y3884D02*
Y5167D01*
Y3884D02*
X3208Y3796D01*
Y3687D02*
Y3796D01*
X3102Y3581D02*
X3208Y3687D01*
X3102Y3396D02*
Y3581D01*
X4292Y3918D02*
X4585Y3625D01*
Y3466D02*
Y3625D01*
Y3466D02*
X4588Y3463D01*
Y3362D02*
Y3463D01*
Y3362D02*
X4615Y3334D01*
X4691Y2606D02*
X4740Y2557D01*
X4691Y2606D02*
Y2684D01*
X4728Y2721D01*
Y2775D01*
X4789Y3804D02*
Y4221D01*
X4740Y4270D02*
X4789Y4221D01*
X2398Y2154D02*
X2700Y2457D01*
X2260Y2154D02*
X2398D01*
X2231Y2125D02*
X2260Y2154D01*
X2231Y2069D02*
Y2125D01*
X2188Y2026D02*
X2231Y2069D01*
X1775Y2026D02*
X2188D01*
X1731Y2070D02*
X1775Y2026D01*
X1731Y2070D02*
Y2449D01*
X1610Y2570D02*
X1731Y2449D01*
X1610Y2570D02*
Y3050D01*
X1590Y3070D02*
X1610Y3050D01*
X1425Y3070D02*
X1590D01*
X1379Y3116D02*
X1425Y3070D01*
X1379Y3116D02*
Y4854D01*
X1367Y4866D02*
X1379Y4854D01*
X1367Y4866D02*
Y4940D01*
X1406Y4979D01*
X1420D01*
X2080Y2175D02*
Y2400D01*
X2031Y2126D02*
X2080Y2175D01*
X2031Y2069D02*
Y2126D01*
X2013Y2051D02*
X2031Y2069D01*
X1950Y2051D02*
X2013D01*
X1931Y2070D02*
X1950Y2051D01*
X1931Y2070D02*
Y2449D01*
X1760Y2620D02*
X1931Y2449D01*
X3506Y4044D02*
X3580Y3970D01*
X3506Y4044D02*
Y4754D01*
X3629Y4877D01*
Y5150D01*
X3602Y5177D02*
X3629Y5150D01*
X3522Y5177D02*
X3602D01*
X3322Y5377D02*
X3522Y5177D01*
X3250Y5377D02*
X3322D01*
X3131Y5496D02*
X3250Y5377D01*
X2663Y3413D02*
X2700D01*
X2625Y3375D02*
X2663Y3413D01*
X2625Y3166D02*
Y3375D01*
X2598Y3139D02*
X2625Y3166D01*
X2598Y2718D02*
Y3139D01*
X2280Y2400D02*
X2598Y2718D01*
X4111Y3364D02*
X4160Y3413D01*
X4111Y3177D02*
Y3364D01*
Y3177D02*
X4125Y3163D01*
X4200D01*
X4269Y3232D01*
X4331D01*
X4400Y3163D01*
X4476D01*
X4514Y3125D01*
Y2865D02*
Y3125D01*
Y2865D02*
X4540Y2839D01*
Y2352D02*
Y2839D01*
Y2352D02*
X4579Y2313D01*
X4691Y5378D02*
X4740Y5427D01*
X4691Y5198D02*
Y5378D01*
Y5198D02*
X4713Y5176D01*
X4763D01*
X4789Y5150D01*
Y4745D02*
Y5150D01*
X4377Y3276D02*
X4440Y3213D01*
X4275Y3276D02*
X4377D01*
X4246Y3305D02*
X4275Y3276D01*
X4246Y3305D02*
Y3988D01*
X4307Y4049D01*
X3487Y2650D02*
Y2991D01*
Y2650D02*
X3580Y2557D01*
X1560Y4360D02*
X1711Y4209D01*
Y3250D02*
Y4209D01*
Y3250D02*
X1881Y3080D01*
Y2838D02*
Y3080D01*
Y2838D02*
X1949Y2769D01*
X2011D01*
X2060Y2720D01*
X2100Y5500D02*
X2149Y5451D01*
X2011Y4811D02*
Y5027D01*
X2085Y4197D02*
Y4737D01*
X2066Y4178D02*
X2085Y4197D01*
X2066Y4125D02*
Y4178D01*
Y4125D02*
X2082Y4109D01*
X2388D01*
X2409Y4088D01*
Y3814D02*
Y4088D01*
X4300Y3513D02*
X4440D01*
X4271Y3484D02*
X4300Y3513D01*
X4271Y3357D02*
Y3484D01*
Y3357D02*
X4308Y3320D01*
X4302Y3075D02*
X4327Y3050D01*
Y2134D02*
Y3050D01*
X4250Y2057D02*
X4327Y2134D01*
X4160Y2057D02*
X4250D01*
X5058Y5150D02*
X5275D01*
X5008Y5100D02*
X5058Y5150D01*
X5008Y4928D02*
Y5100D01*
X3811Y4119D02*
X3860Y4070D01*
X3811Y4119D02*
Y4505D01*
X3825Y4519D01*
X3920D01*
X3985Y4584D01*
Y5163D02*
X4022Y5200D01*
X4640Y3414D02*
X4740Y3313D01*
X4640Y3414D02*
Y4145D01*
X4623Y4162D02*
X4640Y4145D01*
X4479Y2809D02*
X4515Y2773D01*
Y2446D02*
Y2773D01*
X4475Y2406D02*
X4515Y2446D01*
X4410Y2406D02*
X4475D01*
X4391Y2388D02*
X4410Y2406D01*
X4391Y2206D02*
Y2388D01*
Y2206D02*
X4440Y2157D01*
X2768Y5027D02*
X2847Y4948D01*
X2700Y5027D02*
X2768D01*
X2819Y2720D02*
Y3989D01*
X2842Y4012D01*
Y4100D01*
X2821Y4121D02*
X2842Y4100D01*
X2650Y4121D02*
X2821D01*
X2599Y4172D02*
X2650Y4121D01*
X2599Y4172D02*
Y4321D01*
X2460Y4460D02*
X2599Y4321D01*
X2460Y4760D02*
X2542D01*
X2566Y4784D01*
Y5000D01*
X2642Y5076D01*
X2723D01*
X2861Y5214D01*
Y5400D01*
X2937Y5476D01*
X3023D01*
X3049Y5450D01*
Y4976D02*
Y5450D01*
X3000Y4927D02*
X3049Y4976D01*
X4332Y5318D02*
X4440Y5427D01*
X4332Y5134D02*
Y5318D01*
X4224Y5027D02*
X4332Y5134D01*
X4160Y5027D02*
X4224D01*
X1911Y4328D02*
X2016Y4433D01*
X1911Y3288D02*
Y4328D01*
Y3288D02*
X1975Y3224D01*
Y2816D02*
Y3224D01*
X1660Y4860D02*
X2060Y4460D01*
X2016Y4104D02*
X2060Y4060D01*
X3860Y5527D02*
Y5569D01*
X3875Y5584D01*
X4755D01*
X4805Y5535D01*
Y5492D02*
Y5535D01*
Y5492D02*
X4964Y5333D01*
Y4796D02*
Y5333D01*
Y4796D02*
X5110Y4650D01*
X5275D01*
X3481Y4928D02*
X3580Y5027D01*
X3481Y3873D02*
Y4928D01*
Y3873D02*
X3629Y3725D01*
Y3392D02*
Y3725D01*
X3600Y3363D02*
X3629Y3392D01*
X3481Y3363D02*
X3600D01*
X3430Y3312D02*
X3481Y3363D01*
X3430Y3095D02*
Y3312D01*
X3418Y3083D02*
X3430Y3095D01*
X3418Y2443D02*
Y3083D01*
Y2443D02*
X3455Y2405D01*
Y2350D02*
Y2405D01*
X3440Y2335D02*
X3455Y2350D01*
X3369Y2335D02*
X3440D01*
X3354Y2350D02*
X3369Y2335D01*
X3354Y2350D02*
Y3039D01*
X3330Y3063D02*
X3354Y3039D01*
X3250Y3063D02*
X3330D01*
X3192Y3005D02*
X3250Y3063D01*
X3192Y2399D02*
Y3005D01*
X3150Y2357D02*
X3192Y2399D01*
X3000Y2357D02*
X3150D01*
X4340Y4570D02*
X4440Y4470D01*
X4896Y3232D02*
Y4020D01*
Y3232D02*
X4978Y3150D01*
X4954Y3495D02*
X4972Y3513D01*
X4954Y3344D02*
Y3495D01*
Y3344D02*
X5051Y3247D01*
Y2662D02*
Y3247D01*
Y2662D02*
X5063Y2650D01*
X5275D01*
X3665Y2221D02*
X3754Y2132D01*
X3665Y2221D02*
Y2835D01*
X3531Y2969D02*
X3665Y2835D01*
X3531Y2969D02*
Y3150D01*
X3545Y3164D01*
X3612D01*
X3629Y3181D01*
Y3264D01*
X3580Y3313D02*
X3629Y3264D01*
X3000Y3213D02*
X3049Y3164D01*
Y2838D02*
Y3164D01*
X3556Y2838D02*
X3629Y2765D01*
Y2206D02*
Y2765D01*
X3580Y2157D02*
X3629Y2206D01*
X1922Y4700D02*
X2016D01*
X1811Y4811D02*
X1922Y4700D01*
X1811Y4811D02*
Y4988D01*
X1789Y5009D02*
X1811Y4988D01*
X1709Y5009D02*
X1789D01*
X1660Y4960D02*
X1709Y5009D01*
X1411Y4425D02*
Y4909D01*
Y4425D02*
X1425Y4411D01*
X1487D01*
X1511Y4387D01*
Y3369D02*
Y4387D01*
X1460Y3220D02*
X1510Y3170D01*
X1612D01*
X1619Y3177D01*
X1692D01*
X1707Y3162D01*
Y3091D02*
Y3162D01*
Y3091D02*
X1853Y2945D01*
Y2825D02*
Y2945D01*
Y2825D02*
X1909Y2769D01*
Y2671D02*
Y2769D01*
Y2671D02*
X1960Y2620D01*
X1931Y2997D02*
Y3104D01*
X1811Y3224D02*
X1931Y3104D01*
X1811Y3224D02*
Y3571D01*
X1860Y3620D01*
X4258Y3094D02*
X4302Y3138D01*
X4258Y3031D02*
Y3094D01*
Y3031D02*
X4302Y2987D01*
Y2209D02*
Y2987D01*
X4200Y2107D02*
X4302Y2209D01*
X4010Y2107D02*
X4200D01*
X3860Y2257D02*
X4010Y2107D01*
X3860Y2457D02*
X4111Y2206D01*
X2942Y4128D02*
X3000Y4070D01*
X2942Y4128D02*
Y4374D01*
X2891Y4425D02*
X2942Y4374D01*
X2891Y4425D02*
Y5318D01*
X3000Y5427D01*
X3386Y2404D02*
X3411Y2379D01*
X3424Y2301D02*
X3450D01*
X3480Y2331D01*
Y2448D01*
X3443Y2486D02*
X3480Y2448D01*
X3443Y2486D02*
Y3026D01*
X3455Y3038D01*
Y3150D01*
X3518Y3213D01*
X3580D01*
X3231Y3362D02*
Y3675D01*
X3242Y3686D01*
Y3834D01*
X3329Y3921D01*
Y4091D01*
X3300Y4120D02*
X3329Y4091D01*
X3212Y4120D02*
X3300D01*
X2901Y2157D02*
X2951Y2107D01*
X3031D01*
X3049Y2125D01*
Y2287D01*
X3030Y2306D02*
X3049Y2287D01*
X2952Y2306D02*
X3030D01*
X2951Y2307D02*
X2952Y2306D01*
X2951Y2307D02*
Y2388D01*
X2970Y2406D01*
X3138D01*
X3157Y2425D01*
Y2554D01*
X3132Y2579D02*
X3157Y2554D01*
X3132Y2579D02*
Y3344D01*
X3150Y3362D01*
X3786Y4953D02*
X3860Y5027D01*
X3786Y4593D02*
Y4953D01*
X3663Y4470D02*
X3786Y4593D01*
X3580Y4470D02*
X3663D01*
X5067Y4150D02*
X5275D01*
X5067Y3685D02*
Y4150D01*
X2060Y3960D02*
X2109Y4009D01*
X2287D01*
X2309Y3987D01*
Y3671D02*
Y3987D01*
Y3671D02*
X2360Y3620D01*
X4894Y4375D02*
X4919Y4350D01*
X5275D01*
X4489Y4770D02*
Y5078D01*
X4440Y5127D02*
X4489Y5078D01*
X4609Y4996D02*
X4740Y5127D01*
X4609Y4485D02*
Y4996D01*
X4494Y4370D02*
X4609Y4485D01*
X4440Y4370D02*
X4494D01*
X3723Y3650D02*
X3860Y3513D01*
X3723Y3650D02*
Y4227D01*
X3580Y4370D02*
X3723Y4227D01*
X4009Y2608D02*
X4160Y2457D01*
X4009Y2608D02*
Y3153D01*
X3899Y3263D02*
X4009Y3153D01*
X3825Y3263D02*
X3899D01*
X3811Y3277D02*
X3825Y3263D01*
X3811Y3277D02*
Y3450D01*
X3824Y3463D01*
X3912D01*
X3949Y3500D01*
X2651Y4219D02*
X2700Y4170D01*
X2651Y4219D02*
Y4369D01*
X2600Y4927D02*
X2700Y5027D01*
X2600Y4700D02*
Y4927D01*
X1960Y3620D02*
Y3960D01*
X2160Y2520D02*
Y2620D01*
Y2520D02*
X2180Y2500D01*
Y2400D02*
Y2500D01*
X1960Y2520D02*
Y2620D01*
Y2520D02*
X1980Y2500D01*
Y2400D02*
Y2500D01*
X820Y2731D02*
X869Y2780D01*
Y2993D01*
X820Y3042D02*
X869Y2993D01*
X820Y3256D02*
X869Y3305D01*
Y3518D01*
X820Y3567D02*
X869Y3518D01*
X820Y3781D02*
X869Y3830D01*
Y4043D01*
X820Y4092D02*
X869Y4043D01*
X820Y4306D02*
X869Y4355D01*
Y4568D01*
X820Y4617D02*
X869Y4568D01*
X820Y4831D02*
X869Y4880D01*
Y5093D01*
X820Y5142D02*
X869Y5093D01*
X820Y5142D02*
Y5230D01*
X771Y2731D02*
X820Y2780D01*
X771Y2517D02*
Y2731D01*
Y2517D02*
X820Y2468D01*
Y2380D02*
Y2468D01*
X771Y3042D02*
X820Y2993D01*
X771Y3042D02*
Y3255D01*
X820Y3304D01*
X771Y3567D02*
X820Y3518D01*
X771Y3567D02*
Y3780D01*
X820Y3829D01*
X771Y4092D02*
X820Y4043D01*
X771Y4092D02*
Y4305D01*
X820Y4354D01*
X771Y4617D02*
X820Y4568D01*
X771Y4617D02*
Y4830D01*
X820Y4879D01*
X620Y3781D02*
X669Y3830D01*
Y4043D01*
X620Y4092D02*
X669Y4043D01*
X620Y4306D02*
X669Y4355D01*
Y4568D01*
X620Y4617D02*
X669Y4568D01*
X620Y4831D02*
X669Y4880D01*
Y5093D01*
X620Y5142D02*
X669Y5093D01*
X620Y5142D02*
Y5230D01*
Y3567D02*
X669Y3518D01*
Y3304D02*
Y3518D01*
X620Y3255D02*
X669Y3304D01*
X620Y3042D02*
X669Y2993D01*
Y2779D02*
Y2993D01*
X620Y2730D02*
X669Y2779D01*
X720Y2731D02*
X769Y2780D01*
Y2993D01*
X720Y3042D02*
X769Y2993D01*
X720Y3256D02*
X769Y3305D01*
Y3518D01*
X720Y3567D02*
X769Y3518D01*
X720Y3781D02*
X769Y3830D01*
Y4043D01*
X720Y4092D02*
X769Y4043D01*
X720Y4306D02*
X769Y4355D01*
Y4568D01*
X720Y4617D02*
X769Y4568D01*
X720Y4831D02*
X769Y4880D01*
Y5093D01*
X720Y5142D02*
X769Y5093D01*
X720Y5142D02*
Y5230D01*
X671Y2731D02*
X720Y2780D01*
X671Y2517D02*
Y2731D01*
Y2517D02*
X720Y2468D01*
Y2380D02*
Y2468D01*
X671Y3042D02*
X720Y2993D01*
X671Y3042D02*
Y3255D01*
X720Y3304D01*
X671Y3567D02*
X720Y3518D01*
X671Y3567D02*
Y3780D01*
X720Y3829D01*
X671Y4092D02*
X720Y4043D01*
X671Y4092D02*
Y4305D01*
X720Y4354D01*
X671Y4617D02*
X720Y4568D01*
X671Y4617D02*
Y4830D01*
X720Y4879D01*
X920Y2731D02*
X969Y2780D01*
Y2993D01*
X920Y3042D02*
X969Y2993D01*
X920Y3256D02*
X969Y3305D01*
Y3518D01*
X920Y3567D02*
X969Y3518D01*
X920Y3781D02*
X969Y3830D01*
Y4043D01*
X920Y4092D02*
X969Y4043D01*
X920Y4306D02*
X969Y4355D01*
Y4568D01*
X920Y4617D02*
X969Y4568D01*
X920Y4831D02*
X969Y4880D01*
Y5093D01*
X920Y5142D02*
X969Y5093D01*
X920Y5142D02*
Y5230D01*
X871Y2731D02*
X920Y2780D01*
X871Y2517D02*
Y2731D01*
Y2517D02*
X920Y2468D01*
Y2380D02*
Y2468D01*
X871Y3042D02*
X920Y2993D01*
X871Y3042D02*
Y3255D01*
X920Y3304D01*
X871Y3567D02*
X920Y3518D01*
X871Y3567D02*
Y3780D01*
X920Y3829D01*
X871Y4092D02*
X920Y4043D01*
X871Y4092D02*
Y4305D01*
X920Y4354D01*
X871Y4617D02*
X920Y4568D01*
X871Y4617D02*
Y4830D01*
X920Y4879D01*
X1020Y2731D02*
X1069Y2780D01*
Y2993D01*
X1020Y3042D02*
X1069Y2993D01*
X1020Y3256D02*
X1069Y3305D01*
Y3518D01*
X1020Y3567D02*
X1069Y3518D01*
X1020Y3781D02*
X1069Y3830D01*
Y4043D01*
X1020Y4092D02*
X1069Y4043D01*
X1020Y4306D02*
X1069Y4355D01*
Y4568D01*
X1020Y4617D02*
X1069Y4568D01*
X1020Y4831D02*
X1069Y4880D01*
Y5093D01*
X1020Y5142D02*
X1069Y5093D01*
X1020Y5142D02*
Y5230D01*
X971Y2731D02*
X1020Y2780D01*
X971Y2517D02*
Y2731D01*
Y2517D02*
X1020Y2468D01*
Y2380D02*
Y2468D01*
X971Y3042D02*
X1020Y2993D01*
X971Y3042D02*
Y3255D01*
X1020Y3304D01*
X971Y3567D02*
X1020Y3518D01*
X971Y3567D02*
Y3780D01*
X1020Y3829D01*
X971Y4092D02*
X1020Y4043D01*
X971Y4092D02*
Y4305D01*
X1020Y4354D01*
X971Y4617D02*
X1020Y4568D01*
X971Y4617D02*
Y4830D01*
X1020Y4879D01*
X1120Y2731D02*
X1169Y2780D01*
Y2993D01*
X1120Y3042D02*
X1169Y2993D01*
X1120Y3256D02*
X1169Y3305D01*
Y3518D01*
X1120Y3567D02*
X1169Y3518D01*
X1120Y3781D02*
X1169Y3830D01*
Y4043D01*
X1120Y4092D02*
X1169Y4043D01*
X1120Y4306D02*
X1169Y4355D01*
Y4568D01*
X1120Y4617D02*
X1169Y4568D01*
X1120Y4831D02*
X1169Y4880D01*
Y5093D01*
X1120Y5142D02*
X1169Y5093D01*
X1120Y5142D02*
Y5230D01*
X1071Y2731D02*
X1120Y2780D01*
X1071Y2517D02*
Y2731D01*
Y2517D02*
X1120Y2468D01*
Y2380D02*
Y2468D01*
X1071Y3042D02*
X1120Y2993D01*
X1071Y3042D02*
Y3255D01*
X1120Y3304D01*
X1071Y3567D02*
X1120Y3518D01*
X1071Y3567D02*
Y3780D01*
X1120Y3829D01*
X1071Y4092D02*
X1120Y4043D01*
X1071Y4092D02*
Y4305D01*
X1120Y4354D01*
X1071Y4617D02*
X1120Y4568D01*
X1071Y4617D02*
Y4830D01*
X1120Y4879D01*
X1171Y2731D02*
X1220Y2780D01*
X1171Y2517D02*
Y2731D01*
Y2517D02*
X1220Y2468D01*
Y2380D02*
Y2468D01*
X1171Y3042D02*
X1220Y2993D01*
X1171Y3042D02*
Y3255D01*
X1220Y3304D01*
X1171Y3567D02*
X1220Y3518D01*
X1171Y3567D02*
Y3780D01*
X1220Y3829D01*
X1171Y4092D02*
X1220Y4043D01*
X1171Y4092D02*
Y4305D01*
X1220Y4354D01*
X1171Y4617D02*
X1220Y4568D01*
X1171Y4617D02*
Y4830D01*
X1220Y4879D01*
D13*
X2300Y5500D02*
D03*
X2280Y2400D02*
D03*
X1220Y5530D02*
D03*
Y5005D02*
D03*
Y4480D02*
D03*
Y3955D02*
D03*
Y3430D02*
D03*
Y2905D02*
D03*
Y2380D02*
D03*
X1560Y3960D02*
D03*
Y2620D02*
D03*
D14*
X2200Y5500D02*
D03*
X2100D02*
D03*
X2000D02*
D03*
X1900D02*
D03*
X1800D02*
D03*
X1700D02*
D03*
Y5200D02*
D03*
X1800D02*
D03*
X1900D02*
D03*
X2000D02*
D03*
X2100D02*
D03*
X2200D02*
D03*
X2300D02*
D03*
X3000Y5027D02*
D03*
Y5127D02*
D03*
Y5227D02*
D03*
Y5327D02*
D03*
Y5427D02*
D03*
Y5527D02*
D03*
X2700D02*
D03*
Y5427D02*
D03*
Y5327D02*
D03*
Y5227D02*
D03*
Y5127D02*
D03*
Y5027D02*
D03*
Y4927D02*
D03*
X3580Y5027D02*
D03*
Y5127D02*
D03*
Y5227D02*
D03*
Y5327D02*
D03*
Y5427D02*
D03*
Y5527D02*
D03*
X3280D02*
D03*
Y5427D02*
D03*
Y5327D02*
D03*
Y5227D02*
D03*
Y5127D02*
D03*
Y5027D02*
D03*
Y4927D02*
D03*
X4160Y5027D02*
D03*
Y5127D02*
D03*
Y5227D02*
D03*
Y5327D02*
D03*
Y5427D02*
D03*
Y5527D02*
D03*
X3860D02*
D03*
Y5427D02*
D03*
Y5327D02*
D03*
Y5227D02*
D03*
Y5127D02*
D03*
Y5027D02*
D03*
Y4927D02*
D03*
X4740Y5027D02*
D03*
Y5127D02*
D03*
Y5227D02*
D03*
Y5327D02*
D03*
Y5427D02*
D03*
Y5527D02*
D03*
X4440D02*
D03*
Y5427D02*
D03*
Y5327D02*
D03*
Y5227D02*
D03*
Y5127D02*
D03*
Y5027D02*
D03*
Y4927D02*
D03*
X3000Y4070D02*
D03*
Y4170D02*
D03*
Y4270D02*
D03*
Y4370D02*
D03*
Y4470D02*
D03*
Y4570D02*
D03*
X2700D02*
D03*
Y4470D02*
D03*
Y4370D02*
D03*
Y4270D02*
D03*
Y4170D02*
D03*
Y4070D02*
D03*
Y3970D02*
D03*
X3580Y4070D02*
D03*
Y4170D02*
D03*
Y4270D02*
D03*
Y4370D02*
D03*
Y4470D02*
D03*
Y4570D02*
D03*
X3280D02*
D03*
Y4470D02*
D03*
Y4370D02*
D03*
Y4270D02*
D03*
Y4170D02*
D03*
Y4070D02*
D03*
Y3970D02*
D03*
X4160Y4070D02*
D03*
Y4170D02*
D03*
Y4270D02*
D03*
Y4370D02*
D03*
Y4470D02*
D03*
Y4570D02*
D03*
X3860D02*
D03*
Y4470D02*
D03*
Y4370D02*
D03*
Y4270D02*
D03*
Y4170D02*
D03*
Y4070D02*
D03*
Y3970D02*
D03*
X4740Y4070D02*
D03*
Y4170D02*
D03*
Y4270D02*
D03*
Y4370D02*
D03*
Y4470D02*
D03*
Y4570D02*
D03*
X4440D02*
D03*
Y4470D02*
D03*
Y4370D02*
D03*
Y4270D02*
D03*
Y4170D02*
D03*
Y4070D02*
D03*
Y3970D02*
D03*
X3000Y3113D02*
D03*
Y3213D02*
D03*
Y3313D02*
D03*
Y3413D02*
D03*
Y3513D02*
D03*
Y3613D02*
D03*
X2700D02*
D03*
Y3513D02*
D03*
Y3413D02*
D03*
Y3313D02*
D03*
Y3213D02*
D03*
Y3113D02*
D03*
Y3013D02*
D03*
X3580Y3113D02*
D03*
Y3213D02*
D03*
Y3313D02*
D03*
Y3413D02*
D03*
Y3513D02*
D03*
Y3613D02*
D03*
X3280D02*
D03*
Y3513D02*
D03*
Y3413D02*
D03*
Y3313D02*
D03*
Y3213D02*
D03*
Y3113D02*
D03*
Y3013D02*
D03*
X4160Y3113D02*
D03*
Y3213D02*
D03*
Y3313D02*
D03*
Y3413D02*
D03*
Y3513D02*
D03*
Y3613D02*
D03*
X3860D02*
D03*
Y3513D02*
D03*
Y3413D02*
D03*
Y3313D02*
D03*
Y3213D02*
D03*
Y3113D02*
D03*
Y3013D02*
D03*
X4740Y3113D02*
D03*
Y3213D02*
D03*
Y3313D02*
D03*
Y3413D02*
D03*
Y3513D02*
D03*
Y3613D02*
D03*
X4440D02*
D03*
Y3513D02*
D03*
Y3413D02*
D03*
Y3313D02*
D03*
Y3213D02*
D03*
Y3113D02*
D03*
Y3013D02*
D03*
X2180Y2400D02*
D03*
X2080D02*
D03*
X1980D02*
D03*
X1880D02*
D03*
X1780D02*
D03*
X1680D02*
D03*
Y2100D02*
D03*
X1780D02*
D03*
X1880D02*
D03*
X1980D02*
D03*
X2080D02*
D03*
X2180D02*
D03*
X2280D02*
D03*
X3000Y2157D02*
D03*
Y2257D02*
D03*
Y2357D02*
D03*
Y2457D02*
D03*
Y2557D02*
D03*
Y2657D02*
D03*
X2700D02*
D03*
Y2557D02*
D03*
Y2457D02*
D03*
Y2357D02*
D03*
Y2257D02*
D03*
Y2157D02*
D03*
Y2057D02*
D03*
X3580Y2157D02*
D03*
Y2257D02*
D03*
Y2357D02*
D03*
Y2457D02*
D03*
Y2557D02*
D03*
Y2657D02*
D03*
X3280D02*
D03*
Y2557D02*
D03*
Y2457D02*
D03*
Y2357D02*
D03*
Y2257D02*
D03*
Y2157D02*
D03*
Y2057D02*
D03*
X4160Y2157D02*
D03*
Y2257D02*
D03*
Y2357D02*
D03*
Y2457D02*
D03*
Y2557D02*
D03*
Y2657D02*
D03*
X3860D02*
D03*
Y2557D02*
D03*
Y2457D02*
D03*
Y2357D02*
D03*
Y2257D02*
D03*
Y2157D02*
D03*
Y2057D02*
D03*
X4740Y2157D02*
D03*
Y2257D02*
D03*
Y2357D02*
D03*
Y2457D02*
D03*
Y2557D02*
D03*
Y2657D02*
D03*
X4440D02*
D03*
Y2557D02*
D03*
Y2457D02*
D03*
Y2357D02*
D03*
Y2257D02*
D03*
Y2157D02*
D03*
Y2057D02*
D03*
X1120Y5530D02*
D03*
X1020D02*
D03*
X920D02*
D03*
X820D02*
D03*
X720D02*
D03*
X620D02*
D03*
Y5230D02*
D03*
X720D02*
D03*
X820D02*
D03*
X920D02*
D03*
X1020D02*
D03*
X1120D02*
D03*
X1220D02*
D03*
X1120Y5005D02*
D03*
X1020D02*
D03*
X920D02*
D03*
X820D02*
D03*
X720D02*
D03*
X620D02*
D03*
Y4705D02*
D03*
X720D02*
D03*
X820D02*
D03*
X920D02*
D03*
X1020D02*
D03*
X1120D02*
D03*
X1220D02*
D03*
X1120Y4480D02*
D03*
X1020D02*
D03*
X920D02*
D03*
X820D02*
D03*
X720D02*
D03*
X620D02*
D03*
Y4180D02*
D03*
X720D02*
D03*
X820D02*
D03*
X920D02*
D03*
X1020D02*
D03*
X1120D02*
D03*
X1220D02*
D03*
X1120Y3955D02*
D03*
X1020D02*
D03*
X920D02*
D03*
X820D02*
D03*
X720D02*
D03*
X620D02*
D03*
Y3655D02*
D03*
X720D02*
D03*
X820D02*
D03*
X920D02*
D03*
X1020D02*
D03*
X1120D02*
D03*
X1220D02*
D03*
X1120Y3430D02*
D03*
X1020D02*
D03*
X920D02*
D03*
X820D02*
D03*
X720D02*
D03*
X620D02*
D03*
Y3130D02*
D03*
X720D02*
D03*
X820D02*
D03*
X920D02*
D03*
X1020D02*
D03*
X1120D02*
D03*
X1220D02*
D03*
X1120Y2905D02*
D03*
X1020D02*
D03*
X920D02*
D03*
X820D02*
D03*
X720D02*
D03*
X620D02*
D03*
Y2605D02*
D03*
X720D02*
D03*
X820D02*
D03*
X920D02*
D03*
X1020D02*
D03*
X1120D02*
D03*
X1220D02*
D03*
X1120Y2380D02*
D03*
X1020D02*
D03*
X920D02*
D03*
X820D02*
D03*
X720D02*
D03*
X620D02*
D03*
Y2080D02*
D03*
X720D02*
D03*
X820D02*
D03*
X920D02*
D03*
X1020D02*
D03*
X1120D02*
D03*
X1220D02*
D03*
X1560Y4060D02*
D03*
X1660Y3960D02*
D03*
Y4060D02*
D03*
X1760Y3960D02*
D03*
Y4060D02*
D03*
X1860Y3960D02*
D03*
Y4060D02*
D03*
X1960Y3960D02*
D03*
Y4060D02*
D03*
X2060Y3960D02*
D03*
Y4060D02*
D03*
X2160Y3960D02*
D03*
Y4060D02*
D03*
X2260Y3960D02*
D03*
Y4060D02*
D03*
X2360Y3960D02*
D03*
X2460Y4060D02*
D03*
X2360D02*
D03*
X2460Y4160D02*
D03*
X2360D02*
D03*
X2460Y4260D02*
D03*
X2360D02*
D03*
X2460Y4360D02*
D03*
X2360D02*
D03*
X2460Y4460D02*
D03*
X2360D02*
D03*
X2460Y4560D02*
D03*
X2360D02*
D03*
X2460Y4660D02*
D03*
X2360D02*
D03*
X2460Y4760D02*
D03*
X2360D02*
D03*
X2460Y4860D02*
D03*
X2360Y4960D02*
D03*
Y4860D02*
D03*
X2260Y4960D02*
D03*
Y4860D02*
D03*
X2160Y4960D02*
D03*
Y4860D02*
D03*
X2060Y4960D02*
D03*
Y4860D02*
D03*
X1960Y4960D02*
D03*
Y4860D02*
D03*
X1860Y4960D02*
D03*
Y4860D02*
D03*
X1760Y4960D02*
D03*
Y4860D02*
D03*
X1660Y4960D02*
D03*
Y4860D02*
D03*
X1560Y4960D02*
D03*
X1460Y4860D02*
D03*
X1560D02*
D03*
X1460Y4760D02*
D03*
X1560D02*
D03*
X1460Y4660D02*
D03*
X1560D02*
D03*
X1460Y4560D02*
D03*
X1560D02*
D03*
X1460Y4460D02*
D03*
X1560D02*
D03*
X1460Y4360D02*
D03*
X1560D02*
D03*
X1460Y4260D02*
D03*
X1560D02*
D03*
X1460Y4160D02*
D03*
X1560D02*
D03*
X1460Y4060D02*
D03*
X1560Y2720D02*
D03*
X1660Y2620D02*
D03*
Y2720D02*
D03*
X1760Y2620D02*
D03*
Y2720D02*
D03*
X1860Y2620D02*
D03*
Y2720D02*
D03*
X1960Y2620D02*
D03*
Y2720D02*
D03*
X2060Y2620D02*
D03*
Y2720D02*
D03*
X2160Y2620D02*
D03*
Y2720D02*
D03*
X2260Y2620D02*
D03*
Y2720D02*
D03*
X2360Y2620D02*
D03*
X2460Y2720D02*
D03*
X2360D02*
D03*
X2460Y2820D02*
D03*
X2360D02*
D03*
X2460Y2920D02*
D03*
X2360D02*
D03*
X2460Y3020D02*
D03*
X2360D02*
D03*
X2460Y3120D02*
D03*
X2360D02*
D03*
X2460Y3220D02*
D03*
X2360D02*
D03*
X2460Y3320D02*
D03*
X2360D02*
D03*
X2460Y3420D02*
D03*
X2360D02*
D03*
X2460Y3520D02*
D03*
X2360Y3620D02*
D03*
Y3520D02*
D03*
X2260Y3620D02*
D03*
Y3520D02*
D03*
X2160Y3620D02*
D03*
Y3520D02*
D03*
X2060Y3620D02*
D03*
Y3520D02*
D03*
X1960Y3620D02*
D03*
Y3520D02*
D03*
X1860Y3620D02*
D03*
Y3520D02*
D03*
X1760Y3620D02*
D03*
Y3520D02*
D03*
X1660Y3620D02*
D03*
Y3520D02*
D03*
X1560Y3620D02*
D03*
X1460Y3520D02*
D03*
X1560D02*
D03*
X1460Y3420D02*
D03*
X1560D02*
D03*
X1460Y3320D02*
D03*
X1560D02*
D03*
X1460Y3220D02*
D03*
X1560D02*
D03*
X1460Y3120D02*
D03*
X1560D02*
D03*
X1460Y3020D02*
D03*
X1560D02*
D03*
X1460Y2920D02*
D03*
X1560D02*
D03*
X1460Y2820D02*
D03*
X1560D02*
D03*
X1460Y2720D02*
D03*
X1440Y5260D02*
D03*
Y5460D02*
D03*
X1420Y2160D02*
D03*
Y2360D02*
D03*
X2940Y4760D02*
D03*
X2740D02*
D03*
X4100D02*
D03*
X3900D02*
D03*
X2940Y3795D02*
D03*
X2740D02*
D03*
X4100D02*
D03*
X3900D02*
D03*
X2940Y2830D02*
D03*
X2740D02*
D03*
X4100D02*
D03*
X3900D02*
D03*
D15*
X3000Y4927D02*
D03*
X3580D02*
D03*
X4160D02*
D03*
X4740D02*
D03*
X3000Y3970D02*
D03*
X3580D02*
D03*
X4160D02*
D03*
X4740D02*
D03*
X3000Y3013D02*
D03*
X3580D02*
D03*
X4160D02*
D03*
X4740D02*
D03*
X3000Y2057D02*
D03*
X3580D02*
D03*
X4160D02*
D03*
X4740D02*
D03*
D16*
X4851Y2276D02*
D03*
X4885Y2896D02*
D03*
X5007Y3414D02*
D03*
X4893Y3047D02*
D03*
X4967Y2425D02*
D03*
X4992Y3050D02*
D03*
X3737Y2357D02*
D03*
X2800Y5277D02*
D03*
X2624D02*
D03*
X2418Y5165D02*
D03*
X2110Y4157D02*
D03*
X2671Y2855D02*
D03*
X4244Y5532D02*
D03*
X1987Y4759D02*
D03*
X3726Y4805D02*
D03*
X3913Y5176D02*
D03*
X2066Y3187D02*
D03*
X4865Y4997D02*
D03*
X3106Y2482D02*
D03*
X1663Y3133D02*
D03*
X2943Y2607D02*
D03*
X4954Y2277D02*
D03*
X5008Y3729D02*
D03*
X3412Y3513D02*
D03*
X2553Y3218D02*
D03*
Y4123D02*
D03*
X3654Y3946D02*
D03*
X2764Y4399D02*
D03*
X2041Y4375D02*
D03*
X4669Y2750D02*
D03*
X4315Y3464D02*
D03*
X4029Y5133D02*
D03*
X4159Y2882D02*
D03*
X1837Y3041D02*
D03*
X4064Y3676D02*
D03*
X1313Y5348D02*
D03*
X3448Y5506D02*
D03*
X4002Y4121D02*
D03*
X4278Y5330D02*
D03*
X3309Y2931D02*
D03*
X2528Y3022D02*
D03*
X3510Y3319D02*
D03*
X3998Y3418D02*
D03*
X4046Y4220D02*
D03*
X2136Y3338D02*
D03*
X1629Y2458D02*
D03*
X3754Y2591D02*
D03*
X3763Y2926D02*
D03*
X4772Y2896D02*
D03*
X3202Y4816D02*
D03*
X3726Y3513D02*
D03*
X3176Y3317D02*
D03*
X3711Y5017D02*
D03*
X3368Y3120D02*
D03*
X3345Y4902D02*
D03*
X4847Y5374D02*
D03*
X2798Y4056D02*
D03*
X2265Y4510D02*
D03*
X3164Y3713D02*
D03*
X3102Y3396D02*
D03*
X4292Y3918D02*
D03*
X4644Y3107D02*
D03*
X4789Y3804D02*
D03*
X1420Y4979D02*
D03*
X3131Y5496D02*
D03*
X4579Y2313D02*
D03*
X4789Y4745D02*
D03*
X4307Y4049D02*
D03*
X3487Y2991D02*
D03*
X2409Y3814D02*
D03*
X4308Y3320D02*
D03*
X4302Y3075D02*
D03*
X5008Y4928D02*
D03*
X4022Y5200D02*
D03*
X4623Y4162D02*
D03*
X4479Y2809D02*
D03*
X2847Y4948D02*
D03*
X2819Y2720D02*
D03*
X2016Y4433D02*
D03*
X1975Y2816D02*
D03*
X4340Y4570D02*
D03*
X4896Y4020D02*
D03*
X4978Y3150D02*
D03*
X4972Y3513D02*
D03*
X3754Y2132D02*
D03*
X3049Y2838D02*
D03*
X3556D02*
D03*
X1411Y4909D02*
D03*
X1931Y2997D02*
D03*
X4302Y3138D02*
D03*
X4111Y2206D02*
D03*
X3386Y3120D02*
D03*
X3411Y2379D02*
D03*
X4109Y4642D02*
D03*
X3212Y4120D02*
D03*
X2901Y2157D02*
D03*
X5067Y3685D02*
D03*
X4894Y4375D02*
D03*
X4489Y4770D02*
D03*
X4564Y4570D02*
D03*
M02*
