%FSLAX23Y23*%
%MOIN*%
G70*
G01*
G75*
G04 Layer_Physical_Order=1*
G04 Layer_Color=255*
%ADD10O,0.400X0.070*%
%ADD11C,0.025*%
%ADD12C,0.012*%
%ADD13R,0.060X0.060*%
%ADD14C,0.060*%
%ADD15R,0.060X0.060*%
%ADD16C,0.050*%
D10*
X5275Y3550D02*
D03*
Y3450D02*
D03*
Y3350D02*
D03*
Y3250D02*
D03*
Y3150D02*
D03*
Y3050D02*
D03*
Y2950D02*
D03*
Y2850D02*
D03*
Y2750D02*
D03*
Y2650D02*
D03*
Y2550D02*
D03*
Y2450D02*
D03*
Y2350D02*
D03*
Y4150D02*
D03*
Y4250D02*
D03*
Y4350D02*
D03*
Y4450D02*
D03*
Y4550D02*
D03*
Y4650D02*
D03*
Y4750D02*
D03*
Y4850D02*
D03*
Y4950D02*
D03*
Y5050D02*
D03*
Y5150D02*
D03*
Y5250D02*
D03*
Y5350D02*
D03*
D11*
X1420Y2360D02*
X1460Y2400D01*
X1384Y2324D02*
X1420Y2360D01*
X3260Y4907D02*
X3280Y4927D01*
X3224Y4871D02*
X3260Y4907D01*
X3275Y4808D01*
X1420Y2160D02*
X2220D01*
X1300D02*
X1420D01*
X3524Y2713D02*
X3580Y2657D01*
X3056Y2713D02*
X3524D01*
X3000Y2657D02*
X3056Y2713D01*
X4104D02*
X4160Y2657D01*
X3636Y2713D02*
X4104D01*
X3580Y2657D02*
X3636Y2713D01*
X4160Y3613D02*
X4272D01*
X4328Y3669D01*
X4684D01*
X4740Y3613D01*
X3000Y4570D02*
X3112D01*
X3193Y4650D01*
X3500D01*
X3580Y4570D01*
X2460Y4860D02*
X2502Y4818D01*
X2806D01*
X2864Y4760D01*
X2940D01*
X4564Y4570D02*
X4740D01*
X4484Y4626D02*
X4564Y4570D01*
X4216Y4626D02*
X4484D01*
X4160Y4570D02*
X4216Y4626D01*
X1480Y5500D02*
X1700D01*
X1440Y5460D02*
X1480Y5500D01*
X1460Y2400D02*
X1680D01*
X1220Y2080D02*
X1300Y2160D01*
X1255Y3620D02*
X1560D01*
X1220Y3655D02*
X1255Y3620D01*
X2911Y4871D02*
X3224D01*
X2885Y4898D02*
X2911Y4871D01*
X2729Y4898D02*
X2885D01*
X2700Y4927D02*
X2729Y4898D01*
X3749Y4927D02*
X3860D01*
X3693Y4871D02*
X3749Y4927D01*
X3400Y4871D02*
X3693D01*
X3338Y4808D02*
X3400Y4871D01*
X3275Y4808D02*
X3338D01*
X4925Y2350D02*
X5275D01*
X4851Y2276D02*
X4925Y2350D01*
X4825Y2957D02*
X4885Y2896D01*
X4497Y2957D02*
X4825D01*
X4440Y3013D02*
X4497Y2957D01*
X2700Y3013D02*
X2823D01*
X2879Y2957D01*
X3224D01*
X3280Y3013D01*
X3757D02*
X3860D01*
X3676Y2933D02*
X3757Y3013D01*
X3450Y2933D02*
X3676D01*
X3369Y3013D02*
X3450Y2933D01*
X3280Y3013D02*
X3369D01*
X3900Y3795D02*
X3963Y3732D01*
X4202D01*
X4440Y3970D01*
X3224Y3914D02*
X3280Y3970D01*
X2756Y3914D02*
X3224D01*
X2700Y3970D02*
X2756Y3914D01*
X1220Y5230D02*
X1410D01*
X1440Y5260D01*
X4043Y3852D02*
X4100Y3795D01*
X3027Y3852D02*
X4043D01*
X2970Y3795D02*
X3027Y3852D01*
X2940Y3795D02*
X2970D01*
X4280Y4927D02*
X4440D01*
X4224Y4871D02*
X4280Y4927D01*
X3916Y4871D02*
X4224D01*
X3860Y4927D02*
X3916Y4871D01*
X4384Y2957D02*
X4440Y3013D01*
X3916Y2957D02*
X4384D01*
X3860Y3013D02*
X3916Y2957D01*
X2740Y3795D02*
X2798Y3737D01*
X3000D01*
X3077Y3813D01*
X3246D01*
X3264Y3795D01*
X3900D01*
X4740Y3613D02*
Y3650D01*
X4774Y3684D01*
X4849D01*
X5048Y3883D01*
Y4188D01*
X5110Y4250D01*
X5275D01*
X4160Y2657D02*
X4216Y2713D01*
X4487D01*
X4543Y2657D01*
X4740D01*
X4104Y4570D02*
X4160D01*
X4048Y4626D02*
X4104Y4570D01*
X3636Y4626D02*
X4048D01*
X3580Y4570D02*
X3636Y4626D01*
X2460Y3520D02*
Y3626D01*
X2685Y3851D01*
X2884D01*
X2940Y3795D01*
X1440Y5260D02*
X2099D01*
X2119Y5280D01*
X2250D01*
X2300Y5231D01*
Y5200D02*
Y5231D01*
X690Y5460D02*
X1440D01*
X620Y5530D02*
X690Y5460D01*
X2220Y2160D02*
X2280Y2100D01*
X620Y2380D02*
X676Y2324D01*
X1384D01*
D12*
X3981Y5244D02*
X4066D01*
X3981D02*
X3989Y5252D01*
X3913Y5176D02*
X3981Y5244D01*
X5081Y4950D02*
Y4978D01*
X3580Y4370D02*
X3629Y4419D01*
X3531Y4321D02*
X3580Y4370D01*
X3537Y3413D02*
X3580D01*
X3502D02*
X3537D01*
X3387Y3263D02*
X3537Y3413D01*
X1741Y5041D02*
X1900Y5200D01*
X1711Y5011D02*
X1741Y5041D01*
X1482D02*
X1741D01*
X3711Y5017D02*
X3751Y4977D01*
X3740Y3113D02*
X3860D01*
X3691D02*
X3740D01*
X3691Y3064D02*
X3740Y3113D01*
X3751Y4977D02*
X4300D01*
X3420D02*
X3751D01*
X3386Y3120D02*
X3442Y3064D01*
X3642D02*
X3691D01*
X3442D02*
X3642D01*
X3424D02*
X3442D01*
X3642D02*
X3691Y3113D01*
X3368Y3120D02*
X3377Y3111D01*
X3424Y3064D01*
X4941Y3414D02*
X5007D01*
X4740Y3213D02*
X4941Y3414D01*
X4877Y3063D02*
X4893Y3047D01*
X4490Y3063D02*
X4877D01*
X4440Y3113D02*
X4490Y3063D01*
X4440Y2457D02*
X4541D01*
X4691Y2307D01*
X4818D01*
X4936Y2425D01*
X4967D01*
X4992Y3050D02*
X5275D01*
X3737Y2357D02*
X3860D01*
X3737Y2357D02*
X3737Y2357D01*
X3169Y5427D02*
X3280D01*
X3020Y5277D02*
X3169Y5427D01*
X2800Y5277D02*
X3020D01*
X2512Y5165D02*
X2624Y5277D01*
X2418Y5165D02*
X2512D01*
X2007Y4260D02*
X2110Y4157D01*
X1560Y4260D02*
X2007D01*
X2410Y4210D02*
X2460Y4160D01*
X2251Y4210D02*
X2410D01*
X2139Y4322D02*
X2251Y4210D01*
X2014Y4322D02*
X2139D01*
X1626Y4711D02*
X2014Y4322D01*
X1509Y4711D02*
X1626D01*
X1460Y4760D02*
X1509Y4711D01*
X1860Y4860D02*
X1911Y4911D01*
Y5000D01*
X1967Y5056D01*
X2557D01*
X2679Y5178D01*
X2727D01*
X2749Y5200D01*
Y5278D01*
X2700Y5327D02*
X2749Y5278D01*
X2950Y2507D02*
X3000Y2557D01*
X1700Y2507D02*
X2950D01*
X1611Y2596D02*
X1700Y2507D01*
X1611Y2596D02*
Y2969D01*
X1560Y3020D02*
X1611Y2969D01*
X2460Y2820D02*
X2636D01*
X2671Y2855D01*
X4197Y5579D02*
X4244Y5532D01*
X3534Y5579D02*
X4197D01*
X3497Y5542D02*
X3534Y5579D01*
X3497Y5475D02*
Y5542D01*
X3483Y5461D02*
X3497Y5475D01*
X3420Y5461D02*
X3483D01*
X3404Y5477D02*
X3420Y5461D01*
X3181Y5477D02*
X3404D01*
X3156Y5452D02*
X3181Y5477D01*
X3125Y5452D02*
X3156D01*
X3000Y5327D02*
X3125Y5452D01*
X1987Y4759D02*
X2037Y4709D01*
X2962D01*
X3014Y4761D01*
X3682D01*
X3726Y4805D01*
X3989Y5252D02*
X4135D01*
X4160Y5227D01*
X4066Y5244D02*
X4160Y5227D01*
X2629Y3213D02*
X2700D01*
X2574Y3269D02*
X2629Y3213D01*
X2266Y3269D02*
X2574D01*
X2184Y3187D02*
X2266Y3269D01*
X2066Y3187D02*
X2184D01*
X4390Y2307D02*
X4440Y2357D01*
X3730Y2307D02*
X4390D01*
X3580Y2157D02*
X3730Y2307D01*
X4865Y4997D02*
X5062D01*
X5081Y4978D01*
Y4950D02*
X5275D01*
X3580Y5027D02*
X3629Y5076D01*
X3960D01*
X3974Y5062D01*
X4098D01*
X4112Y5076D01*
X4301D01*
X4352Y5127D01*
X4440D01*
X5005Y2450D02*
X5275D01*
X4948Y2507D02*
X5005Y2450D01*
X4308Y2507D02*
X4948D01*
X4207Y2406D02*
X4308Y2507D01*
X3472Y2406D02*
X4207D01*
X3455Y2423D02*
X3472Y2406D01*
X3384Y2423D02*
X3455D01*
X3367Y2406D02*
X3384Y2423D01*
X3182Y2406D02*
X3367D01*
X3106Y2482D02*
X3182Y2406D01*
X2273Y3133D02*
X2360Y3220D01*
X1663Y3133D02*
X2273D01*
X2943Y2607D02*
X3682D01*
X3710Y2635D01*
X3798D01*
X3826Y2607D01*
X4206D01*
X4256Y2657D01*
X4440D01*
X4160Y2357D02*
X4250D01*
X4299Y2406D01*
X4475D01*
X4489Y2392D01*
Y2292D02*
Y2392D01*
Y2292D02*
X4550Y2231D01*
X4636D01*
X4660Y2207D01*
X4884D01*
X4954Y2277D01*
X5008Y3729D02*
X5085Y3806D01*
Y4117D01*
X5118Y4150D01*
X5275D01*
X5007Y3550D02*
X5275D01*
X4965Y3592D02*
X5007Y3550D01*
X4929Y3592D02*
X4965D01*
X4800Y3463D02*
X4929Y3592D01*
X4676Y3463D02*
X4800D01*
X4577Y3364D02*
X4676Y3463D01*
X4137Y3364D02*
X4577D01*
X4037Y3464D02*
X4137Y3364D01*
X3557Y3464D02*
X4037D01*
X3532Y3489D02*
X3557Y3464D01*
X3436Y3489D02*
X3532D01*
X3412Y3513D02*
X3436Y3489D01*
X2658Y3113D02*
X2700D01*
X2553Y3218D02*
X2658Y3113D01*
X2553Y4123D02*
X2651Y4221D01*
X2749D01*
X2916Y4388D01*
Y4615D01*
X2945Y4644D01*
X2976D01*
X3043Y4711D01*
X4197D01*
X4336Y4850D01*
X5275D01*
X4996Y4550D02*
X5275D01*
X4971Y4525D02*
X4996Y4550D01*
X4971Y3964D02*
Y4525D01*
X4928Y3921D02*
X4971Y3964D01*
X4573Y3921D02*
X4928D01*
X4475Y4019D02*
X4573Y3921D01*
X4391Y4019D02*
X4475D01*
X4334Y3962D02*
X4391Y4019D01*
X4248Y3962D02*
X4334D01*
X4206Y3921D02*
X4248Y3962D01*
X3679Y3921D02*
X4206D01*
X3654Y3946D02*
X3679Y3921D01*
X2764Y4352D02*
Y4399D01*
X2733Y4321D02*
X2764Y4352D01*
X2627Y4321D02*
X2733D01*
X2539Y4409D02*
X2627Y4321D01*
X2075Y4409D02*
X2539D01*
X2041Y4375D02*
X2075Y4409D01*
X4669Y2750D02*
X5275D01*
X4125Y3464D02*
X4315D01*
X3926Y3663D02*
X4125Y3464D01*
X3283Y3663D02*
X3926D01*
X3188Y3757D02*
X3283Y3663D01*
X3138Y3757D02*
X3188D01*
X3120Y3740D02*
X3138Y3757D01*
X3120Y3544D02*
Y3740D01*
Y3544D02*
X3200Y3464D01*
X3451D01*
X3502Y3413D01*
X5008Y5250D02*
X5275D01*
X4934Y5176D02*
X5008Y5250D01*
X4072Y5176D02*
X4934D01*
X4029Y5133D02*
X4072Y5176D01*
X2833Y2882D02*
X4159D01*
X2816Y2899D02*
X2833Y2882D01*
X2537Y2899D02*
X2816D01*
X2509Y2871D02*
X2537Y2899D01*
X2217Y2871D02*
X2509D01*
X2047Y3041D02*
X2217Y2871D01*
X1837Y3041D02*
X2047D01*
X5058Y4350D02*
X5275D01*
X5008Y4300D02*
X5058Y4350D01*
X5008Y3950D02*
Y4300D01*
X4954Y3896D02*
X5008Y3950D01*
X4433Y3896D02*
X4954D01*
X4231Y3694D02*
X4433Y3896D01*
X4082Y3694D02*
X4231D01*
X4064Y3676D02*
X4082Y3694D01*
X1313Y5348D02*
X1336Y5371D01*
X1800D01*
X1851Y5422D01*
Y5550D01*
X1877Y5576D01*
X3378D01*
X3448Y5506D01*
X4002Y4121D02*
X4389D01*
X4440Y4070D01*
X3860Y5327D02*
X3879Y5346D01*
X3904D01*
X3934Y5376D01*
X4181D01*
X4227Y5330D01*
X4278D01*
X3296Y2918D02*
X3309Y2931D01*
X2855Y2918D02*
X3296D01*
X2821Y2952D02*
X2855Y2918D01*
X2598Y2952D02*
X2821D01*
X2528Y3022D02*
X2598Y2952D01*
X3510Y3319D02*
X3554Y3363D01*
X3943D01*
X3998Y3418D01*
X4046Y4220D02*
X4486D01*
X4636Y4070D01*
X4740D01*
X3610Y4020D02*
X3860Y4270D01*
X3464Y4020D02*
X3610D01*
X3327Y3883D02*
X3464Y4020D01*
X2994Y3883D02*
X3327D01*
X2994Y3882D02*
X2994Y3883D01*
X2629Y3882D02*
X2994D01*
X2434Y3687D02*
X2629Y3882D01*
X2248Y3687D02*
X2434D01*
X2211Y3650D02*
X2248Y3687D01*
X2211Y3413D02*
Y3650D01*
X2136Y3338D02*
X2211Y3413D01*
X1629Y2458D02*
X2555D01*
X2606Y2407D01*
X3031D01*
X3049Y2425D01*
Y2531D01*
X3075Y2557D01*
X3280D01*
X3330Y2507D01*
X3670D01*
X3754Y2591D01*
X3763Y2926D02*
X4202D01*
X4203Y2925D01*
X4743D01*
X4772Y2896D01*
X3178Y4839D02*
X3202Y4816D01*
X2872Y4839D02*
X3178D01*
X2852Y4859D02*
X2872Y4839D01*
X2665Y4859D02*
X2852D01*
X2615Y4909D02*
X2665Y4859D01*
X2125Y4909D02*
X2615D01*
X2109Y4893D02*
X2125Y4909D01*
X2109Y4825D02*
Y4893D01*
X2095Y4811D02*
X2109Y4825D01*
X1825Y4811D02*
X2095D01*
X1811Y4825D02*
X1825Y4811D01*
X1811Y4825D02*
Y4887D01*
X1788Y4910D02*
X1811Y4887D01*
X1741Y4910D02*
X1788D01*
X1711Y4940D02*
X1741Y4910D01*
X1711Y4940D02*
Y5011D01*
X2700Y5127D02*
X2750Y5077D01*
X3230D01*
X3280Y5027D01*
X3580Y3513D02*
X3726D01*
X3176Y3317D02*
Y3421D01*
X3034Y3563D02*
X3176Y3421D01*
X2750Y3563D02*
X3034D01*
X2700Y3513D02*
X2750Y3563D01*
X4689Y5076D02*
X4740Y5127D01*
X4399Y5076D02*
X4689D01*
X4300Y4977D02*
X4399Y5076D01*
X3345Y4902D02*
X3420Y4977D01*
X4847Y5374D02*
Y5397D01*
X4768Y5476D02*
X4847Y5397D01*
X3987Y5476D02*
X4768D01*
X3886Y5376D02*
X3987Y5476D01*
X3199Y5376D02*
X3886D01*
X3050Y5227D02*
X3199Y5376D01*
X3000Y5227D02*
X3050D01*
X2200Y5138D02*
Y5200D01*
Y5138D02*
X2212Y5126D01*
X2350D01*
X2374Y5150D01*
Y5300D01*
X2451Y5377D01*
X2950D01*
X3000Y5427D01*
X2812Y4070D02*
X3000D01*
X2798Y4056D02*
X2812Y4070D01*
X2560Y4510D02*
X2700Y4370D01*
X2265Y4510D02*
X2560D01*
X3164Y3649D02*
Y3713D01*
Y3649D02*
X3250Y3563D01*
X3601D01*
X3629Y3591D01*
X3784D01*
X3811Y3564D01*
X3974D01*
X4125Y3413D01*
X4160D01*
X3069Y3363D02*
X3102Y3396D01*
X2750Y3363D02*
X3069D01*
X2700Y3413D02*
X2750Y3363D01*
X4690Y5277D02*
X4740Y5327D01*
X3330Y5277D02*
X4690D01*
X3280Y5327D02*
X3330Y5277D01*
X3580Y3925D02*
Y3970D01*
Y3925D02*
X3616Y3889D01*
X4263D01*
X4292Y3918D01*
X4588Y3163D02*
X4644Y3107D01*
X4389Y3163D02*
X4588D01*
X4376Y3150D02*
X4389Y3163D01*
X4376Y3020D02*
Y3150D01*
X4363Y3006D02*
X4376Y3020D01*
X4233Y3006D02*
X4363D01*
X4226Y3013D02*
X4233Y3006D01*
X4160Y3013D02*
X4226D01*
X2700Y3613D02*
X2781Y3694D01*
X3039D01*
X3127Y3782D01*
X3201D01*
X3289Y3694D01*
X3936D01*
X4005Y3625D01*
X4086D01*
X4124Y3662D01*
X4250D01*
X4328Y3740D01*
X4725D01*
X4789Y3804D01*
X1420Y4979D02*
X1482Y5041D01*
X1560Y4560D02*
X1826Y4294D01*
X2110D01*
X2260Y4144D01*
Y4060D02*
Y4144D01*
X3111Y5476D02*
X3131Y5496D01*
X2626Y5476D02*
X3111D01*
X2601Y5451D02*
X2626Y5476D01*
X2249Y5451D02*
X2601D01*
X2200Y5500D02*
X2249Y5451D01*
X4579Y2313D02*
X4635Y2257D01*
X4740D01*
X4720Y4814D02*
X4789Y4745D01*
X4409Y4814D02*
X4720D01*
X4281Y4686D02*
X4409Y4814D01*
X3096Y4686D02*
X4281D01*
X3029Y4619D02*
X3096Y4686D01*
X2970Y4619D02*
X3029D01*
X2951Y4600D02*
X2970Y4619D01*
X2951Y4537D02*
Y4600D01*
Y4537D02*
X2968Y4520D01*
X3151D01*
X3250Y4619D01*
X3312D01*
X3329Y4602D01*
Y4519D02*
Y4602D01*
X3280Y4470D02*
X3329Y4519D01*
X4279Y4021D02*
X4307Y4049D01*
X4039Y4021D02*
X4279D01*
X3910Y4150D02*
X4039Y4021D01*
X3910Y4150D02*
Y4220D01*
X3860Y4270D02*
X3910Y4220D01*
X5052Y3450D02*
X5275D01*
X5033Y3469D02*
X5052Y3450D01*
X4936Y3469D02*
X5033D01*
X4830Y3363D02*
X4936Y3469D01*
X4691Y3363D02*
X4830D01*
X4591Y3263D02*
X4691Y3363D01*
X4400Y3263D02*
X4591D01*
X4346Y3209D02*
X4400Y3263D01*
X4346Y3050D02*
Y3209D01*
X4327Y3031D02*
X4346Y3050D01*
X4258Y3031D02*
X4327D01*
X4225Y3064D02*
X4258Y3031D01*
X3729Y3064D02*
X4225D01*
X3629Y2964D02*
X3729Y3064D01*
X3514Y2964D02*
X3629D01*
X3487Y2991D02*
X3514Y2964D01*
X2409Y3814D02*
X2616Y4021D01*
X2763D01*
X2772Y4012D01*
X2851D01*
X2860Y4021D01*
X3422D01*
X3531Y4130D01*
Y4321D01*
X4258Y3270D02*
X4308Y3320D01*
X4258Y3119D02*
Y3270D01*
Y3119D02*
X4302Y3075D01*
X4982Y4902D02*
X5008Y4928D01*
X4826Y4902D02*
X4982D01*
X4789Y4939D02*
X4826Y4902D01*
X4789Y4939D02*
Y4976D01*
X4491D02*
X4789D01*
X4440Y5027D02*
X4491Y4976D01*
X1760Y2720D02*
Y2905D01*
X1594Y3071D02*
X1760Y2905D01*
X1525Y3071D02*
X1594D01*
X1511Y3085D02*
X1525Y3071D01*
X1511Y3085D02*
Y3256D01*
X1525Y3270D01*
X1966D01*
X2010Y3314D01*
Y3650D01*
X2069Y3709D01*
X2144D01*
X2360Y3925D01*
Y3960D01*
X3985Y5100D02*
Y5163D01*
Y5100D02*
X3998Y5087D01*
X4073D01*
X4113Y5127D01*
X4160D01*
X4465Y4320D02*
X4623Y4162D01*
X3630Y4320D02*
X4465D01*
X3580Y4270D02*
X3630Y4320D01*
X5036Y2850D02*
X5275D01*
X4987Y2802D02*
X5036Y2850D01*
X4486Y2802D02*
X4987D01*
X4479Y2809D02*
X4486Y2802D01*
X1509Y4811D02*
X1560Y4760D01*
X1250Y4811D02*
X1509D01*
X1171Y4890D02*
X1250Y4811D01*
X1171Y4890D02*
Y5263D01*
X1187Y5279D01*
X1308D01*
X1362Y5333D01*
X2000D01*
X2051Y5384D01*
Y5525D01*
X2075Y5549D01*
X2125D01*
X2151Y5523D01*
Y5475D02*
Y5523D01*
Y5475D02*
X2175Y5451D01*
X2199D01*
X2224Y5426D01*
X2669D01*
X2670Y5427D01*
X2700D01*
X2646Y5227D02*
X2700D01*
X2500Y5081D02*
X2646Y5227D01*
X2206Y5081D02*
X2500D01*
X2151Y5136D02*
X2206Y5081D01*
X2151Y5136D02*
Y5225D01*
X2175Y5249D01*
X2225D01*
X2249Y5225D01*
Y5169D02*
Y5225D01*
Y5169D02*
X2267Y5151D01*
X2325D01*
X2349Y5175D01*
Y5251D01*
X2174Y5426D02*
X2349Y5251D01*
X2125Y5426D02*
X2174D01*
X2100Y5451D02*
X2125Y5426D01*
X2100Y5451D02*
Y5500D01*
X2837Y5027D02*
X3000D01*
X2787Y4976D02*
X2837Y5027D01*
X2530Y4976D02*
X2787D01*
X2497Y5009D02*
X2530Y4976D01*
X2025Y5009D02*
X2497D01*
X2010Y4994D02*
X2025Y5009D01*
X2010Y4910D02*
Y4994D01*
X1960Y4860D02*
X2010Y4910D01*
X3280Y5127D02*
X3329Y5078D01*
Y5006D02*
Y5078D01*
X3300Y4977D02*
X3329Y5006D01*
X2876Y4977D02*
X3300D01*
X2847Y4948D02*
X2876Y4977D01*
X4962Y3250D02*
X5275D01*
X4912Y3200D02*
X4962Y3250D01*
X4912Y3091D02*
Y3200D01*
Y3091D02*
X4937Y3066D01*
Y2860D02*
Y3066D01*
X4929Y2852D02*
X4937Y2860D01*
X4749Y2852D02*
X4929D01*
X4701Y2900D02*
X4749Y2852D01*
X4433Y2900D02*
X4701D01*
X4308Y2775D02*
X4433Y2900D01*
X2705Y2775D02*
X4308D01*
X2600Y2670D02*
X2705Y2775D01*
X2110Y2670D02*
X2600D01*
X2060Y2720D02*
X2110Y2670D01*
X5012Y2950D02*
X5275D01*
X4962Y2900D02*
X5012Y2950D01*
X4962Y2827D02*
Y2900D01*
X4728Y2827D02*
X4962D01*
X4702Y2853D02*
X4728Y2827D01*
X4460Y2853D02*
X4702D01*
X4352Y2745D02*
X4460Y2853D01*
X2844Y2745D02*
X4352D01*
X2819Y2720D02*
X2844Y2745D01*
X2043Y4460D02*
X2360D01*
X2016Y4433D02*
X2043Y4460D01*
X1909Y2750D02*
X1975Y2816D01*
X1909Y2688D02*
Y2750D01*
X1893Y2671D02*
X1909Y2688D01*
X1709Y2671D02*
X1893D01*
X1660Y2720D02*
X1709Y2671D01*
X4864Y5150D02*
X5275D01*
X4814Y5100D02*
X4864Y5150D01*
X4814Y4959D02*
Y5100D01*
Y4959D02*
X4845Y4928D01*
X4945D01*
X4989Y4972D01*
X5037D01*
X5052Y4957D01*
Y4900D02*
Y4957D01*
X5027Y4875D02*
X5052Y4900D01*
X4325Y4875D02*
X5027D01*
X4266Y4816D02*
X4325Y4875D01*
X3880Y4816D02*
X4266D01*
X3800Y4736D02*
X3880Y4816D01*
X3024Y4736D02*
X3800D01*
X2966Y4678D02*
X3024Y4736D01*
X2886Y4678D02*
X2966D01*
X2808Y4600D02*
X2886Y4678D01*
X2808Y4340D02*
Y4600D01*
X2738Y4270D02*
X2808Y4340D01*
X2700Y4270D02*
X2738D01*
X4911Y5350D02*
X5275D01*
X4891Y5330D02*
X4911Y5350D01*
X4823Y5330D02*
X4891D01*
X4776Y5377D02*
X4823Y5330D01*
X4258Y5377D02*
X4776D01*
X4208Y5427D02*
X4258Y5377D01*
X4160Y5427D02*
X4208D01*
X1560Y3220D02*
X2022D01*
X2033Y3231D01*
X2172D01*
X2311Y3370D01*
X2528D01*
X2635Y3263D01*
X3387D01*
X3280Y3213D02*
X3381D01*
X3432Y3264D01*
X4111D01*
X4160Y3313D01*
X3129Y4419D02*
X3280Y4570D01*
X2970Y4419D02*
X3129D01*
X2951Y4400D02*
X2970Y4419D01*
X2951Y4317D02*
Y4400D01*
X2755Y4121D02*
X2951Y4317D01*
X2651Y4121D02*
X2755D01*
X2607Y4077D02*
X2651Y4121D01*
X2520Y4077D02*
X2607D01*
X2487Y4109D02*
X2520Y4077D01*
X2325Y4109D02*
X2487D01*
X2310Y4094D02*
X2325Y4109D01*
X2310Y4025D02*
Y4094D01*
X2296Y4011D02*
X2310Y4025D01*
X1509Y4011D02*
X2296D01*
X1460Y4060D02*
X1509Y4011D01*
X2411D02*
X2460Y4060D01*
X2342Y4011D02*
X2411D01*
X2309Y3978D02*
X2342Y4011D01*
X2309Y3925D02*
Y3978D01*
X2295Y3911D02*
X2309Y3925D01*
X1853Y3911D02*
X2295D01*
X1611Y3669D02*
X1853Y3911D01*
X1611Y3500D02*
Y3669D01*
X1582Y3471D02*
X1611Y3500D01*
X1368Y3471D02*
X1582D01*
X1360Y3479D02*
X1368Y3471D01*
X788Y3479D02*
X1360D01*
X771Y3463D02*
X788Y3479D01*
X771Y2856D02*
Y3463D01*
Y2856D02*
X857Y2770D01*
X1510D01*
X1560Y2720D01*
X4290Y4520D02*
X4340Y4570D01*
X3516Y4520D02*
X4290D01*
X3430Y4434D02*
X3516Y4520D01*
X3430Y4249D02*
Y4434D01*
X3400Y4219D02*
X3430Y4249D01*
X2898Y4219D02*
X3400D01*
X2749Y4070D02*
X2898Y4219D01*
X2700Y4070D02*
X2749D01*
X4440D02*
X4577D01*
X4627Y4020D01*
X4896D01*
X4978Y3150D02*
X5275D01*
X4740Y3413D02*
X4821D01*
X4921Y3513D01*
X4972D01*
X4111Y2106D02*
X4160Y2057D01*
X3780Y2106D02*
X4111D01*
X3754Y2132D02*
X3780Y2106D01*
X3049Y2838D02*
X3556D01*
X2561Y4609D02*
X2700Y4470D01*
X1811Y4609D02*
X2561D01*
X1609Y4811D02*
X1811Y4609D01*
X1609Y4811D02*
Y4887D01*
X1587Y4909D02*
X1609Y4887D01*
X1411Y4909D02*
X1587D01*
X1983Y2997D02*
X2260Y2720D01*
X1931Y2997D02*
X1983D01*
X2410Y2970D02*
X2460Y2920D01*
X2297Y2970D02*
X2410D01*
X2178Y3089D02*
X2297Y2970D01*
X1638Y3089D02*
X2178D01*
X1607Y3120D02*
X1638Y3089D01*
X1560Y3120D02*
X1607D01*
X4393Y3313D02*
X4440D01*
X4302Y3222D02*
X4393Y3313D01*
X4302Y3138D02*
Y3222D01*
X4111Y2206D02*
X4591D01*
X4641Y2157D01*
X4740D01*
X4110Y3163D02*
X4160Y3113D01*
X3450Y3163D02*
X4110D01*
X3430Y3183D02*
X3450Y3163D01*
X3362Y3183D02*
X3430D01*
X3342Y3163D02*
X3362Y3183D01*
X3050Y3163D02*
X3342D01*
X3000Y3113D02*
X3050Y3163D01*
X3339Y2307D02*
X3411Y2379D01*
X2750Y2307D02*
X3339D01*
X2700Y2257D02*
X2750Y2307D01*
X3985Y5163D02*
X4022Y5200D01*
X4109Y4642D02*
X4128Y4661D01*
X4537D01*
X4579Y4619D01*
X4876D01*
X4945Y4550D01*
Y4350D02*
Y4550D01*
X4913Y4318D02*
X4945Y4350D01*
X4875Y4318D02*
X4913D01*
X4844Y4349D02*
X4875Y4318D01*
X4844Y4349D02*
Y4366D01*
X4740Y4470D02*
X4844Y4366D01*
X3230Y3063D02*
X3280Y3113D01*
X2580Y3063D02*
X3230D01*
X2572Y3071D02*
X2580Y3063D01*
X2411Y3071D02*
X2572D01*
X2360Y3020D02*
X2411Y3071D01*
X3212Y4120D02*
X3370D01*
X3460Y4210D01*
Y4350D01*
X3580Y4470D01*
X2700Y2157D02*
X2901D01*
X4910Y3685D02*
X5067D01*
X4788Y3563D02*
X4910Y3685D01*
X4210Y3563D02*
X4788D01*
X4160Y3513D02*
X4210Y3563D01*
X4160Y4470D02*
X4359D01*
X4408Y4519D01*
X4775D01*
X4894Y4400D01*
Y4375D02*
Y4400D01*
X4609Y4650D02*
X5275D01*
X4489Y4770D02*
X4609Y4650D01*
X1880Y2100D02*
X1929Y2051D01*
X2602D01*
X2657Y2106D01*
X3634D01*
X3785Y2257D01*
X3860D01*
X4804Y2650D02*
X5275D01*
X4760Y2606D02*
X4804Y2650D01*
X4288Y2606D02*
X4760D01*
X4188Y2506D02*
X4288Y2606D01*
X3911Y2506D02*
X4188D01*
X3860Y2557D02*
X3911Y2506D01*
X1062Y3320D02*
X1460D01*
X920Y3178D02*
X1062Y3320D01*
X920Y3130D02*
Y3178D01*
X1050Y3020D02*
X1460D01*
X971Y3099D02*
X1050Y3020D01*
X971Y3099D02*
Y3162D01*
X988Y3179D01*
X1071D01*
X1120Y3130D01*
X820D02*
X1059Y3369D01*
X1409D01*
X1460Y3420D01*
X1800Y5000D02*
X2000Y5200D01*
X1760Y5000D02*
X1800D01*
X1760Y4960D02*
Y5000D01*
X1220Y4480D02*
X1251Y4511D01*
X1496D01*
X1510Y4525D01*
Y4610D01*
X1560Y4660D01*
X1040Y4260D02*
X1460D01*
X820Y4480D02*
X1040Y4260D01*
X720Y3955D02*
X832Y4067D01*
X1367D01*
X1460Y4160D01*
X1200Y4560D02*
X1460D01*
X1120Y4480D02*
X1200Y4560D01*
X1040Y4360D02*
X1460D01*
X920Y4480D02*
X1040Y4360D01*
X855Y3520D02*
X1460D01*
X720Y3655D02*
X855Y3520D01*
X2951Y3464D02*
X3000Y3513D01*
X2580Y3464D02*
X2951D01*
X2575Y3469D02*
X2580Y3464D01*
X2409Y3469D02*
X2575D01*
X2360Y3420D02*
X2409Y3469D01*
X1780Y2400D02*
X1973Y2207D01*
X3530D01*
X3580Y2257D01*
X1020Y4480D02*
X1080Y4420D01*
X1420D01*
X1460Y4460D01*
X1404Y3064D02*
X1460Y3120D01*
X1086Y3064D02*
X1404D01*
X1020Y3130D02*
X1086Y3064D01*
X4691Y4419D02*
X4740Y4370D01*
X3629Y4419D02*
X4691D01*
D13*
X2300Y5500D02*
D03*
X2280Y2400D02*
D03*
X1220Y5530D02*
D03*
Y5005D02*
D03*
Y4480D02*
D03*
Y3955D02*
D03*
Y3430D02*
D03*
Y2905D02*
D03*
Y2380D02*
D03*
X1560Y3960D02*
D03*
Y2620D02*
D03*
D14*
X2200Y5500D02*
D03*
X2100D02*
D03*
X2000D02*
D03*
X1900D02*
D03*
X1800D02*
D03*
X1700D02*
D03*
Y5200D02*
D03*
X1800D02*
D03*
X1900D02*
D03*
X2000D02*
D03*
X2100D02*
D03*
X2200D02*
D03*
X2300D02*
D03*
X3000Y5027D02*
D03*
Y5127D02*
D03*
Y5227D02*
D03*
Y5327D02*
D03*
Y5427D02*
D03*
Y5527D02*
D03*
X2700D02*
D03*
Y5427D02*
D03*
Y5327D02*
D03*
Y5227D02*
D03*
Y5127D02*
D03*
Y5027D02*
D03*
Y4927D02*
D03*
X3580Y5027D02*
D03*
Y5127D02*
D03*
Y5227D02*
D03*
Y5327D02*
D03*
Y5427D02*
D03*
Y5527D02*
D03*
X3280D02*
D03*
Y5427D02*
D03*
Y5327D02*
D03*
Y5227D02*
D03*
Y5127D02*
D03*
Y5027D02*
D03*
Y4927D02*
D03*
X4160Y5027D02*
D03*
Y5127D02*
D03*
Y5227D02*
D03*
Y5327D02*
D03*
Y5427D02*
D03*
Y5527D02*
D03*
X3860D02*
D03*
Y5427D02*
D03*
Y5327D02*
D03*
Y5227D02*
D03*
Y5127D02*
D03*
Y5027D02*
D03*
Y4927D02*
D03*
X4740Y5027D02*
D03*
Y5127D02*
D03*
Y5227D02*
D03*
Y5327D02*
D03*
Y5427D02*
D03*
Y5527D02*
D03*
X4440D02*
D03*
Y5427D02*
D03*
Y5327D02*
D03*
Y5227D02*
D03*
Y5127D02*
D03*
Y5027D02*
D03*
Y4927D02*
D03*
X3000Y4070D02*
D03*
Y4170D02*
D03*
Y4270D02*
D03*
Y4370D02*
D03*
Y4470D02*
D03*
Y4570D02*
D03*
X2700D02*
D03*
Y4470D02*
D03*
Y4370D02*
D03*
Y4270D02*
D03*
Y4170D02*
D03*
Y4070D02*
D03*
Y3970D02*
D03*
X3580Y4070D02*
D03*
Y4170D02*
D03*
Y4270D02*
D03*
Y4370D02*
D03*
Y4470D02*
D03*
Y4570D02*
D03*
X3280D02*
D03*
Y4470D02*
D03*
Y4370D02*
D03*
Y4270D02*
D03*
Y4170D02*
D03*
Y4070D02*
D03*
Y3970D02*
D03*
X4160Y4070D02*
D03*
Y4170D02*
D03*
Y4270D02*
D03*
Y4370D02*
D03*
Y4470D02*
D03*
Y4570D02*
D03*
X3860D02*
D03*
Y4470D02*
D03*
Y4370D02*
D03*
Y4270D02*
D03*
Y4170D02*
D03*
Y4070D02*
D03*
Y3970D02*
D03*
X4740Y4070D02*
D03*
Y4170D02*
D03*
Y4270D02*
D03*
Y4370D02*
D03*
Y4470D02*
D03*
Y4570D02*
D03*
X4440D02*
D03*
Y4470D02*
D03*
Y4370D02*
D03*
Y4270D02*
D03*
Y4170D02*
D03*
Y4070D02*
D03*
Y3970D02*
D03*
X3000Y3113D02*
D03*
Y3213D02*
D03*
Y3313D02*
D03*
Y3413D02*
D03*
Y3513D02*
D03*
Y3613D02*
D03*
X2700D02*
D03*
Y3513D02*
D03*
Y3413D02*
D03*
Y3313D02*
D03*
Y3213D02*
D03*
Y3113D02*
D03*
Y3013D02*
D03*
X3580Y3113D02*
D03*
Y3213D02*
D03*
Y3313D02*
D03*
Y3413D02*
D03*
Y3513D02*
D03*
Y3613D02*
D03*
X3280D02*
D03*
Y3513D02*
D03*
Y3413D02*
D03*
Y3313D02*
D03*
Y3213D02*
D03*
Y3113D02*
D03*
Y3013D02*
D03*
X4160Y3113D02*
D03*
Y3213D02*
D03*
Y3313D02*
D03*
Y3413D02*
D03*
Y3513D02*
D03*
Y3613D02*
D03*
X3860D02*
D03*
Y3513D02*
D03*
Y3413D02*
D03*
Y3313D02*
D03*
Y3213D02*
D03*
Y3113D02*
D03*
Y3013D02*
D03*
X4740Y3113D02*
D03*
Y3213D02*
D03*
Y3313D02*
D03*
Y3413D02*
D03*
Y3513D02*
D03*
Y3613D02*
D03*
X4440D02*
D03*
Y3513D02*
D03*
Y3413D02*
D03*
Y3313D02*
D03*
Y3213D02*
D03*
Y3113D02*
D03*
Y3013D02*
D03*
X2180Y2400D02*
D03*
X2080D02*
D03*
X1980D02*
D03*
X1880D02*
D03*
X1780D02*
D03*
X1680D02*
D03*
Y2100D02*
D03*
X1780D02*
D03*
X1880D02*
D03*
X1980D02*
D03*
X2080D02*
D03*
X2180D02*
D03*
X2280D02*
D03*
X3000Y2157D02*
D03*
Y2257D02*
D03*
Y2357D02*
D03*
Y2457D02*
D03*
Y2557D02*
D03*
Y2657D02*
D03*
X2700D02*
D03*
Y2557D02*
D03*
Y2457D02*
D03*
Y2357D02*
D03*
Y2257D02*
D03*
Y2157D02*
D03*
Y2057D02*
D03*
X3580Y2157D02*
D03*
Y2257D02*
D03*
Y2357D02*
D03*
Y2457D02*
D03*
Y2557D02*
D03*
Y2657D02*
D03*
X3280D02*
D03*
Y2557D02*
D03*
Y2457D02*
D03*
Y2357D02*
D03*
Y2257D02*
D03*
Y2157D02*
D03*
Y2057D02*
D03*
X4160Y2157D02*
D03*
Y2257D02*
D03*
Y2357D02*
D03*
Y2457D02*
D03*
Y2557D02*
D03*
Y2657D02*
D03*
X3860D02*
D03*
Y2557D02*
D03*
Y2457D02*
D03*
Y2357D02*
D03*
Y2257D02*
D03*
Y2157D02*
D03*
Y2057D02*
D03*
X4740Y2157D02*
D03*
Y2257D02*
D03*
Y2357D02*
D03*
Y2457D02*
D03*
Y2557D02*
D03*
Y2657D02*
D03*
X4440D02*
D03*
Y2557D02*
D03*
Y2457D02*
D03*
Y2357D02*
D03*
Y2257D02*
D03*
Y2157D02*
D03*
Y2057D02*
D03*
X1120Y5530D02*
D03*
X1020D02*
D03*
X920D02*
D03*
X820D02*
D03*
X720D02*
D03*
X620D02*
D03*
Y5230D02*
D03*
X720D02*
D03*
X820D02*
D03*
X920D02*
D03*
X1020D02*
D03*
X1120D02*
D03*
X1220D02*
D03*
X1120Y5005D02*
D03*
X1020D02*
D03*
X920D02*
D03*
X820D02*
D03*
X720D02*
D03*
X620D02*
D03*
Y4705D02*
D03*
X720D02*
D03*
X820D02*
D03*
X920D02*
D03*
X1020D02*
D03*
X1120D02*
D03*
X1220D02*
D03*
X1120Y4480D02*
D03*
X1020D02*
D03*
X920D02*
D03*
X820D02*
D03*
X720D02*
D03*
X620D02*
D03*
Y4180D02*
D03*
X720D02*
D03*
X820D02*
D03*
X920D02*
D03*
X1020D02*
D03*
X1120D02*
D03*
X1220D02*
D03*
X1120Y3955D02*
D03*
X1020D02*
D03*
X920D02*
D03*
X820D02*
D03*
X720D02*
D03*
X620D02*
D03*
Y3655D02*
D03*
X720D02*
D03*
X820D02*
D03*
X920D02*
D03*
X1020D02*
D03*
X1120D02*
D03*
X1220D02*
D03*
X1120Y3430D02*
D03*
X1020D02*
D03*
X920D02*
D03*
X820D02*
D03*
X720D02*
D03*
X620D02*
D03*
Y3130D02*
D03*
X720D02*
D03*
X820D02*
D03*
X920D02*
D03*
X1020D02*
D03*
X1120D02*
D03*
X1220D02*
D03*
X1120Y2905D02*
D03*
X1020D02*
D03*
X920D02*
D03*
X820D02*
D03*
X720D02*
D03*
X620D02*
D03*
Y2605D02*
D03*
X720D02*
D03*
X820D02*
D03*
X920D02*
D03*
X1020D02*
D03*
X1120D02*
D03*
X1220D02*
D03*
X1120Y2380D02*
D03*
X1020D02*
D03*
X920D02*
D03*
X820D02*
D03*
X720D02*
D03*
X620D02*
D03*
Y2080D02*
D03*
X720D02*
D03*
X820D02*
D03*
X920D02*
D03*
X1020D02*
D03*
X1120D02*
D03*
X1220D02*
D03*
X1560Y4060D02*
D03*
X1660Y3960D02*
D03*
Y4060D02*
D03*
X1760Y3960D02*
D03*
Y4060D02*
D03*
X1860Y3960D02*
D03*
Y4060D02*
D03*
X1960Y3960D02*
D03*
Y4060D02*
D03*
X2060Y3960D02*
D03*
Y4060D02*
D03*
X2160Y3960D02*
D03*
Y4060D02*
D03*
X2260Y3960D02*
D03*
Y4060D02*
D03*
X2360Y3960D02*
D03*
X2460Y4060D02*
D03*
X2360D02*
D03*
X2460Y4160D02*
D03*
X2360D02*
D03*
X2460Y4260D02*
D03*
X2360D02*
D03*
X2460Y4360D02*
D03*
X2360D02*
D03*
X2460Y4460D02*
D03*
X2360D02*
D03*
X2460Y4560D02*
D03*
X2360D02*
D03*
X2460Y4660D02*
D03*
X2360D02*
D03*
X2460Y4760D02*
D03*
X2360D02*
D03*
X2460Y4860D02*
D03*
X2360Y4960D02*
D03*
Y4860D02*
D03*
X2260Y4960D02*
D03*
Y4860D02*
D03*
X2160Y4960D02*
D03*
Y4860D02*
D03*
X2060Y4960D02*
D03*
Y4860D02*
D03*
X1960Y4960D02*
D03*
Y4860D02*
D03*
X1860Y4960D02*
D03*
Y4860D02*
D03*
X1760Y4960D02*
D03*
Y4860D02*
D03*
X1660Y4960D02*
D03*
Y4860D02*
D03*
X1560Y4960D02*
D03*
X1460Y4860D02*
D03*
X1560D02*
D03*
X1460Y4760D02*
D03*
X1560D02*
D03*
X1460Y4660D02*
D03*
X1560D02*
D03*
X1460Y4560D02*
D03*
X1560D02*
D03*
X1460Y4460D02*
D03*
X1560D02*
D03*
X1460Y4360D02*
D03*
X1560D02*
D03*
X1460Y4260D02*
D03*
X1560D02*
D03*
X1460Y4160D02*
D03*
X1560D02*
D03*
X1460Y4060D02*
D03*
X1560Y2720D02*
D03*
X1660Y2620D02*
D03*
Y2720D02*
D03*
X1760Y2620D02*
D03*
Y2720D02*
D03*
X1860Y2620D02*
D03*
Y2720D02*
D03*
X1960Y2620D02*
D03*
Y2720D02*
D03*
X2060Y2620D02*
D03*
Y2720D02*
D03*
X2160Y2620D02*
D03*
Y2720D02*
D03*
X2260Y2620D02*
D03*
Y2720D02*
D03*
X2360Y2620D02*
D03*
X2460Y2720D02*
D03*
X2360D02*
D03*
X2460Y2820D02*
D03*
X2360D02*
D03*
X2460Y2920D02*
D03*
X2360D02*
D03*
X2460Y3020D02*
D03*
X2360D02*
D03*
X2460Y3120D02*
D03*
X2360D02*
D03*
X2460Y3220D02*
D03*
X2360D02*
D03*
X2460Y3320D02*
D03*
X2360D02*
D03*
X2460Y3420D02*
D03*
X2360D02*
D03*
X2460Y3520D02*
D03*
X2360Y3620D02*
D03*
Y3520D02*
D03*
X2260Y3620D02*
D03*
Y3520D02*
D03*
X2160Y3620D02*
D03*
Y3520D02*
D03*
X2060Y3620D02*
D03*
Y3520D02*
D03*
X1960Y3620D02*
D03*
Y3520D02*
D03*
X1860Y3620D02*
D03*
Y3520D02*
D03*
X1760Y3620D02*
D03*
Y3520D02*
D03*
X1660Y3620D02*
D03*
Y3520D02*
D03*
X1560Y3620D02*
D03*
X1460Y3520D02*
D03*
X1560D02*
D03*
X1460Y3420D02*
D03*
X1560D02*
D03*
X1460Y3320D02*
D03*
X1560D02*
D03*
X1460Y3220D02*
D03*
X1560D02*
D03*
X1460Y3120D02*
D03*
X1560D02*
D03*
X1460Y3020D02*
D03*
X1560D02*
D03*
X1460Y2920D02*
D03*
X1560D02*
D03*
X1460Y2820D02*
D03*
X1560D02*
D03*
X1460Y2720D02*
D03*
X1440Y5260D02*
D03*
Y5460D02*
D03*
X1420Y2160D02*
D03*
Y2360D02*
D03*
X2940Y4760D02*
D03*
X2740D02*
D03*
X4100D02*
D03*
X3900D02*
D03*
X2940Y3795D02*
D03*
X2740D02*
D03*
X4100D02*
D03*
X3900D02*
D03*
X2940Y2830D02*
D03*
X2740D02*
D03*
X4100D02*
D03*
X3900D02*
D03*
D15*
X3000Y4927D02*
D03*
X3580D02*
D03*
X4160D02*
D03*
X4740D02*
D03*
X3000Y3970D02*
D03*
X3580D02*
D03*
X4160D02*
D03*
X4740D02*
D03*
X3000Y3013D02*
D03*
X3580D02*
D03*
X4160D02*
D03*
X4740D02*
D03*
X3000Y2057D02*
D03*
X3580D02*
D03*
X4160D02*
D03*
X4740D02*
D03*
D16*
X4851Y2276D02*
D03*
X4885Y2896D02*
D03*
X5007Y3414D02*
D03*
X4893Y3047D02*
D03*
X4967Y2425D02*
D03*
X4992Y3050D02*
D03*
X3737Y2357D02*
D03*
X2800Y5277D02*
D03*
X2624D02*
D03*
X2418Y5165D02*
D03*
X2110Y4157D02*
D03*
X2671Y2855D02*
D03*
X4244Y5532D02*
D03*
X1987Y4759D02*
D03*
X3726Y4805D02*
D03*
X3913Y5176D02*
D03*
X2066Y3187D02*
D03*
X4865Y4997D02*
D03*
X3106Y2482D02*
D03*
X1663Y3133D02*
D03*
X2943Y2607D02*
D03*
X4954Y2277D02*
D03*
X5008Y3729D02*
D03*
X3412Y3513D02*
D03*
X2553Y3218D02*
D03*
Y4123D02*
D03*
X3654Y3946D02*
D03*
X2764Y4399D02*
D03*
X2041Y4375D02*
D03*
X4669Y2750D02*
D03*
X4315Y3464D02*
D03*
X4029Y5133D02*
D03*
X4159Y2882D02*
D03*
X1837Y3041D02*
D03*
X4064Y3676D02*
D03*
X1313Y5348D02*
D03*
X3448Y5506D02*
D03*
X4002Y4121D02*
D03*
X4278Y5330D02*
D03*
X3309Y2931D02*
D03*
X2528Y3022D02*
D03*
X3510Y3319D02*
D03*
X3998Y3418D02*
D03*
X4046Y4220D02*
D03*
X2136Y3338D02*
D03*
X1629Y2458D02*
D03*
X3754Y2591D02*
D03*
X3763Y2926D02*
D03*
X4772Y2896D02*
D03*
X3202Y4816D02*
D03*
X3726Y3513D02*
D03*
X3176Y3317D02*
D03*
X3711Y5017D02*
D03*
X3368Y3120D02*
D03*
X3345Y4902D02*
D03*
X4847Y5374D02*
D03*
X2798Y4056D02*
D03*
X2265Y4510D02*
D03*
X3164Y3713D02*
D03*
X3102Y3396D02*
D03*
X4292Y3918D02*
D03*
X4644Y3107D02*
D03*
X4789Y3804D02*
D03*
X1420Y4979D02*
D03*
X3131Y5496D02*
D03*
X4579Y2313D02*
D03*
X4789Y4745D02*
D03*
X4307Y4049D02*
D03*
X3487Y2991D02*
D03*
X2409Y3814D02*
D03*
X4308Y3320D02*
D03*
X4302Y3075D02*
D03*
X5008Y4928D02*
D03*
X4022Y5200D02*
D03*
X4623Y4162D02*
D03*
X4479Y2809D02*
D03*
X2847Y4948D02*
D03*
X2819Y2720D02*
D03*
X2016Y4433D02*
D03*
X1975Y2816D02*
D03*
X4340Y4570D02*
D03*
X4896Y4020D02*
D03*
X4978Y3150D02*
D03*
X4972Y3513D02*
D03*
X3754Y2132D02*
D03*
X3049Y2838D02*
D03*
X3556D02*
D03*
X1411Y4909D02*
D03*
X1931Y2997D02*
D03*
X4302Y3138D02*
D03*
X4111Y2206D02*
D03*
X3386Y3120D02*
D03*
X3411Y2379D02*
D03*
X4109Y4642D02*
D03*
X3212Y4120D02*
D03*
X2901Y2157D02*
D03*
X5067Y3685D02*
D03*
X4894Y4375D02*
D03*
X4489Y4770D02*
D03*
X4564Y4570D02*
D03*
M02*
